SplineFontDB: 3.0
FontName: HussarBdObl
FullName: Hussar Bold Oblique
FamilyName: Hussar
Weight: Bold
Copyright: (c) 2014-2015, Robert Jablonski/Cannot Into Space Fonts, all rights reserved. Design Improvements (c) 2015, "Crazy Dave"@ PlusOne Fonts, Mew Too/Cannot Into Space Fonts, Robert Jablonski/Cannot Into Space Fonts, Jasper@Cannot Into Space Fonts, All Rights Reserved.
Version: 2.27
ItalicAngle: 0
UnderlinePosition: -50
UnderlineWidth: 50
Ascent: 750
Descent: 250
InvalidEm: 0
sfntRevision: 0x0002451f
LayerCount: 2
Layer: 0 0 "Back" 1
Layer: 1 0 "Fore" 0
PreferredKerning: 4
XUID: [1021 604 120746000 26918]
StyleMap: 0x0000
FSType: 0
OS2Version: 3
OS2_WeightWidthSlopeOnly: 0
OS2_UseTypoMetrics: 0
CreationTime: 1411326290
ModificationTime: 1438986696
PfmFamily: 81
TTFWeight: 700
TTFWidth: 5
LineGap: 0
VLineGap: 0
Panose: 0 0 8 0 0 0 0 0 0 0
OS2TypoAscent: 750
OS2TypoAOffset: 0
OS2TypoDescent: -250
OS2TypoDOffset: 0
OS2TypoLinegap: 0
OS2WinAscent: 900
OS2WinAOffset: 0
OS2WinDescent: 350
OS2WinDOffset: 0
HheadAscent: 900
HheadAOffset: 0
HheadDescent: -350
HheadDOffset: 0
OS2SubXSize: 650
OS2SubYSize: 600
OS2SubXOff: 0
OS2SubYOff: 75
OS2SupXSize: 650
OS2SupYSize: 600
OS2SupXOff: 0
OS2SupYOff: 350
OS2StrikeYSize: 50
OS2StrikeYPos: 307
OS2CapHeight: 825
OS2XHeight: 513
OS2FamilyClass: 2051
OS2Vendor: 'CiSf'
OS2CodePages: 2000009f.00000000
OS2UnicodeRanges: a00006bf.5200c0ea.06008000.00000000
Lookup: 258 0 0 "'kern' Horizontal Kerning in Latin lookup 0" { "'kern' Horizontal Kerning in Latin lookup 0 subtable"  } ['kern' ('DFLT' <'dflt' > 'latn' <'dflt' > ) ]
Lookup: 258 0 0 "'kern' Horizontal Kerning in Latin lookup 1" { "'kern' Horizontal Kerning in Latin lookup 1 subtable"  } ['kern' ('DFLT' <'dflt' > 'latn' <'dflt' > ) ]
MarkAttachClasses: 1
DEI: 91125
KernClass2: 21 24 "'kern' Horizontal Kerning in Latin lookup 1 subtable"
 73 a agrave aacute acircumflex atilde adieresis aring amacron abreve aogonek
 24 C Ccedilla Cacute Ccaron
 16 T Tcaron uni021A

StartChar: .notdef
Encoding: 65536 -1 0
GlifName: _notdef
Width: 522
Flags: W
HStem: 0 50<117 417> 450 50<176 476>
LayerCount: 2
Fore
SplineSet
117 50 m 1
 417 50 l 1
 476 450 l 1
 176 450 l 1
 117 50 l 1
60 0 m 1
 134 500 l 1
 534 500 l 1
 460 0 l 1
 60 0 l 1
EndSplineSet
EndChar

StartChar: exclam
Encoding: 33 33 2
GlifName: exclam
Width: 282
Flags: W
HStem: 0 176<110.359 199.641> 805 20G<171.797 350>
VStem: 70 170<39.0625 136.938>
LayerCount: 2
Fore
SplineSet
109 235 m 1
 174 825 l 1
 350 825 l 1
 241 235 l 1
 109 235 l 1
70 88 m 0
 77 136 122 176 168 176 c 0
 214 176 247 136 240 88 c 0
 233 40 188 0 142 0 c 0
 96 0 63 40 70 88 c 0
EndSplineSet
EndChar

StartChar: quotedbl
Encoding: 34 34 3
GlifName: quotedbl
Width: 408
Flags: W
HStem: 581 279<177 249 350 422>
VStem: 156 327
LayerCount: 2
Fore
SplineSet
177 860 m 1
 310 860 l 1
 249 581 l 1
 156 581 l 1
 177 860 l 1
350 860 m 1
 483 860 l 1
 422 581 l 1
 329 581 l 1
 350 860 l 1
EndSplineSet
EndChar

StartChar: numbersign
Encoding: 35 35 4
GlifName: numbersign
Width: 744
Flags: W
HStem: 0 21G<86 218.128 318 450.128> 219 121<123 175 349 407 581 638> 486 121<228 285 459 517 691 743> 805 20G<415.835 548 647.835 780>
LayerCount: 2
Fore
SplineSet
457 340 m 1
 517 486 l 1
 409 486 l 1
 349 340 l 1
 457 340 l 1
299 219 m 1
 210 0 l 1
 86 0 l 1
 175 219 l 1
 73 219 l 1
 123 340 l 1
 225 340 l 1
 285 486 l 1
 178 486 l 1
 228 607 l 1
 335 607 l 1
 424 825 l 1
 548 825 l 1
 459 607 l 1
 567 607 l 1
 656 825 l 1
 780 825 l 1
 691 607 l 1
 793 607 l 1
 743 486 l 1
 641 486 l 1
 581 340 l 1
 688 340 l 1
 638 219 l 1
 531 219 l 1
 442 0 l 1
 318 0 l 1
 407 219 l 1
 299 219 l 1
EndSplineSet
EndChar

StartChar: dollar
Encoding: 36 36 5
GlifName: dollar
Width: 705
Flags: W
LayerCount: 2
Fore
SplineSet
488 240 m 0
 505 353 169 399 197 588 c 0
 216 720 328 810 444 834 c 1
 459 932 l 1
 572 890 l 1
 564 836 l 1
 678 820 748 762 748 762 c 1
 649 612 l 1
 649 612 576 669 491 669 c 0
 427 669 389 640 382 595 c 0
 365 480 728 467 696 251 c 0
 673 93 565 18 440 -6 c 1
 425 -109 l 1
 309 -78 l 1
 319 -14 l 1
 143 -5 52 94 52 94 c 1
 169 252 l 1
 169 252 265 159 357 159 c 0
 398 159 477 163 488 240 c 0
EndSplineSet
EndChar

StartChar: percent
Encoding: 37 37 6
GlifName: percent
Width: 970
Flags: W
HStem: -15 116<678.175 790.252> 0 21G<187 319.594> 276 116<700.395 810.886> 440 116<280.659 392.691> 731 116<300.32 410.883> 805 20G<774.406 907>
LayerCount: 2
Fore
SplineSet
258 643 m 0x38
 251 597 286 556 334 556 c 0
 382 556 428 597 435 643 c 0
 442 689 408 731 360 731 c 0
 312 731 265 689 258 643 c 0x38
139 643 m 0
 155 752 264 847 378 847 c 0
 492 847 570 752 554 643 c 0
 538 534 432 440 318 440 c 0
 204 440 123 534 139 643 c 0
656 188 m 0
 649 142 684 101 732 101 c 0xb0
 780 101 826 142 833 188 c 0
 840 234 806 276 758 276 c 0
 710 276 663 234 656 188 c 0
537 188 m 0
 553 297 661 392 775 392 c 0
 889 392 968 297 952 188 c 0
 936 79 829 -15 715 -15 c 0
 601 -15 521 79 537 188 c 0
907 825 m 1x74
 305 0 l 1
 187 0 l 1
 789 825 l 1
 907 825 l 1x74
EndSplineSet
EndChar

StartChar: ampersand
Encoding: 38 38 7
GlifName: ampersand
Width: 952
Flags: W
HStem: -15 178<308.635 459.074> 0 21G<661.211 914> 707 133<472.273 584.963>
LayerCount: 2
Fore
SplineSet
504 210 m 1xa0
 392 339 l 1
 392 339 301 308 290 232 c 0
 283 184 329 163 373 163 c 0
 441 163 504 210 504 210 c 1xa0
528 707 m 0
 477 707 450 669 444 625 c 0
 437 577 489 524 489 524 c 1
 534 547 590 581 596 625 c 0
 602 669 589 707 528 707 c 0
568 413 m 1
 753 198 823 288 897 298 c 1
 897 298 867 265 763 185 c 1
 914 0 l 1
 677 0 l 1x60
 617 76 l 1
 537 25 455 -15 328 -15 c 0
 206 -15 48 34 75 217 c 0
 95 354 334 414 310 451 c 1
 310 451 243 560 253 625 c 0
 272 753 377 840 548 840 c 0
 713 840 775 728 761 625 c 0
 744 504 545 451 568 413 c 1
EndSplineSet
EndChar

StartChar: quotesingle
Encoding: 39 39 8
GlifName: quotesingle
Width: 235
Flags: W
HStem: 581 279<177 249>
VStem: 156 154
LayerCount: 2
Fore
SplineSet
177 860 m 1
 310 860 l 1
 249 581 l 1
 156 581 l 1
 177 860 l 1
EndSplineSet
EndChar

StartChar: parenleft
Encoding: 40 40 9
GlifName: parenleft
Width: 390
Flags: W
HStem: -260 21G<182.625 235.388>
LayerCount: 2
Fore
SplineSet
307 -211 m 1
 186 -260 l 1
 186 -260 41 -49 92 297 c 0
 145 653 367 875 367 875 c 1
 474 826 l 1
 474 826 308 655 255 297 c 0
 205 -41 307 -211 307 -211 c 1
EndSplineSet
EndChar

StartChar: parenright
Encoding: 41 41 10
GlifName: parenright
Width: 391
Flags: W
HStem: -260 21G<82.9184 136.228>
LayerCount: 2
Fore
SplineSet
127 -260 m 1
 19 -211 l 1
 19 -211 171 -41 221 297 c 0
 274 655 158 826 158 826 c 1
 280 875 l 1
 280 875 437 653 384 297 c 0
 333 -49 127 -260 127 -260 c 1
EndSplineSet
EndChar

StartChar: asterisk
Encoding: 42 42 11
GlifName: asterisk
Width: 458
Flags: W
HStem: 513 21G<207.333 252.242 361.473 406>
LayerCount: 2
Fore
SplineSet
501 778 m 1
 515 698 l 1
 395 657 l 1
 446 558 l 1
 374 513 l 1
 317 604 l 1
 234 513 l 1
 174 558 l 1
 255 657 l 1
 147 698 l 1
 185 778 l 1
 294 743 l 1
 312 860 l 1
 398 860 l 1
 382 743 l 1
 501 778 l 1
EndSplineSet
EndChar

StartChar: plus
Encoding: 43 43 12
GlifName: plus
Width: 613
Flags: W
HStem: 338 153<122 279 455 611>
LayerCount: 2
Fore
SplineSet
405 158 m 1
 252 158 l 1
 279 338 l 1
 99 338 l 1
 122 491 l 1
 302 491 l 1
 328 671 l 1
 481 671 l 1
 455 491 l 1
 634 491 l 1
 611 338 l 1
 432 338 l 1
 405 158 l 1
EndSplineSet
EndChar

StartChar: comma
Encoding: 44 44 13
GlifName: comma
Width: 260
Flags: W
HStem: -136 302
VStem: 29 191
LayerCount: 2
Fore
SplineSet
29 -104 m 1
 172 15 25 166 147 166 c 0
 195 166 227 128 220 80 c 0
 207 -11 132 -85 62 -136 c 1
 29 -104 l 1
EndSplineSet
EndChar

StartChar: hyphen
Encoding: 45 45 14
GlifName: hyphen
Width: 435
Flags: W
HStem: 213 153<109 408>
LayerCount: 2
Fore
SplineSet
109 366 m 1
 431 366 l 1
 408 213 l 1
 86 213 l 1
 109 366 l 1
EndSplineSet
EndChar

StartChar: period
Encoding: 46 46 15
GlifName: period
Width: 272
Flags: W
HStem: 0 176<103.359 192.641>
VStem: 63 170<39.0625 136.938>
LayerCount: 2
Fore
SplineSet
63 88 m 0
 70 136 115 176 161 176 c 0
 207 176 240 136 233 88 c 0
 226 40 181 0 135 0 c 0
 89 0 56 40 63 88 c 0
EndSplineSet
EndChar

StartChar: slash
Encoding: 47 47 16
GlifName: slash
Width: 637
Flags: W
LayerCount: 2
Fore
SplineSet
726 860 m 1
 169 -120 l 1
 17 -120 l 1
 574 860 l 1
 726 860 l 1
EndSplineSet
EndChar

StartChar: zero
Encoding: 48 48 17
GlifName: zero
Width: 771
Flags: W
HStem: -15 165<341.258 474.53> 675 165<416.869 542.949>
LayerCount: 2
Fore
SplineSet
299 412 m 0
 273 234 315 150 406 150 c 0
 496 150 565 234 591 412 c 0
 616 579 574 675 484 675 c 0
 393 675 324 578 299 412 c 0
109 412 m 0
 151 698 331 840 508 840 c 0
 685 840 823 698 781 412 c 0
 736 106 559 -15 382 -15 c 0
 205 -15 64 106 109 412 c 0
EndSplineSet
EndChar

StartChar: one
Encoding: 49 49 18
GlifName: one
Width: 435
Flags: W
HStem: 0 21G<183 373.958> 805 20G<370.921 493>
LayerCount: 2
Fore
SplineSet
119 487 m 1
 146 673 l 1
 405 825 l 1
 493 825 l 1
 371 0 l 1
 183 0 l 1
 268 575 l 1
 119 487 l 1
EndSplineSet
EndChar

StartChar: two
Encoding: 50 50 19
GlifName: two
Width: 734
Flags: W
HStem: 0 165<405 687> 524 21G<243.842 303.783> 681 159<394.625 517.174>
LayerCount: 2
Fore
SplineSet
453 681 m 0
 363 681 282 524 282 524 c 1
 137 600 l 1
 137 600 252 840 476 840 c 0
 759 840 768 654 753 550 c 0
 725 357 405 165 405 165 c 1
 711 165 l 1
 687 0 l 1
 44 0 l 1
 51 47 l 1
 51 47 528 398 550 550 c 0
 554 580 563 681 453 681 c 0
EndSplineSet
EndChar

StartChar: three
Encoding: 51 51 20
GlifName: three
Width: 700
Flags: W
HStem: -15 162<300.998 455.816> 371 123<384 483.304> 689 151<377.085 511.09>
LayerCount: 2
Fore
SplineSet
175 659 m 1
 175 659 244 840 475 840 c 0
 632 840 732 740 711 600 c 0
 701 532 665 480 615 445 c 1
 673 406 705 343 692 256 c 0
 669 98 523 -15 346 -15 c 0
 92 -15 66 188 66 188 c 1
 252 273 l 1
 252 273 245 147 369 147 c 0
 544 147 624 379 366 371 c 1
 384 494 l 1
 591 494 573 689 451 689 c 0
 347 689 313 587 313 587 c 1
 175 659 l 1
EndSplineSet
EndChar

StartChar: four
Encoding: 52 52 21
GlifName: four
Width: 762
Flags: W
HStem: 0 21G<442 620.989> 174 165<343 468 668 740> 805 20G<478.983 740>
LayerCount: 2
Fore
SplineSet
527 574 m 1
 487 574 l 1
 343 339 l 1
 492 339 l 1
 527 574 l 1
740 825 m 1
 668 339 l 1
 764 339 l 1
 740 174 l 1
 644 174 l 1
 618 0 l 1
 442 0 l 1
 468 174 l 1
 68 174 l 1
 76 230 l 1
 493 825 l 1
 740 825 l 1
EndSplineSet
EndChar

StartChar: five
Encoding: 53 53 22
GlifName: five
Width: 686
Flags: W
HStem: -15 157<268.732 425.687> 660 165<422 682>
LayerCount: 2
Fore
SplineSet
353 142 m 0
 517 142 596 407 296 407 c 0
 227 407 178 392 151 381 c 1
 286 825 l 1
 707 825 l 1
 682 660 l 1
 422 660 l 1
 387 545 l 1
 571 545 710 485 676 256 c 0
 653 98 507 -15 330 -15 c 0
 154 -15 81 80 62 164 c 1
 222 236 l 1
 229 185 267 142 353 142 c 0
EndSplineSet
EndChar

StartChar: six
Encoding: 54 54 23
GlifName: six
Width: 728
Flags: W
HStem: -15 155<318.869 458.621> 393 161<387.5 554.5> 805 20G<418.5 708>
LayerCount: 2
Fore
SplineSet
278 265 m 0
 267 193 312 140 385 140 c 0
 458 140 520 193 531 265 c 0
 542 339 493 393 422 393 c 0
 353 393 289 339 278 265 c 0
490 825 m 1
 708 825 l 1
 438 542 l 1
 438 542 460 554 498 554 c 0
 611 554 747 457 719 265 c 0
 690 70 521 -15 372 -15 c 0
 187 -15 60 107 83 265 c 0
 104 410 347 665 490 825 c 1
EndSplineSet
EndChar

StartChar: seven
Encoding: 55 55 24
GlifName: seven
Width: 740
Flags: W
HStem: 0 21G<40 325> 660 165<187 517>
LayerCount: 2
Fore
SplineSet
820 825 m 1
 812 770 l 1
 588 513 388 257 262 0 c 1
 40 0 l 1
 177 227 293 459 517 660 c 1
 162 660 l 1
 187 825 l 1
 820 825 l 1
EndSplineSet
EndChar

StartChar: eight
Encoding: 56 56 25
GlifName: eight
Width: 707
Flags: W
HStem: -15 162<311.922 440.225> 357 156<371.788 465.852> 698 142<392.388 509.729>
LayerCount: 2
Fore
SplineSet
284 252 m 0
 275 191 311 147 373 147 c 0
 433 147 485 191 494 252 c 0
 503 314 462 357 404 357 c 0
 345 357 293 314 284 252 c 0
532 605 m 0
 540 658 510 698 456 698 c 0
 403 698 357 658 349 605 c 0
 341 550 378 513 429 513 c 0
 482 513 524 550 532 605 c 0
714 632 m 0
 701 541 648 481 581 445 c 1
 658 407 711 335 694 222 c 0
 673 83 506 -15 351 -15 c 0
 191 -15 55 83 76 222 c 0
 93 335 164 407 253 445 c 1
 195 481 159 541 172 632 c 0
 190 754 339 840 475 840 c 0
 616 840 732 754 714 632 c 0
EndSplineSet
EndChar

StartChar: nine
Encoding: 57 57 26
GlifName: nine
Width: 726
Flags: W
HStem: 0 21G<139 427.5> 271 161<291.5 458.5> 685 155<388.037 527.619>
LayerCount: 2
Fore
SplineSet
568 560 m 0
 579 632 534 685 461 685 c 0
 388 685 327 632 316 560 c 0
 305 486 353 432 424 432 c 0
 493 432 557 486 568 560 c 0
356 0 m 1
 139 0 l 1
 409 283 l 1
 409 283 386 271 348 271 c 0
 235 271 100 368 128 560 c 0
 157 755 326 840 475 840 c 0
 660 840 786 718 763 560 c 0
 742 415 499 160 356 0 c 1
EndSplineSet
EndChar

StartChar: colon
Encoding: 58 58 27
GlifName: colon
Width: 280
Flags: W
HStem: 0 176<106.516 195.797> 298 176<150.516 239.797>
VStem: 67 214
LayerCount: 2
Fore
SplineSet
67 88 m 0
 74 136 118 176 164 176 c 0
 210 176 244 136 237 88 c 0
 230 40 184 0 138 0 c 0
 92 0 60 40 67 88 c 0
111 386 m 0
 118 434 162 474 208 474 c 0
 254 474 288 434 281 386 c 0
 274 338 228 298 182 298 c 0
 136 298 104 338 111 386 c 0
EndSplineSet
EndChar

StartChar: semicolon
Encoding: 59 59 28
GlifName: semicolon
Width: 275
Flags: W
HStem: 298 176<146.359 235.641>
VStem: 106 170<337.062 434.938>
LayerCount: 2
Fore
SplineSet
106 386 m 0
 113 434 158 474 204 474 c 0
 250 474 283 434 276 386 c 0
 269 338 224 298 178 298 c 0
 132 298 99 338 106 386 c 0
40 -104 m 1
 183 15 36 166 158 166 c 0
 206 166 238 128 231 80 c 0
 218 -11 143 -85 73 -136 c 1
 40 -104 l 1
EndSplineSet
EndChar

StartChar: less
Encoding: 60 60 29
GlifName: less
Width: 652
Flags: W
LayerCount: 2
Fore
SplineSet
118 475 m 1
 699 697 l 1
 678 555 l 1
 299 415 l 1
 637 277 l 1
 616 135 l 1
 101 357 l 1
 118 475 l 1
EndSplineSet
EndChar

StartChar: equal
Encoding: 61 61 30
GlifName: equal
Width: 629
Flags: W
HStem: 218 153<112 601> 458 153<147 637>
LayerCount: 2
Fore
SplineSet
112 371 m 1
 624 371 l 1
 601 218 l 1
 89 218 l 1
 112 371 l 1
147 611 m 1
 659 611 l 1
 637 458 l 1
 125 458 l 1
 147 611 l 1
EndSplineSet
EndChar

StartChar: greater
Encoding: 62 62 31
GlifName: greater
Width: 652
Flags: W
LayerCount: 2
Fore
SplineSet
95 277 m 1
 473 415 l 1
 136 555 l 1
 157 697 l 1
 670 475 l 1
 653 357 l 1
 74 135 l 1
 95 277 l 1
EndSplineSet
EndChar

StartChar: question
Encoding: 63 63 32
GlifName: question
Width: 636
Flags: W
HStem: 0 176<274.359 363.641> 643 157<330.557 452.278>
LayerCount: 2
Fore
SplineSet
474 362 m 1
 433 335 435 323 420 230 c 1
 255 230 l 1
 277 382 286 420 334 448 c 0
 401 487 459 490 469 561 c 0
 476 609 445 643 400 643 c 0
 328 643 284 583 267 540 c 1
 130 611 l 1
 131 616 201 800 424 800 c 0
 574 800 694 702 673 561 c 0
 659 463 576 403 474 362 c 1
234 88 m 0
 241 136 286 176 332 176 c 0
 378 176 411 136 404 88 c 0
 397 40 352 0 306 0 c 0
 260 0 227 40 234 88 c 0
EndSplineSet
EndChar

StartChar: at
Encoding: 64 64 33
GlifName: at
Width: 973
Flags: W
HStem: -15 142<403.996 636.389> 202 123<419.644 568.378> 223 133<726 851.382> 487 119<494.292 611.722> 709 131<486.44 722.845>
LayerCount: 2
Fore
SplineSet
456 405 m 0xd8
 449 359 480 325 533 325 c 0
 583 325 625 359 632 405 c 0
 639 452 604 487 557 487 c 0
 507 487 463 452 456 405 c 0xd8
802 356 m 0xb8
 845 356 858 368 869 442 c 0
 892 599 776 709 602 709 c 0
 432 709 278 576 254 413 c 0
 230 250 349 127 516 127 c 0
 648 127 713 195 713 195 c 1
 817 118 l 1
 817 118 711 -15 495 -15 c 0
 251 -15 70 159 108 413 c 0
 146 667 377 840 621 840 c 0
 855 840 1023 678 988 442 c 0
 965 286 851 223 753 223 c 0xb8
 699 223 650 241 621 269 c 1
 589 222 529 202 476 202 c 0xd8
 366 202 300 291 317 403 c 0
 334 516 425 606 535 606 c 0
 844 606 734 356 802 356 c 0xb8
EndSplineSet
EndChar

StartChar: A
Encoding: 65 65 34
GlifName: A_
Width: 918
Flags: W
HStem: 0 21G<39 251.182 672.394 879> 165 165<414 600> 805 20G<481.994 672.139>
LayerCount: 2
Fore
SplineSet
667 825 m 1
 879 0 l 1
 677 0 l 1
 639 165 l 1
 325 165 l 1
 241 0 l 1
 39 0 l 1
 493 825 l 1
 667 825 l 1
600 330 m 1
 541 570 l 1
 414 330 l 1
 600 330 l 1
EndSplineSet
EndChar

StartChar: B
Encoding: 66 66 35
GlifName: B_
Width: 706
Flags: W
HStem: 0 142<280 430.902> 346 126<329 447.128> 676 145<359 491.567>
LayerCount: 2
Fore
SplineSet
329 472 m 1
 353 472 l 2
 428 472 498 477 512 574 c 0
 526 671 458 676 383 676 c 2
 359 676 l 1
 329 472 l 1
310 346 m 1
 280 142 l 1
 304 142 l 2
 379 142 476 147 490 244 c 0
 504 341 375 346 334 346 c 2
 310 346 l 1
622 419 m 1
 675 378 701 315 689 232 c 0
 666 79 533 0 372 0 c 2
 62 0 l 1
 183 821 l 1
 493 821 l 2
 654 821 738 739 715 586 c 0
 705 516 671 459 622 419 c 1
EndSplineSet
EndChar

StartChar: C
Encoding: 67 67 36
GlifName: C_
Width: 779
Flags: W
HStem: -15 185<437.293 676.238> 655 185<500.011 774.348>
LayerCount: 2
Fore
SplineSet
737 25 m 1
 737 25 672 -15 493 -15 c 0
 260 -15 73 175 108 411 c 0
 143 648 385 840 619 840 c 0
 798 840 851 800 851 800 c 1
 784 615 l 1
 784 615 716 655 620 655 c 0
 431 655 328 523 312 413 c 0
 296 302 359 170 548 170 c 0
 644 170 724 210 724 210 c 1
 737 25 l 1
EndSplineSet
EndChar

StartChar: D
Encoding: 68 68 37
GlifName: D_
Width: 769
Flags: W
HStem: 0 168<275 406.759> 657 168<347 475.751>
LayerCount: 2
Fore
SplineSet
577 412 m 0
 598 556 550 657 347 657 c 1
 275 168 l 1
 478 168 556 268 577 412 c 0
184 825 m 1
 424 825 l 2
 650 825 813 653 778 413 c 0
 742 172 529 0 302 0 c 2
 62 0 l 1
 184 825 l 1
EndSplineSet
EndChar

StartChar: E
Encoding: 69 69 38
GlifName: E_
Width: 589
Flags: W
HStem: 0 165<274 534> 331 165<323 571> 660 165<347 631>
LayerCount: 2
Fore
SplineSet
656 825 m 1
 631 660 l 1
 347 660 l 1
 323 496 l 1
 595 496 l 1
 571 331 l 1
 299 331 l 1
 274 165 l 1
 558 165 l 1
 534 0 l 1
 62 0 l 1
 184 825 l 1
 656 825 l 1
EndSplineSet
EndChar

StartChar: F
Encoding: 70 70 39
GlifName: F_
Width: 588
Flags: W
HStem: 0 21G<62 252.961> 331 165<323 567> 660 165<347 637>
LayerCount: 2
Fore
SplineSet
662 825 m 1
 637 660 l 1
 347 660 l 1
 323 496 l 1
 591 496 l 1
 567 331 l 1
 299 331 l 1
 250 0 l 1
 62 0 l 1
 184 825 l 1
 662 825 l 1
EndSplineSet
EndChar

StartChar: G
Encoding: 71 71 40
GlifName: G_
Width: 891
Flags: W
HStem: -15 173<405.229 577.026> 0 21G<775.882 832.944> 317 145<516 686> 670 170<475.883 650.174>
LayerCount: 2
Fore
SplineSet
898 462 m 1xb0
 830 0 l 1x70
 738 34 l 1
 752 94 l 1
 672 18 567 -15 447 -15 c 0
 225 -15 73 176 108 412 c 0
 143 649 341 840 573 840 c 0
 718 840 811 786 870 699 c 1
 727 564 l 1
 690 641 632 670 559 670 c 0
 443 670 332 555 311 412 c 0
 290 272 367 158 483 158 c 0
 573 158 671 216 686 317 c 1
 516 317 l 1
 503 462 l 1
 898 462 l 1xb0
EndSplineSet
EndChar

StartChar: H
Encoding: 72 72 41
GlifName: H_
Width: 720
Flags: W
HStem: 0 21G<62 252.956 468 658.958> 318 188<325 515> 805 20G<181.042 372 587.053 778>
LayerCount: 2
Fore
SplineSet
778 825 m 1
 656 0 l 1
 468 0 l 1
 515 318 l 1
 297 318 l 1
 250 0 l 1
 62 0 l 1
 184 825 l 1
 372 825 l 1
 325 506 l 1
 543 506 l 1
 590 825 l 1
 778 825 l 1
EndSplineSet
EndChar

StartChar: I
Encoding: 73 73 42
GlifName: I_
Width: 314
Flags: W
HStem: 0 21G<62 252.958> 805 20G<181.042 372>
VStem: 62 310
LayerCount: 2
Fore
SplineSet
372 825 m 1
 250 0 l 1
 62 0 l 1
 184 825 l 1
 372 825 l 1
EndSplineSet
EndChar

StartChar: J
Encoding: 74 74 43
GlifName: J_
Width: 580
Flags: W
HStem: -15 180<118.991 324.24> 805 20G<449.022 640>
LayerCount: 2
Fore
SplineSet
640 825 m 1
 552 233 l 2
 528 71 423 -15 258 -15 c 0
 140 -15 39 -5 39 -5 c 1
 126 175 l 1
 126 175 210 165 258 165 c 0
 312 165 359 198 371 281 c 2
 452 825 l 1
 640 825 l 1
EndSplineSet
EndChar

StartChar: K
Encoding: 75 75 44
GlifName: K_
Width: 850
Flags: W
HStem: 0 21G<62 252.959 542.449 814> 805 20G<181.042 372 639.054 884>
LayerCount: 2
Fore
SplineSet
814 0 m 1
 554 0 l 1
 312 419 l 1
 250 0 l 1
 62 0 l 1
 184 825 l 1
 372 825 l 1
 312 419 l 1
 656 825 l 1
 884 825 l 1
 526 419 l 1
 814 0 l 1
EndSplineSet
EndChar

StartChar: L
Encoding: 76 76 45
GlifName: L_
Width: 583
Flags: W
HStem: 0 165<274 534> 805 20G<181.042 372>
LayerCount: 2
Fore
SplineSet
372 825 m 1
 274 165 l 1
 558 165 l 1
 534 0 l 1
 62 0 l 1
 184 825 l 1
 372 825 l 1
EndSplineSet
EndChar

StartChar: M
Encoding: 77 77 46
GlifName: M_
Width: 1025
Flags: W
HStem: 0 21G<62 252.059 774 963.958> 805 20G<181.042 454.79 805.412 1083>
LayerCount: 2
Fore
SplineSet
561 5 m 1
 463 5 l 1
 329 523 l 1
 249 0 l 1
 62 0 l 1
 184 825 l 1
 450 825 l 1
 564 349 l 1
 816 825 l 1
 1083 825 l 1
 961 0 l 1
 774 0 l 1
 849 523 l 1
 561 5 l 1
EndSplineSet
EndChar

StartChar: N
Encoding: 78 78 47
GlifName: N_
Width: 832
Flags: W
HStem: 0 21G<62 252.972 746.538 770.958> 805 20G<181.042 205.318 698.941 890>
LayerCount: 2
Fore
SplineSet
62 0 m 1
 184 825 l 1
 637 400 l 1
 702 825 l 1
 890 825 l 1
 768 0 l 1
 313 424 l 1
 250 0 l 1
 62 0 l 1
EndSplineSet
EndChar

StartChar: O
Encoding: 79 79 48
GlifName: O_
Width: 930
Flags: W
HStem: -15 198<406.874 579.233> 642 198<468.641 641.03>
LayerCount: 2
Fore
SplineSet
313 413 m 0
 295 288 372 183 490 183 c 0
 608 183 716 288 734 413 c 0
 752 538 676 642 558 642 c 0
 440 642 331 538 313 413 c 0
108 413 m 0
 142 645 355 840 587 840 c 0
 819 840 973 645 939 413 c 0
 905 181 693 -15 461 -15 c 0
 229 -15 74 181 108 413 c 0
EndSplineSet
EndChar

StartChar: P
Encoding: 80 80 49
GlifName: P_
Width: 690
Flags: W
HStem: 0 21G<62 252.941> 306 150<317 454.453> 675 150<350 485.25>
LayerCount: 2
Fore
SplineSet
317 456 m 1
 409 458 515 468 529 565 c 0
 542 656 459 675 350 675 c 1
 317 456 l 1
184 825 m 1
 486 825 l 1
 684 820 747 698 728 571 c 0
 691 318 407 307 295 306 c 1
 250 0 l 1
 62 0 l 1
 184 825 l 1
EndSplineSet
EndChar

StartChar: Q
Encoding: 81 81 50
GlifName: Q_
Width: 985
Flags: W
HStem: -15 198<406.874 555.737> 0 21G<706.043 949> 642 198<468.641 641.03>
LayerCount: 2
Fore
SplineSet
949 0 m 1x60
 723 0 l 1x60
 684 46 l 1
 616 7 540 -15 461 -15 c 0xa0
 229 -15 74 181 108 413 c 0
 142 645 355 840 587 840 c 0
 819 840 973 645 939 413 c 0
 925 318 881 230 818 158 c 1
 949 0 l 1x60
313 413 m 0
 295 288 372 183 490 183 c 0xa0
 513 183 536 187 557 194 c 1
 481 282 l 1
 623 394 l 1
 695 307 l 1
 715 339 728 375 734 413 c 0
 752 538 676 642 558 642 c 0
 440 642 331 538 313 413 c 0
EndSplineSet
EndChar

StartChar: R
Encoding: 82 82 51
GlifName: R_
Width: 756
Flags: W
HStem: 0 21G<62 252.941 501.87 720> 675 150<350 485.25>
LayerCount: 2
Fore
SplineSet
184 825 m 1
 486 825 l 1
 684 820 747 698 728 571 c 0
 710 446 632 380 544 345 c 1
 720 0 l 1
 512 0 l 1
 356 308 l 1
 333 307 312 306 295 306 c 1
 250 0 l 1
 62 0 l 1
 184 825 l 1
317 456 m 1
 409 458 515 468 529 565 c 0
 542 656 459 675 350 675 c 1
 317 456 l 1
EndSplineSet
EndChar

StartChar: S
Encoding: 83 83 52
GlifName: S_
Width: 712
Flags: W
LayerCount: 2
Fore
SplineSet
170 252 m 1
 269 175 472 117 490 240 c 0
 509 371 170 399 198 588 c 0
 224 765 446 950 750 762 c 1
 651 612 l 1
 544 719 393 664 383 595 c 0
 370 505 732 481 698 251 c 0
 669 54 358 -145 53 94 c 1
 170 252 l 1
EndSplineSet
EndChar

StartChar: T
Encoding: 84 84 53
GlifName: T_
Width: 669
Flags: W
HStem: 0 21G<239 429.939> 660 165<165 336 524 720>
LayerCount: 2
Fore
SplineSet
140 660 m 1
 165 825 l 1
 745 825 l 1
 720 660 l 1
 524 660 l 1
 427 0 l 1
 239 0 l 1
 336 660 l 1
 140 660 l 1
EndSplineSet
EndChar

StartChar: U
Encoding: 85 85 54
GlifName: U_
Width: 762
Flags: W
HStem: -15 185<326.84 490.452> 805 20G<177.03 368 633.023 824>
LayerCount: 2
Fore
SplineSet
824 825 m 1
 745 293 l 2
 715 89 588 -15 378 -15 c 0
 168 -15 71 89 101 293 c 2
 180 825 l 1
 368 825 l 1
 297 348 l 2
 277 210 313 170 405 170 c 0
 497 170 545 210 565 348 c 2
 636 825 l 1
 824 825 l 1
EndSplineSet
EndChar

StartChar: V
Encoding: 86 86 55
GlifName: V_
Width: 915
Flags: W
HStem: 0 21G<377.57 542.345> 805 20G<159 375.723 776.373 999>
LayerCount: 2
Fore
SplineSet
383 0 m 1
 159 825 l 1
 371 825 l 1
 499 283 l 1
 787 825 l 1
 999 825 l 1
 531 0 l 1
 383 0 l 1
EndSplineSet
EndChar

StartChar: W
Encoding: 87 87 56
GlifName: W_
Width: 1228
Flags: W
HStem: 0 21G<270.236 489.639 742.235 961.679> 805 20G<159 370.979 656.731 809.332 1095.01 1311>
LayerCount: 2
Fore
SplineSet
745 0 m 1
 681 463 l 1
 481 0 l 1
 273 0 l 1
 159 825 l 1
 369 825 l 1
 425 259 l 1
 431 259 l 1
 665 825 l 1
 807 825 l 1
 873 259 l 1
 877 259 l 1
 1103 825 l 1
 1311 825 l 1
 953 0 l 1
 745 0 l 1
EndSplineSet
EndChar

StartChar: X
Encoding: 88 88 57
GlifName: X_
Width: 944
Flags: W
HStem: 0 21G<38 288.863 649.092 904> 805 20G<160 406.033 764.066 1026>
LayerCount: 2
Fore
SplineSet
1026 825 m 1
 644 418 l 1
 904 0 l 1
 661 0 l 1
 505 262 l 1
 271 0 l 1
 38 0 l 1
 412 418 l 1
 160 825 l 1
 393 825 l 1
 552 581 l 1
 783 825 l 1
 1026 825 l 1
EndSplineSet
EndChar

StartChar: Y
Encoding: 89 89 58
GlifName: Y_
Width: 878
Flags: W
HStem: 0 21G<330 547.947> 805 20G<158 388.272 727.926 962>
LayerCount: 2
Fore
SplineSet
742 825 m 1
 962 825 l 1
 592 319 l 1
 545 0 l 1
 330 0 l 1
 377 319 l 1
 158 825 l 1
 380 825 l 1
 514 501 l 1
 742 825 l 1
EndSplineSet
EndChar

StartChar: Z
Encoding: 90 90 59
GlifName: Z_
Width: 813
Flags: W
HStem: 0 165<390 723> 660 165<242 543>
LayerCount: 2
Fore
SplineSet
897 825 m 1
 390 165 l 1
 723 165 l 1
 748 0 l 1
 38 0 l 1
 543 660 l 1
 242 660 l 1
 218 825 l 1
 897 825 l 1
EndSplineSet
EndChar

StartChar: bracketleft
Encoding: 91 91 60
GlifName: bracketleft
Width: 427
Flags: W
HStem: -260 117<193 345> 743 117<324 493>
LayerCount: 2
Fore
SplineSet
188 860 m 1
 510 860 l 1
 493 743 l 1
 324 743 l 1
 193 -143 l 1
 362 -143 l 1
 345 -260 l 1
 23 -260 l 1
 188 860 l 1
EndSplineSet
EndChar

StartChar: backslash
Encoding: 92 92 61
GlifName: backslash
Width: 638
Flags: W
LayerCount: 2
Fore
SplineSet
163 860 m 1
 316 860 l 1
 583 -120 l 1
 430 -120 l 1
 163 860 l 1
EndSplineSet
EndChar

StartChar: bracketright
Encoding: 93 93 62
GlifName: bracketright
Width: 427
Flags: W
HStem: -260 117<20 188> 743 117<168 319>
LayerCount: 2
Fore
SplineSet
20 -143 m 1
 188 -143 l 1
 319 743 l 1
 151 743 l 1
 168 860 l 1
 490 860 l 1
 325 -260 l 1
 3 -260 l 1
 20 -143 l 1
EndSplineSet
EndChar

StartChar: asciicircum
Encoding: 94 94 63
GlifName: asciicircum
Width: 601
Flags: W
HStem: 605 235
LayerCount: 2
Fore
SplineSet
479 605 m 1
 403 714 l 1
 295 605 l 1
 135 605 l 1
 376 840 l 1
 468 840 l 1
 641 605 l 1
 479 605 l 1
EndSplineSet
EndChar

StartChar: underscore
Encoding: 95 95 64
GlifName: underscore
Width: 639
Flags: W
HStem: -100 85<60 560>
LayerCount: 2
Fore
SplineSet
60 -15 m 1
 573 -15 l 1
 560 -100 l 1
 47 -100 l 1
 60 -15 l 1
EndSplineSet
EndChar

StartChar: grave
Encoding: 96 96 65
GlifName: grave
Width: 388
Flags: W
HStem: 587 253
VStem: 151 285
LayerCount: 2
Fore
SplineSet
259 840 m 1
 436 664 l 1
 369 587 l 1
 151 725 l 1
 259 840 l 1
EndSplineSet
EndChar

StartChar: a
Encoding: 97 97 66
GlifName: a
Width: 712
Flags: W
HStem: -15 151<228 405.195> 0 21G<475 652.952> 377 151<341.762 480.029>
LayerCount: 2
Fore
SplineSet
277 256 m 0xa0
 267 186 307 136 379 136 c 0
 448 136 505 186 515 256 c 0
 525 327 481 377 415 377 c 0
 348 377 287 327 277 256 c 0xa0
717 454 m 2
 650 0 l 1
 475 0 l 1x60
 484 58 l 1
 440 16 373 -15 303 -15 c 0
 153 -15 67 106 89 256 c 0
 111 406 233 528 383 528 c 0
 452 528 730 541 717 454 c 2
EndSplineSet
EndChar

StartChar: b
Encoding: 98 98 67
GlifName: b
Width: 714
Flags: W
HStem: -15 151<301.808 442.839> 0 21G<57 139.154> 377 149<331.504 471.478>
VStem: 57 76<0 47.2222>
LayerCount: 2
Fore
SplineSet
507 256 m 0xb0
 517 327 472 377 405 377 c 0
 347 377 293 339 274 282 c 1
 266 231 l 1
 268 174 309 136 369 136 c 0
 441 136 497 186 507 256 c 0xb0
183 850 m 5
 360 850 l 1
 311 526 l 1
 381 530 450 528 480 528 c 0
 630 528 717 406 695 256 c 0
 673 106 550 -15 400 -15 c 0xb0
 270 -15 194 13 149 52 c 1
 140 46 133 0 133 0 c 1
 57 0 l 5x70
 183 850 l 5
EndSplineSet
EndChar

StartChar: c
Encoding: 99 99 68
GlifName: c
Width: 552
Flags: W
HStem: -15 145<316.273 461.018> 383 145<347.429 511.214>
LayerCount: 2
Fore
SplineSet
511 31 m 1
 511 31 446 -15 332 -15 c 0
 184 -15 66 105 88 255 c 0
 110 406 263 528 412 528 c 0
 526 528 577 480 577 480 c 1
 499 359 l 1
 499 359 470 383 417 383 c 0
 350 383 286 327 276 257 c 0
 266 186 312 130 379 130 c 0
 432 130 469 154 469 154 c 1
 511 31 l 1
EndSplineSet
EndChar

StartChar: d
Encoding: 100 100 69
GlifName: d
Width: 714
Flags: W
HStem: -15 151<235 459.899> 0 21G<581 659.965> 377 151<348.249 521.829>
VStem: 581 76<0 47.2222>
LayerCount: 2
Fore
SplineSet
283 256 m 0xb0
 273 186 313 136 385 136 c 0
 445 136 498 174 516 231 c 1
 524 282 l 1
 521 339 479 377 421 377 c 0
 354 377 293 327 283 256 c 0xb0
783 850 m 5
 657 0 l 1
 581 0 l 1x70
 581 0 588 46 581 52 c 1
 524 13 440 -15 310 -15 c 0
 160 -15 73 106 95 256 c 0
 117 406 240 528 390 528 c 0
 420 528 491 530 559 526 c 1
 606 850 l 1
 783 850 l 5
EndSplineSet
EndChar

StartChar: e
Encoding: 101 101 70
GlifName: e
Width: 659
Flags: W
HStem: -15 21G<252.5 387> 227 90<286 481> 413 115<336.402 452.884>
LayerCount: 2
Fore
SplineSet
286 317 m 1
 481 317 l 1
 481 371 450 413 398 413 c 0
 337 413 296 364 286 317 c 1
496 173 m 1
 616 119 l 1
 544 22 444 -15 330 -15 c 0
 175 -15 66 107 88 256 c 0
 110 406 255 528 410 528 c 0
 566 528 669 418 641 227 c 1
 268 227 l 1
 255 141 366 60 496 173 c 1
EndSplineSet
EndChar

StartChar: f
Encoding: 102 102 71
GlifName: f
Width: 500
Flags: W
HStem: 0 21G<117 296.933> 450 135<129 183 380 477> 718 157<413.387 515.88>
LayerCount: 2
Fore
SplineSet
203 585 m 1
 231 777 306 875 446 875 c 0
 536 875 585 829 585 829 c 1
 505 704 l 1
 505 704 484 718 455 718 c 0
 400 718 390 653 380 585 c 1
 497 585 l 1
 477 450 l 1
 360 450 l 1
 294 0 l 1
 117 0 l 1
 183 450 l 1
 109 450 l 1
 129 585 l 1
 203 585 l 1
EndSplineSet
EndChar

StartChar: g
Encoding: 103 103 72
GlifName: g
Width: 669
Flags: W
HStem: -8 132<281.612 414.713>
LayerCount: 2
Fore
SplineSet
107 90 m 0
 115 142 162 155 125 225 c 1
 125 225 91 284 101 353 c 0
 120 481 230 553 382 554 c 0
 490 555 505 527 584 509 c 1
 635 504 644 522 666 534 c 1
 689 434 l 1
 665 398 605 411 605 411 c 1
 607 383 605 355 600 334 c 0
 586 281 524 164 374 158 c 0
 291 157 283 158 281 142 c 0
 279 126 307 124 356 124 c 0
 552 124 599 51 585 -42 c 0
 568 -155 454 -227 261 -230 c 0
 61 -233 50 -107 48 4 c 1
 119 -141 417 -132 422 -51 c 0
 424 -10 365 -8 260 -8 c 0
 170 -8 98 29 107 90 c 0
253 343 m 0
 249 293 288 259 341 264 c 0
 400 270 440 315 444 365 c 0
 448 415 412 450 356 444 c 0
 303 438 257 393 253 343 c 0
EndSplineSet
EndChar

StartChar: h
Encoding: 104 104 73
GlifName: h
Width: 673
Flags: W
HStem: 0 21G<62 241.966 436 615.959> 390 138<378.573 513>
LayerCount: 2
Fore
SplineSet
366 860 m 1
 307 459 l 1
 353 499 410 528 466 528 c 0
 560 528 684 481 663 338 c 2
 613 0 l 1
 436 0 l 1
 479 290 l 2
 487 341 459 390 402 390 c 0
 349 390 290 341 282 290 c 2
 239 0 l 1
 62 0 l 1
 189 860 l 1
 366 860 l 1
EndSplineSet
EndChar

StartChar: i
Encoding: 105 105 74
GlifName: i
Width: 303
Flags: W
HStem: 0 21G<60 242.94> 497 20G<133.06 316> 587 176<204.516 293.797>
VStem: 60 275
LayerCount: 2
Fore
SplineSet
165 675 m 0
 172 723 216 763 262 763 c 0
 308 763 342 723 335 675 c 0
 328 627 282 587 236 587 c 0
 190 587 158 627 165 675 c 0
60 0 m 1
 136 517 l 1
 316 517 l 1
 240 0 l 1
 60 0 l 1
EndSplineSet
EndChar

StartChar: j
Encoding: 106 106 75
GlifName: j
Width: 368
Flags: W
HStem: 497 20G<202.044 382> 587 176<272.359 361.641>
LayerCount: 2
Fore
SplineSet
205 517 m 1
 382 517 l 1
 319 90 l 2
 298 -49 208 -150 78 -150 c 0
 47 -150 11 -25 41 -14 c 0
 80 1 128 -2 141 84 c 2
 205 517 l 1
232 675 m 0
 239 723 284 763 330 763 c 0
 376 763 409 723 402 675 c 0
 395 627 350 587 304 587 c 0
 258 587 225 627 232 675 c 0
EndSplineSet
EndChar

StartChar: k
Encoding: 107 107 76
GlifName: k
Width: 709
Flags: W
HStem: 0 21G<62 241.927 426.927 672> 493 20G<470.983 724>
LayerCount: 2
Fore
SplineSet
724 513 m 1
 444 268 l 1
 672 0 l 1
 444 0 l 1
 269 205 l 1
 239 0 l 1
 62 0 l 1
 189 860 l 1
 366 860 l 1
 288 334 l 1
 494 513 l 1
 724 513 l 1
EndSplineSet
EndChar

StartChar: l
Encoding: 108 108 77
GlifName: l
Width: 371
Flags: W
HStem: 0 21G<198 278.5> 805 20G<177.1 356>
LayerCount: 2
Fore
SplineSet
263 0 m 0
 133 0 72 86 93 225 c 2
 180 825 l 1
 356 825 l 1
 273 234 l 2
 263 169 334 164 345 163 c 0
 375 161 294 0 263 0 c 0
EndSplineSet
EndChar

StartChar: m
Encoding: 109 109 78
GlifName: m
Width: 1059
Flags: W
HStem: 0 21G<60 246.951 442 624.955 822 1001.93> 384 144<330.066 465.894 705.495 841.665> 500 20G<134.038 277>
LayerCount: 2
Fore
SplineSet
244 0 m 1xc0
 60 0 l 1
 137 520 l 1
 277 520 l 1xa0
 273 491 l 1
 310 514 357 528 422 528 c 0
 503 528 561 526 600 461 c 1
 669 526 717 528 798 528 c 0
 990 528 1066 459 1041 287 c 2
 999 0 l 1
 822 0 l 1
 858 244 l 2
 873 345 851 384 777 384 c 0
 716 384 683 358 665 291 c 1
 622 0 l 1
 442 0 l 1
 485 291 l 1
 487 358 462 384 401 384 c 0
 327 384 295 345 280 244 c 2
 244 0 l 1xc0
EndSplineSet
EndChar

StartChar: n
Encoding: 110 110 79
GlifName: n
Width: 683
Flags: W
HStem: 0 21G<60 246.951 446 625.927> 384 144<331.135 467.287> 500 20G<134.038 277>
LayerCount: 2
Fore
SplineSet
244 0 m 1xc0
 60 0 l 1
 137 520 l 1
 277 520 l 1xa0
 273 491 l 1
 310 514 359 528 424 528 c 0
 616 528 690 459 665 287 c 2
 623 0 l 1
 446 0 l 1
 482 244 l 2
 497 345 477 384 403 384 c 0
 329 384 295 345 280 244 c 2
 244 0 l 1xc0
EndSplineSet
EndChar

StartChar: o
Encoding: 111 111 80
GlifName: o
Width: 712
Flags: W
HStem: -15 155<312.106 447.786> 373 155<340.244 473.611>
LayerCount: 2
Fore
SplineSet
270 256 m 0
 261 194 309 140 376 140 c 0
 443 140 506 194 515 256 c 0
 524 318 477 373 410 373 c 0
 343 373 279 318 270 256 c 0
88 256 m 0
 109 401 267 528 434 528 c 0
 601 528 718 401 697 256 c 0
 676 111 521 -15 354 -15 c 0
 187 -15 67 111 88 256 c 0
EndSplineSet
EndChar

StartChar: p
Encoding: 112 112 81
GlifName: p
Width: 713
Flags: W
HStem: -15 151<267.171 441.238> 377 151<329.386 555> 493 20G<129.037 208>
VStem: 132 76<465.75 513>
LayerCount: 2
Fore
SplineSet
506 257 m 0xd0
 516 327 476 377 404 377 c 0
 344 377 291 339 273 282 c 1
 265 231 l 1
 268 174 310 136 368 136 c 0
 435 136 496 186 506 257 c 0xd0
16 -270 m 5
 132 513 l 1
 208 513 l 1xb0
 208 513 201 467 208 461 c 1
 265 500 350 528 480 528 c 0
 630 528 716 407 694 257 c 0
 672 107 550 -15 400 -15 c 0
 370 -15 298 -17 230 -13 c 1
 194 -270 l 5
 16 -270 l 5
EndSplineSet
EndChar

StartChar: q
Encoding: 113 113 82
GlifName: q
Width: 713
Flags: W
HStem: -15 151<317.522 457.926> 377 151<346.649 487.81> 493 20G<649.846 733>
VStem: 656 77<465.75 513>
LayerCount: 2
Fore
SplineSet
282 257 m 0xd0
 272 186 317 136 384 136 c 0
 442 136 497 174 516 231 c 1
 524 282 l 1
 522 339 480 377 420 377 c 0
 348 377 292 327 282 257 c 0xd0
617 -270 m 5
 440 -270 l 5
 478 -13 l 1
 408 -17 340 -15 310 -15 c 0
 160 -15 72 107 94 257 c 0
 116 407 240 528 390 528 c 0xd0
 520 528 595 500 640 461 c 1
 649 467 656 513 656 513 c 1
 733 513 l 1xb0
 617 -270 l 5
EndSplineSet
EndChar

StartChar: r
Encoding: 114 114 83
GlifName: r
Width: 553
Flags: W
HStem: 0 21G<60 239.963> 374 154<372.203 495.586> 493 20G<133.037 313>
LayerCount: 2
Fore
SplineSet
313 513 m 1xa0
 302 439 l 2
 307 475 385 528 457 528 c 0
 541 528 581 496 581 496 c 1
 485 346 l 1
 485 346 456 374 397 374 c 0xc0
 305 374 279 283 277 270 c 2
 237 0 l 1
 60 0 l 1
 136 513 l 1
 313 513 l 1xa0
EndSplineSet
EndChar

StartChar: s
Encoding: 115 115 84
GlifName: s
Width: 528
Flags: W
LayerCount: 2
Fore
SplineSet
137 175 m 1
 244 85 311 119 316 153 c 0
 328 231 114 261 129 363 c 0
 143 460 305 602 543 488 c 1
 468 372 l 1
 341 434 304 397 300 373 c 0
 291 311 522 283 504 160 c 0
 482 9 213 -87 47 54 c 1
 137 175 l 1
EndSplineSet
EndChar

StartChar: t
Encoding: 116 116 85
GlifName: t
Width: 469
Flags: W
HStem: -15 159<222.5 404.689> 378 135<122 176 373 461>
LayerCount: 2
Fore
SplineSet
196 513 m 1
 224 704 l 1
 401 704 l 1
 373 513 l 1
 481 513 l 1
 461 378 l 1
 353 378 l 1
 329 215 l 2
 322 167 330 144 358 144 c 0
 381 144 405 160 405 160 c 1
 428 17 l 1
 428 17 366 -15 293 -15 c 0
 152 -15 134 90 147 181 c 2
 176 378 l 1
 102 378 l 1
 122 513 l 1
 196 513 l 1
EndSplineSet
EndChar

StartChar: u
Encoding: 117 117 86
GlifName: u
Width: 673
Flags: W
HStem: -15 144<289.515 424.524> 493 20G<130.003 310 509.049 689>
LayerCount: 2
Fore
SplineSet
310 513 m 1
 274 269 l 2
 259 168 280 129 354 129 c 0
 428 129 461 168 476 269 c 2
 512 513 l 1
 689 513 l 1
 646 226 l 2
 621 54 525 -15 333 -15 c 0
 141 -15 65 54 90 226 c 2
 133 513 l 1
 310 513 l 1
EndSplineSet
EndChar

StartChar: v
Encoding: 118 118 87
GlifName: v
Width: 752
Flags: W
HStem: 0 21G<307.203 448.645> 493 20G<115 331.093 563.172 785>
LayerCount: 2
Fore
SplineSet
325 513 m 1
 410 234 l 1
 575 513 l 1
 785 513 l 1
 435 0 l 1
 315 0 l 1
 115 513 l 1
 325 513 l 1
EndSplineSet
EndChar

StartChar: w
Encoding: 119 119 88
GlifName: w
Width: 1108
Flags: W
HStem: 0 21G<307.203 446.849 665.038 804.645> 493 20G<115 325.137 555.231 694.993 925.087 1141>
LayerCount: 2
Fore
SplineSet
435 0 m 1
 315 0 l 1
 115 513 l 1
 319 513 l 1
 404 236 l 1
 567 513 l 1
 689 513 l 1
 772 236 l 1
 937 513 l 1
 1141 513 l 1
 791 0 l 1
 671 0 l 1
 592 265 l 1
 435 0 l 1
EndSplineSet
EndChar

StartChar: x
Encoding: 120 120 89
GlifName: x
Width: 731
Flags: W
HStem: 0 21G<38 270.483 465.31 692> 493 20G<145 363.933 512.017 737>
LayerCount: 2
Fore
SplineSet
692 0 m 1
 478 0 l 1
 386 145 l 1
 252 0 l 1
 38 0 l 1
 297 268 l 1
 145 513 l 1
 352 513 l 1
 423 394 l 1
 530 513 l 1
 737 513 l 1
 513 268 l 1
 692 0 l 1
EndSplineSet
EndChar

StartChar: y
Encoding: 121 121 90
GlifName: y
Width: 754
Flags: W
HStem: -260 21G<67 284.376> 493 20G<115 326.909 571.757 788>
LayerCount: 2
Fore
SplineSet
584 513 m 1
 788 513 l 1
 271 -260 l 1
 67 -260 l 1
 294 80 l 1
 115 513 l 1
 319 513 l 1
 423 250 l 1
 584 513 l 1
EndSplineSet
EndChar

StartChar: z
Encoding: 122 122 91
GlifName: z
Width: 634
Flags: W
HStem: 0 135<357 571> 378 135<157 349>
LayerCount: 2
Fore
SplineSet
667 513 m 1
 357 135 l 1
 591 135 l 1
 571 0 l 1
 39 0 l 1
 349 378 l 1
 137 378 l 1
 157 513 l 1
 667 513 l 1
EndSplineSet
EndChar

StartChar: braceleft
Encoding: 123 123 92
GlifName: braceleft
Width: 412
Flags: W
HStem: -260 21G<194.5 333.969> 253 94<94 133.329> 732 128<396.465 477>
LayerCount: 2
Fore
SplineSet
141 188 m 0
 148 234 123 253 80 253 c 1
 94 347 l 1
 137 347 167 366 174 412 c 0
 227 774 223 860 496 860 c 1
 477 732 l 1
 361 732 368 694 326 407 c 0
 318 350 286 318 249 300 c 1
 280 282 302 249 294 193 c 0
 252 -94 234 -132 350 -132 c 1
 331 -260 l 1
 58 -260 88 -174 141 188 c 0
EndSplineSet
EndChar

StartChar: bar
Encoding: 124 124 93
GlifName: bar
Width: 278
Flags: W
HStem: 0 21G<61 216.953>
VStem: 61 280
LayerCount: 2
Fore
SplineSet
61 0 m 1
 188 860 l 1
 341 860 l 1
 214 0 l 1
 61 0 l 1
EndSplineSet
EndChar

StartChar: braceright
Encoding: 125 125 94
GlifName: braceright
Width: 413
Flags: W
HStem: -260 128<22 102.283> 253 94<364.944 404>
LayerCount: 2
Fore
SplineSet
325 188 m 0
 272 -174 276 -260 3 -260 c 1
 22 -132 l 1
 138 -132 130 -94 172 193 c 0
 180 249 212 282 249 300 c 1
 218 318 196 350 204 407 c 0
 246 694 265 732 149 732 c 1
 168 860 l 1
 441 860 411 774 358 412 c 0
 351 366 375 347 418 347 c 1
 404 253 l 1
 361 253 332 234 325 188 c 0
EndSplineSet
EndChar

StartChar: asciitilde
Encoding: 126 126 95
GlifName: asciitilde
Width: 671
Flags: W
HStem: 303 140<453.171 560.443> 388 140<232.071 339.659> 501 20G<581.385 625.753>
LayerCount: 2
Fore
SplineSet
490 303 m 0xa0
 387 303 344 388 282 388 c 0
 224 388 187 310 187 310 c 1
 105 391 l 1
 105 391 191 528 303 528 c 0x40
 370 528 465 443 510 443 c 0
 568 443 606 521 606 521 c 1
 686 440 l 1
 686 440 602 303 490 303 c 0xa0
EndSplineSet
EndChar

StartChar: exclamdown
Encoding: 161 161 97
GlifName: exclamdown
Width: 278
Flags: W
HStem: -260 21G<11 190.136> 380 176<164.359 253.641>
VStem: 124 170<419.062 516.938>
LayerCount: 2
Fore
SplineSet
11 -260 m 1
 122 330 l 1
 251 330 l 1
 188 -260 l 1
 11 -260 l 1
124 468 m 0
 131 516 176 556 222 556 c 0
 268 556 301 516 294 468 c 0
 287 420 242 380 196 380 c 0
 150 380 117 420 124 468 c 0
EndSplineSet
EndChar

StartChar: cent
Encoding: 162 162 98
GlifName: cent
Width: 546
Flags: W
HStem: 383 144<426 490.974>
LayerCount: 2
Fore
SplineSet
251 -129 m 1
 269 -8 l 1
 150 18 64 125 83 255 c 0
 101 375 201 477 316 513 c 1
 338 617 l 5
 442 636 l 5
 426 527 l 1
 526 522 572 480 572 480 c 1
 494 359 l 1
 494 359 465 383 412 383 c 0
 345 383 281 327 271 257 c 0
 261 186 307 130 374 130 c 0
 427 130 464 154 464 154 c 1
 506 31 l 1
 506 31 458 -1 376 -12 c 1
 355 -110 l 1
 251 -129 l 1
EndSplineSet
EndChar

StartChar: sterling
Encoding: 163 163 99
GlifName: sterling
Width: 744
Flags: W
HStem: -15 144<396.643 565.702> 0 21G<47 186.116> 43 135<174.266 236.872> 289 98<104 206 381.478 546> 689 152<419.071 535.198>
LayerCount: 2
Fore
SplineSet
377 164 m 0x78
 389 148 444 129 518 129 c 0
 575 129 595 201 595 201 c 1
 723 133 l 1
 723 133 677 -15 517 -15 c 0x98
 393 -15 309 43 215 43 c 0
 174 43 161 0 161 0 c 1
 47 0 l 1
 55 54 129 178 219 178 c 0
 257 178 240 259 228 289 c 1
 90 289 l 1
 104 387 l 1
 206 387 l 1
 184 431 168 483 179 558 c 0
 202 714 316 841 501 841 c 0
 735 841 747 651 747 651 c 1
 578 574 l 1
 578 574 576 689 479 689 c 0
 417 689 376 634 365 558 c 0
 353 476 373 436 388 387 c 1
 560 387 l 1
 546 289 l 1
 392 289 l 1
 363 239 360 186 377 164 c 0x78
EndSplineSet
EndChar

StartChar: currency
Encoding: 164 164 100
GlifName: currency
Width: 908
Flags: W
HStem: -9 21G<142 183.458> 22 178<408.373 573.52> 614 178<461.764 629.258>
LayerCount: 2
Fore
SplineSet
328 408 m 0
 311 296 382 200 488 200 c 0
 594 200 690 296 707 408 c 0
 724 520 655 614 549 614 c 0
 443 614 345 520 328 408 c 0
265 87 m 1
 162 -9 l 1
 73 80 l 1
 182 182 l 1
 146 246 132 324 144 408 c 0
 155 482 185 551 230 610 c 1
 142 705 l 1
 246 807 l 1
 335 712 l 1
 405 762 489 792 575 792 c 0
 656 792 725 765 780 721 c 1
 885 818 l 1
 974 729 l 1
 859 623 l 1
 891 561 904 487 892 408 c 0
 880 330 846 256 797 194 c 1
 880 104 l 1
 776 2 l 1
 690 95 l 1
 622 49 543 22 461 22 c 0
 384 22 318 47 265 87 c 1
EndSplineSet
EndChar

StartChar: yen
Encoding: 165 165 101
GlifName: yen
Width: 879
Flags: W
HStem: 0 21G<331 548.991> 107 130<227 347 581 707> 298 130<255 331 672 735> 805 20G<159 387.272 727.864 962>
LayerCount: 2
Fore
SplineSet
742 825 m 1
 962 825 l 1
 672 428 l 1
 754 428 l 1
 735 298 l 1
 590 298 l 1
 581 237 l 1
 726 237 l 1
 707 107 l 1
 562 107 l 1
 546 0 l 1
 331 0 l 1
 347 107 l 1
 208 107 l 1
 227 237 l 1
 366 237 l 1
 375 298 l 1
 236 298 l 1
 255 428 l 1
 331 428 l 1
 159 825 l 1
 379 825 l 1
 513 501 l 1
 742 825 l 1
EndSplineSet
EndChar

StartChar: brokenbar
Encoding: 166 166 102
GlifName: brokenbar
Width: 275
Flags: W
HStem: 0 21G<60 215.952> 528 21G<138 293.952>
VStem: 60 280
LayerCount: 2
Fore
SplineSet
60 0 m 1
 109 332 l 1
 262 332 l 1
 213 0 l 1
 60 0 l 1
138 528 m 1
 187 860 l 1
 340 860 l 1
 291 528 l 1
 138 528 l 1
EndSplineSet
EndChar

StartChar: section
Encoding: 167 167 103
GlifName: section
Width: 679
Flags: W
HStem: -275 148<232.448 361.776> 692 148<396.815 502.382>
LayerCount: 2
Fore
SplineSet
406 176 m 0
 445 154 502 219 507 260 c 1
 506 312 403 364 353 389 c 0
 308 411 251 352 253 305 c 1
 249 256 339 214 406 176 c 0
268 -275 m 0
 35 -275 32 -84 32 -84 c 1
 197 -50 l 1
 197 -50 208 -127 290 -127 c 0
 351 -127 376 -101 380 -72 c 0
 386 -31 328 -2 247 38 c 0
 134 95 68 162 85 276 c 1
 100 351 157 419 245 456 c 1
 191 499 170 549 182 631 c 0
 198 739 291 840 471 840 c 0
 684 840 686 661 686 661 c 1
 521 627 l 1
 521 627 525 692 449 692 c 0
 407 692 383 668 378 637 c 0
 372 597 433 567 514 527 c 0
 627 470 693 403 676 289 c 1
 661 214 603 146 515 109 c 1
 568 65 590 15 578 -66 c 0
 565 -152 488 -275 268 -275 c 0
EndSplineSet
EndChar

StartChar: diaeresis
Encoding: 168 168 104
GlifName: diaeresis
Width: 522
Flags: W
HStem: 607 184<197.29 293.303 433.29 529.303>
VStem: 153 184<649.329 746.79> 389 184<649.329 746.79>
LayerCount: 2
Fore
SplineSet
495 791 m 0
 546 791 581 750 573 699 c 0
 565 648 519 607 468 607 c 0
 417 607 381 648 389 699 c 0
 397 750 444 791 495 791 c 0
259 791 m 0
 310 791 345 750 337 699 c 0
 329 648 283 607 232 607 c 0
 181 607 145 648 153 699 c 0
 161 750 208 791 259 791 c 0
EndSplineSet
EndChar

StartChar: copyright
Encoding: 169 169 105
GlifName: copyright
Width: 952
Flags: W
HStem: -15 114<377.628 604.577> 206 107<502.309 631.593> 516 108<526.506 666.863> 726 114<465.993 692.893>
LayerCount: 2
Fore
SplineSet
590 516 m 0
 536 516 485 471 477 415 c 0
 468 357 506 313 560 313 c 0
 598 313 624 326 629 329 c 1
 639 297 649 271 659 239 c 1
 659 239 600 206 523 206 c 0
 410 206 319 298 336 413 c 0
 353 530 472 624 585 624 c 0
 670 624 708 592 711 589 c 1
 655 500 l 1
 655 500 623 516 590 516 c 0
222 412 m 0
 197 240 317 99 489 99 c 0
 662 99 824 240 849 412 c 0
 875 585 754 726 581 726 c 0
 409 726 248 585 222 412 c 0
108 412 m 0
 143 648 363 840 598 840 c 0
 834 840 998 648 963 412 c 0
 928 177 708 -15 472 -15 c 0
 237 -15 73 177 108 412 c 0
EndSplineSet
EndChar

StartChar: ordfeminine
Encoding: 170 170 106
GlifName: ordfeminine
Width: 466
Flags: W
HStem: 504 91<270.716 353.538> 513 21G<379 486.941> 739 91<286.704 390.203>
LayerCount: 2
Fore
SplineSet
259 667 m 0xa0
 253 625 278 595 321 595 c 0
 362 595 396 625 402 667 c 0
 408 710 382 739 342 739 c 0
 302 739 265 710 259 667 c 0xa0
524 785 m 2
 484 513 l 1
 379 513 l 1x60
 384 548 l 1
 357 523 317 504 275 504 c 0
 185 504 133 577 146 667 c 0
 159 757 234 830 324 830 c 0
 365 830 532 837 524 785 c 2
EndSplineSet
EndChar

StartChar: guillemotleft
Encoding: 171 171 107
GlifName: guillemotleft
Width: 628
Flags: W
HStem: 508 20G<296.52 337.74 546.52 587.74>
LayerCount: 2
Fore
SplineSet
491 28 m 1
 334 278 l 1
 565 528 l 1
 648 455 l 1
 484 278 l 1
 596 101 l 1
 491 28 l 1
241 28 m 1
 84 278 l 1
 315 528 l 1
 398 455 l 1
 234 278 l 1
 346 101 l 1
 241 28 l 1
EndSplineSet
EndChar

StartChar: logicalnot
Encoding: 172 172 108
GlifName: logicalnot
Width: 626
Flags: W
HStem: 288 85<109 534>
LayerCount: 2
Fore
SplineSet
596 197 m 1
 520 197 l 1
 534 288 l 1
 97 288 l 1
 109 373 l 1
 622 373 l 1
 596 197 l 1
EndSplineSet
EndChar

StartChar: uni00AD
Encoding: 173 173 109
GlifName: uni00A_D_
Width: 373
Flags: W
HStem: 232 153<113 348>
VStem: 90 281
LayerCount: 2
Fore
SplineSet
113 385 m 1
 371 385 l 1
 348 232 l 1
 90 232 l 1
 113 385 l 1
EndSplineSet
EndChar

StartChar: registered
Encoding: 174 174 110
GlifName: registered
Width: 546
Flags: W
HStem: 392 60<261.76 420.839> 588 38<337 347> 681 38<346 387.991> 780 60<303.278 462.153>
LayerCount: 2
Fore
SplineSet
304 719 m 1
 379 719 l 2
 429 718 446 687 441 655 c 0
 436 624 415 607 393 598 c 1
 438 512 l 1
 386 512 l 1
 347 589 l 1
 341 589 336 588 332 588 c 1
 321 512 l 1
 274 512 l 1
 304 719 l 1
337 626 m 1
 360 626 386 629 390 653 c 0
 393 676 373 681 346 681 c 1
 337 626 l 1
199 615 m 0
 186 525 248 452 337 452 c 0
 429 452 514 525 527 615 c 0
 540 706 477 780 385 780 c 0
 296 780 212 706 199 615 c 0
139 615 m 0
 157 739 272 840 394 840 c 0
 519 840 605 739 587 615 c 0
 569 492 453 392 328 392 c 0
 206 392 121 492 139 615 c 0
EndSplineSet
EndChar

StartChar: macron
Encoding: 175 175 111
GlifName: macron
Width: 519
Flags: W
HStem: 634 120<165 556>
LayerCount: 2
Fore
SplineSet
165 754 m 1
 573 754 l 1
 556 634 l 1
 148 634 l 1
 165 754 l 1
EndSplineSet
EndChar

StartChar: degree
Encoding: 176 176 112
GlifName: degree
Width: 313
Flags: W
HStem: 669 59<231.028 302.478> 816 59<237.062 308.582>
VStem: 164 211
LayerCount: 2
Fore
SplineSet
227 772 m 0
 224 749 241 728 264 728 c 0
 287 728 309 749 312 772 c 0
 315 795 299 816 276 816 c 0
 253 816 230 795 227 772 c 0
164 772 m 0
 172 827 227 875 285 875 c 0
 343 875 383 827 375 772 c 0
 367 717 313 669 255 669 c 0
 197 669 156 717 164 772 c 0
EndSplineSet
EndChar

StartChar: plusminus
Encoding: 177 177 113
GlifName: plusminus
Width: 623
Flags: W
HStem: 0 153<77 567> 363 153<130 288 463 621>
LayerCount: 2
Fore
SplineSet
77 153 m 1
 590 153 l 1
 567 0 l 1
 54 0 l 1
 77 153 l 1
418 208 m 1
 265 208 l 1
 288 363 l 1
 108 363 l 1
 130 516 l 1
 310 516 l 1
 333 671 l 1
 486 671 l 1
 463 516 l 1
 643 516 l 1
 621 363 l 1
 441 363 l 1
 418 208 l 1
EndSplineSet
EndChar

StartChar: uni00B2
Encoding: 178 178 114
GlifName: uni00B_2
Width: 351
Flags: W
HStem: 513 64<264 374> 778 62<243.817 316.48>
VStem: 123 276
LayerCount: 2
Fore
SplineSet
282 778 m 0
 247 778 216 717 216 717 c 1
 159 747 l 1
 159 747 204 840 291 840 c 0
 402 840 405 768 399 727 c 0
 388 652 264 577 264 577 c 1
 383 577 l 1
 374 513 l 1
 123 513 l 1
 125 531 l 1
 125 531 311 668 320 727 c 0
 322 739 325 778 282 778 c 0
EndSplineSet
EndChar

StartChar: uni00B3
Encoding: 179 179 115
GlifName: uni00B_3
Width: 329
Flags: W
HStem: 513 62<208.227 294.521> 660 47<251 302.648> 781 57<234.718 308.84>
VStem: 131 245
LayerCount: 2
Fore
SplineSet
173 769 m 1
 173 769 199 838 287 838 c 0
 347 838 384 800 376 747 c 0
 372 721 359 701 340 688 c 1
 362 673 374 649 369 616 c 0
 360 556 304 513 237 513 c 0
 140 513 131 590 131 590 c 1
 202 622 l 1
 202 622 199 575 246 575 c 0
 312 575 342 663 244 660 c 1
 251 707 l 1
 330 707 323 781 277 781 c 0
 237 781 225 742 225 742 c 1
 173 769 l 1
EndSplineSet
EndChar

StartChar: acute
Encoding: 180 180 116
GlifName: acute
Width: 387
Flags: W
HStem: 587 253
VStem: 145 303
LayerCount: 2
Fore
SplineSet
145 664 m 1
 373 840 l 1
 448 725 l 1
 190 587 l 1
 145 664 l 1
EndSplineSet
EndChar

StartChar: mu
Encoding: 181 181 117
GlifName: mu
Width: 673
Flags: W
HStem: -15 144<291.005 426.524> 493 20G<132.028 312 511.049 691>
LayerCount: 2
Fore
SplineSet
276 269 m 2
 261 168 282 129 356 129 c 0
 430 129 463 168 478 269 c 2
 514 513 l 1
 691 513 l 1
 648 226 l 2
 623 54 527 -15 335 -15 c 0
 297 -15 264 -13 235 -7 c 1
 216 -133 l 1
 39 -133 l 1
 135 513 l 1
 312 513 l 1
 276 269 l 2
EndSplineSet
EndChar

StartChar: paragraph
Encoding: 182 182 118
GlifName: paragraph
Width: 734
Flags: W
HStem: 0 21G<403 508.94 567 672.958> 721 104<612 673>
LayerCount: 2
Fore
SplineSet
567 0 m 1
 673 721 l 1
 612 721 l 1
 506 0 l 1
 403 0 l 1
 448 306 l 1
 352 306 l 2
 191 306 108 431 129 571 c 0
 150 712 268 825 429 825 c 2
 792 825 l 1
 670 0 l 1
 567 0 l 1
EndSplineSet
EndChar

StartChar: periodcentered
Encoding: 183 183 119
GlifName: periodcentered
Width: 279
Flags: W
HStem: 251 176<144.203 233.484>
VStem: 103 170<290.062 386.165>
LayerCount: 2
Fore
SplineSet
103 339 m 0
 110 387 156 427 202 427 c 0
 248 427 280 387 273 339 c 0
 266 291 222 251 176 251 c 0
 130 251 96 291 103 339 c 0
EndSplineSet
EndChar

StartChar: cedilla
Encoding: 184 184 120
GlifName: cedilla
Width: 400
Flags: W
HStem: -294 90<117.755 233.09> -120 57<213 233.492>
VStem: 15 313
LayerCount: 2
Fore
SplineSet
95 -157 m 1
 95 -157 124 -204 170 -204 c 0
 266 -204 266 -120 170 -120 c 0
 134 -120 117 -129 117 -129 c 1
 178 26 l 1
 245 4 l 1
 213 -63 l 1
 268 -63 338 -96 328 -165 c 0
 319 -228 268 -294 157 -294 c 0
 67 -294 15 -211 15 -211 c 1
 95 -157 l 1
EndSplineSet
EndChar

StartChar: uni00B9
Encoding: 185 185 121
GlifName: uni00B_9
Width: 226
Flags: W
HStem: 513 312
VStem: 148 142
LayerCount: 2
Fore
SplineSet
148 697 m 1
 158 768 l 1
 255 825 l 1
 290 825 l 1
 244 513 l 1
 173 513 l 1
 205 730 l 1
 148 697 l 1
EndSplineSet
EndChar

StartChar: ordmasculine
Encoding: 186 186 122
GlifName: ordmasculine
Width: 430
Flags: W
HStem: 504 93<258.946 351.823> 737 93<271.719 366.754>
LayerCount: 2
Fore
SplineSet
245 667 m 0
 240 630 265 597 302 597 c 0
 339 597 374 630 379 667 c 0
 384 704 360 737 323 737 c 0
 286 737 250 704 245 667 c 0
146 667 m 0
 159 754 247 830 338 830 c 0
 429 830 491 754 478 667 c 0
 465 580 380 504 289 504 c 0
 198 504 133 580 146 667 c 0
EndSplineSet
EndChar

StartChar: guillemotright
Encoding: 187 187 123
GlifName: guillemotright
Width: 628
Flags: W
HStem: 508 20G<186.781 227.72 436.781 477.72>
LayerCount: 2
Fore
SplineSet
310 101 m 1
 474 278 l 1
 362 455 l 1
 465 528 l 1
 624 278 l 1
 391 28 l 1
 310 101 l 1
215 528 m 1
 374 278 l 1
 141 28 l 1
 60 101 l 1
 224 278 l 1
 112 455 l 1
 215 528 l 1
EndSplineSet
EndChar

StartChar: onequarter
Encoding: 188 188 124
GlifName: onequarter
Width: 805
Flags: W
HStem: 0 21G<84 216.594 603 708.97> 101 96<546 618 735 776> 805 20G<267.136 353 671.406 804>
LayerCount: 2
Fore
SplineSet
652 334 m 1
 651 334 l 1
 546 197 l 1
 632 197 l 1
 652 334 l 1
735 197 m 1
 790 197 l 1
 776 101 l 1
 721 101 l 1
 706 0 l 1
 603 0 l 1
 618 101 l 1
 382 101 l 1
 387 134 l 1
 669 480 l 1
 777 480 l 1
 735 197 l 1
804 825 m 1
 202 0 l 1
 84 0 l 1
 686 825 l 1
 804 825 l 1
136 628 m 1
 152 737 l 1
 301 825 l 1
 353 825 l 1
 282 345 l 1
 173 345 l 1
 222 680 l 1
 136 628 l 1
EndSplineSet
EndChar

StartChar: onehalf
Encoding: 189 189 125
GlifName: onehalf
Width: 877
Flags: W
HStem: 0 95<667 829> 391 91<650.114 742.19> 805 20G<267.136 353 671.406 804>
LayerCount: 2
Fore
SplineSet
694 391 m 0
 643 391 596 301 596 301 c 1
 513 344 l 1
 513 344 579 482 707 482 c 0
 870 482 876 375 867 316 c 0
 851 205 667 95 667 95 c 1
 843 95 l 1
 829 0 l 1
 460 0 l 1
 464 27 l 1
 464 27 738 228 751 316 c 0
 754 333 758 391 694 391 c 0
804 825 m 1
 202 0 l 1
 84 0 l 1
 686 825 l 1
 804 825 l 1
136 628 m 1
 152 737 l 1
 301 825 l 1
 353 825 l 1
 282 345 l 1
 173 345 l 1
 222 680 l 1
 136 628 l 1
EndSplineSet
EndChar

StartChar: threequarters
Encoding: 190 190 126
GlifName: threequarters
Width: 902
Flags: W
HStem: 0 21G<188 320.594 700 805.97> 101 96<643 715 832 873> 342 92<227.807 339.922> 560 69<286 354.482> 740 85<272.124 366.339>
LayerCount: 2
Fore
SplineSet
169 723 m 1
 169 723 207 825 338 825 c 0
 427 825 483 768 471 689 c 0
 465 651 445 622 417 602 c 1
 450 580 467 544 460 495 c 0
 447 406 365 342 265 342 c 0
 121 342 106 457 106 457 c 1
 212 505 l 1
 212 505 208 434 278 434 c 0
 377 434 422 565 276 560 c 1
 286 629 l 1
 403 629 393 740 324 740 c 0
 265 740 246 682 246 682 c 1
 169 723 l 1
749 334 m 1
 748 334 l 1
 643 197 l 1
 729 197 l 1
 749 334 l 1
832 197 m 1
 887 197 l 1
 873 101 l 1
 818 101 l 1
 803 0 l 1
 700 0 l 1
 715 101 l 1
 479 101 l 1
 484 134 l 1
 766 480 l 1
 874 480 l 1
 832 197 l 1
908 825 m 1
 306 0 l 1
 188 0 l 1
 790 825 l 1
 908 825 l 1
EndSplineSet
EndChar

StartChar: questiondown
Encoding: 191 191 127
GlifName: questiondown
Width: 635
Flags: W
HStem: -15 157<297.722 419.443> 609 176<386.359 475.641>
LayerCount: 2
Fore
SplineSet
275 423 m 1
 316 450 315 462 330 555 c 1
 495 555 l 1
 473 403 464 365 416 337 c 0
 349 298 291 295 281 224 c 0
 274 176 305 142 350 142 c 0
 422 142 466 202 483 245 c 1
 620 174 l 1
 619 169 549 -15 326 -15 c 0
 176 -15 56 83 77 224 c 0
 91 322 173 382 275 423 c 1
516 697 m 0
 509 649 464 609 418 609 c 0
 372 609 339 649 346 697 c 0
 353 745 398 785 444 785 c 0
 490 785 523 745 516 697 c 0
EndSplineSet
EndChar

StartChar: Agrave
Encoding: 192 192 128
GlifName: A_grave
Width: 918
Flags: W
HStem: 0 21G<39 251.182 672.394 879> 165 165<414 600> 805 20G<481.994 672.139>
LayerCount: 2
Fore
SplineSet
484 1152 m 1
 661 976 l 1
 594 899 l 1
 376 1037 l 1
 484 1152 l 1
667 825 m 1
 879 0 l 1
 677 0 l 1
 639 165 l 1
 325 165 l 1
 241 0 l 1
 39 0 l 1
 493 825 l 1
 667 825 l 1
600 330 m 1
 541 570 l 1
 414 330 l 1
 600 330 l 1
EndSplineSet
EndChar

StartChar: Aacute
Encoding: 193 193 129
GlifName: A_acute
Width: 918
Flags: W
HStem: 0 21G<39 251.182 672.394 879> 165 165<414 600> 805 20G<481.994 672.139>
LayerCount: 2
Fore
SplineSet
544 976 m 1
 773 1152 l 1
 847 1037 l 1
 589 899 l 1
 544 976 l 1
667 825 m 1
 879 0 l 1
 677 0 l 1
 639 165 l 1
 325 165 l 1
 241 0 l 1
 39 0 l 1
 493 825 l 1
 667 825 l 1
600 330 m 1
 541 570 l 1
 414 330 l 1
 600 330 l 1
EndSplineSet
EndChar

StartChar: Acircumflex
Encoding: 194 194 130
GlifName: A_circumflex
Width: 918
Flags: W
HStem: 0 21G<39 251.182 672.394 879> 165 165<414 600> 805 20G<481.994 672.139>
LayerCount: 2
Fore
SplineSet
382 990 m 1
 627 1152 l 1
 824 990 l 1
 743 899 l 1
 606 1011 l 1
 437 899 l 1
 382 990 l 1
667 825 m 1
 879 0 l 1
 677 0 l 1
 639 165 l 1
 325 165 l 1
 241 0 l 1
 39 0 l 1
 493 825 l 1
 667 825 l 1
600 330 m 1
 541 570 l 1
 414 330 l 1
 600 330 l 1
EndSplineSet
EndChar

StartChar: Atilde
Encoding: 195 195 131
GlifName: A_tilde
Width: 918
Flags: W
HStem: 0 21G<39 251.182 672.394 879> 165 165<414 600> 805 20G<481.994 672.139> 927 126<617.349 735.036> 973 126<481.964 608.389>
LayerCount: 2
Fore
SplineSet
518 973 m 0xe8
 486 973 466 927 466 927 c 1
 365 927 l 1xf0
 365 927 416 1099 526 1099 c 0xe8
 565 1099 658 1053 699 1053 c 0xf0
 731 1053 751 1099 751 1099 c 1
 852 1099 l 1xe8
 852 1099 801 927 691 927 c 0xf0
 652 927 582 973 518 973 c 0xe8
667 825 m 1
 879 0 l 1
 677 0 l 1
 639 165 l 1
 325 165 l 1
 241 0 l 1
 39 0 l 1
 493 825 l 1
 667 825 l 1
600 330 m 1
 541 570 l 1
 414 330 l 1
 600 330 l 1
EndSplineSet
EndChar

StartChar: Adieresis
Encoding: 196 196 132
GlifName: A_dieresis
Width: 918
Flags: W
HStem: 0 21G<39 251.182 672.394 879> 165 165<414 600> 805 20G<481.994 672.139> 919 184<441.29 537.303 678.29 774.303>
VStem: 397 184<961.329 1058.79> 634 184<961.329 1058.79>
LayerCount: 2
Fore
SplineSet
740 1103 m 0
 791 1103 826 1062 818 1011 c 0
 810 960 764 919 713 919 c 0
 662 919 626 960 634 1011 c 0
 642 1062 689 1103 740 1103 c 0
503 1103 m 0
 554 1103 589 1062 581 1011 c 0
 573 960 527 919 476 919 c 0
 425 919 389 960 397 1011 c 0
 405 1062 452 1103 503 1103 c 0
667 825 m 1
 879 0 l 1
 677 0 l 1
 639 165 l 1
 325 165 l 1
 241 0 l 1
 39 0 l 1
 493 825 l 1
 667 825 l 1
600 330 m 1
 541 570 l 1
 414 330 l 1
 600 330 l 1
EndSplineSet
EndChar

StartChar: Aring
Encoding: 197 197 133
GlifName: A_ring
Width: 918
Flags: W
HStem: 0 21G<39 251.182 672.394 879> 165 165<414 600> 805 20G<481.994 672.139> 902 79<561.473 651.586> 1107 80<573.061 663.929>
LayerCount: 2
Fore
SplineSet
552 1045 m 0
 547 1010 568 981 604 981 c 0
 639 981 669 1010 674 1045 c 0
 679 1079 656 1107 622 1107 c 0
 589 1107 557 1079 552 1045 c 0
452 1045 m 0
 464 1128 544 1187 634 1187 c 0
 725 1187 786 1128 774 1045 c 0
 762 961 686 902 592 902 c 0
 496 902 440 961 452 1045 c 0
667 825 m 1
 879 0 l 1
 677 0 l 1
 639 165 l 1
 325 165 l 1
 241 0 l 1
 39 0 l 1
 493 825 l 1
 667 825 l 1
600 330 m 1
 541 570 l 1
 414 330 l 1
 600 330 l 1
EndSplineSet
EndChar

StartChar: AE
Encoding: 198 198 134
GlifName: A_E_
Width: 1264
Flags: W
HStem: 0 165<879 1210> 165 165<510 644> 331 165<928 1244> 660 165<952 1307>
LayerCount: 2
Fore
SplineSet
714 635 m 1x70
 510 330 l 1
 669 330 l 1
 714 635 l 1x70
402 165 m 1
 291 0 l 1
 38 0 l 1
 632 825 l 1
 1332 825 l 1
 1307 660 l 1
 952 660 l 1
 928 496 l 1
 1268 496 l 1
 1244 331 l 1
 904 331 l 1
 879 165 l 1xb0
 1234 165 l 1x70
 1210 0 l 1
 620 0 l 1xb0
 644 165 l 1
 402 165 l 1
EndSplineSet
EndChar

StartChar: Ccedilla
Encoding: 199 199 135
GlifName: C_cedilla
Width: 778
Flags: W
HStem: -294 90<311.755 427.09> -120 57<408 426.428> -15 185<434.103 677.374> 655 185<499.55 773.574>
LayerCount: 2
Fore
SplineSet
492 -15 m 0
 472 -15 452 -14 432 -11 c 1
 408 -63 l 1
 463 -63 532 -96 522 -165 c 0
 513 -228 462 -294 351 -294 c 0
 261 -294 209 -211 209 -211 c 1
 289 -157 l 1
 289 -157 318 -204 364 -204 c 0
 460 -204 460 -120 364 -120 c 0
 328 -120 312 -129 312 -129 c 1
 363 5 l 1
 195 60 80 220 108 411 c 0
 143 648 384 840 618 840 c 0
 797 840 850 800 850 800 c 1
 783 615 l 1
 783 615 716 655 620 655 c 0
 431 655 328 523 312 413 c 0
 296 302 359 170 548 170 c 0
 644 170 723 210 723 210 c 1
 736 25 l 1
 736 25 671 -15 492 -15 c 0
EndSplineSet
EndChar

StartChar: Egrave
Encoding: 200 200 136
GlifName: E_grave
Width: 588
Flags: W
HStem: 0 165<273 533> 331 165<322 570> 660 165<346 630>
LayerCount: 2
Fore
SplineSet
655 825 m 1
 630 660 l 1
 346 660 l 1
 322 496 l 1
 594 496 l 1
 570 331 l 1
 298 331 l 1
 273 165 l 1
 557 165 l 1
 533 0 l 1
 61 0 l 1
 183 825 l 1
 655 825 l 1
315 1152 m 1
 493 976 l 1
 426 899 l 1
 208 1037 l 1
 315 1152 l 1
EndSplineSet
EndChar

StartChar: Eacute
Encoding: 201 201 137
GlifName: E_acute
Width: 588
Flags: W
HStem: 0 165<273 533> 331 165<322 570> 660 165<346 630>
LayerCount: 2
Fore
SplineSet
655 825 m 1
 630 660 l 1
 346 660 l 1
 322 496 l 1
 594 496 l 1
 570 331 l 1
 298 331 l 1
 273 165 l 1
 557 165 l 1
 533 0 l 1
 61 0 l 1
 183 825 l 1
 655 825 l 1
317 976 m 1
 546 1152 l 1
 620 1037 l 1
 362 899 l 1
 317 976 l 1
EndSplineSet
EndChar

StartChar: Ecircumflex
Encoding: 202 202 138
GlifName: E_circumflex
Width: 587
Flags: W
HStem: 0 165<273 533> 331 165<322 570> 660 165<346 630>
LayerCount: 2
Fore
SplineSet
655 825 m 1
 630 660 l 1
 346 660 l 1
 322 496 l 1
 594 496 l 1
 570 331 l 1
 298 331 l 1
 273 165 l 1
 557 165 l 1
 533 0 l 1
 61 0 l 1
 183 825 l 1
 655 825 l 1
216 990 m 1
 461 1152 l 1
 658 990 l 1
 577 899 l 1
 440 1011 l 1
 271 899 l 1
 216 990 l 1
EndSplineSet
EndChar

StartChar: Edieresis
Encoding: 203 203 139
GlifName: E_dieresis
Width: 588
Flags: W
HStem: 0 165<273 533> 331 165<322 570> 660 165<346 630> 919 184<273.29 369.303 510.29 606.303>
VStem: 229 184<961.329 1058.79> 466 184<961.329 1058.79>
LayerCount: 2
Fore
SplineSet
655 825 m 1
 630 660 l 1
 346 660 l 1
 322 496 l 1
 594 496 l 1
 570 331 l 1
 298 331 l 1
 273 165 l 1
 557 165 l 1
 533 0 l 1
 61 0 l 1
 183 825 l 1
 655 825 l 1
572 1103 m 0
 623 1103 658 1062 650 1011 c 0
 642 960 596 919 545 919 c 0
 494 919 458 960 466 1011 c 0
 474 1062 521 1103 572 1103 c 0
335 1103 m 0
 386 1103 421 1062 413 1011 c 0
 405 960 359 919 308 919 c 0
 257 919 221 960 229 1011 c 0
 237 1062 284 1103 335 1103 c 0
EndSplineSet
EndChar

StartChar: Igrave
Encoding: 204 204 140
GlifName: I_grave
Width: 428
Flags: W
HStem: 0 21G<176 366.958> 805 20G<295.042 486>
VStem: 176 310
LayerCount: 2
Fore
SplineSet
486 825 m 1
 364 0 l 1
 176 0 l 1
 298 825 l 1
 486 825 l 1
295 1152 m 1
 472 976 l 1
 405 899 l 1
 187 1037 l 1
 295 1152 l 1
EndSplineSet
EndChar

StartChar: Iacute
Encoding: 205 205 141
GlifName: I_acute
Width: 386
Flags: W
HStem: 0 21G<61 251.958> 805 20G<180.042 371>
LayerCount: 2
Fore
SplineSet
371 825 m 1
 249 0 l 1
 61 0 l 1
 183 825 l 1
 371 825 l 1
201 976 m 1
 430 1152 l 1
 504 1037 l 1
 246 899 l 1
 201 976 l 1
EndSplineSet
EndChar

StartChar: Icircumflex
Encoding: 206 206 142
GlifName: I_circumflex
Width: 511
Flags: W
HStem: 0 21G<161 351.958> 805 20G<280.042 471>
LayerCount: 2
Fore
SplineSet
471 825 m 1
 349 0 l 1
 161 0 l 1
 283 825 l 1
 471 825 l 1
180 990 m 1
 425 1152 l 1
 622 990 l 1
 541 899 l 1
 404 1011 l 1
 235 899 l 1
 180 990 l 1
EndSplineSet
EndChar

StartChar: Idieresis
Encoding: 207 207 143
GlifName: I_dieresis
Width: 491
Flags: W
HStem: 0 21G<150 340.958> 805 20G<269.042 460> 919 184<227.29 323.303 465.29 561.303>
VStem: 183 184<961.329 1058.79> 421 184<961.329 1058.79>
LayerCount: 2
Fore
SplineSet
460 825 m 1
 338 0 l 1
 150 0 l 1
 272 825 l 1
 460 825 l 1
527 1103 m 0
 578 1103 613 1062 605 1011 c 0
 597 960 551 919 500 919 c 0
 449 919 413 960 421 1011 c 0
 429 1062 476 1103 527 1103 c 0
289 1103 m 0
 340 1103 375 1062 367 1011 c 0
 359 960 313 919 262 919 c 0
 211 919 175 960 183 1011 c 0
 191 1062 238 1103 289 1103 c 0
EndSplineSet
EndChar

StartChar: Eth
Encoding: 208 208 144
GlifName: E_th
Width: 833
Flags: W
HStem: 0 168<339 475.581> 657 168<411 538.768>
LayerCount: 2
Fore
SplineSet
641 412 m 0
 662 556 614 657 411 657 c 1
 386 489 l 1
 497 461 l 1
 484 372 l 1
 364 336 l 1
 339 168 l 1
 542 168 620 268 641 412 c 0
198 489 m 1
 248 825 l 1
 487 825 l 2
 713 825 877 653 842 413 c 0
 806 172 592 0 365 0 c 2
 126 0 l 1
 176 336 l 1
 99 372 l 1
 112 461 l 1
 198 489 l 1
EndSplineSet
EndChar

StartChar: Ntilde
Encoding: 209 209 145
GlifName: N_tilde
Width: 831
Flags: W
HStem: 0 21G<61 251.972 745.538 769.958> 805 20G<180.042 204.318 697.941 889> 927 126<572.349 690.036> 973 126<436.964 563.389>
LayerCount: 2
Fore
SplineSet
473 973 m 0xd0
 441 973 421 927 421 927 c 1
 320 927 l 1xe0
 320 927 371 1099 481 1099 c 0xd0
 520 1099 613 1053 654 1053 c 0xe0
 686 1053 706 1099 706 1099 c 1
 807 1099 l 1xd0
 807 1099 756 927 646 927 c 0xe0
 607 927 537 973 473 973 c 0xd0
61 0 m 1
 183 825 l 1
 636 400 l 1
 701 825 l 1
 889 825 l 1
 767 0 l 1
 312 424 l 1
 249 0 l 1
 61 0 l 1
EndSplineSet
EndChar

StartChar: Ograve
Encoding: 210 210 146
GlifName: O_grave
Width: 930
Flags: W
HStem: -15 198<406.874 579.233> 642 198<468.641 641.03>
LayerCount: 2
Fore
SplineSet
313 413 m 0
 295 288 372 183 490 183 c 0
 608 183 716 288 734 413 c 0
 752 538 676 642 558 642 c 0
 440 642 331 538 313 413 c 0
108 413 m 0
 142 645 355 840 587 840 c 0
 819 840 973 645 939 413 c 0
 905 181 693 -15 461 -15 c 0
 229 -15 74 181 108 413 c 0
487 1152 m 1
 665 976 l 1
 598 899 l 1
 380 1037 l 1
 487 1152 l 1
EndSplineSet
EndChar

StartChar: Oacute
Encoding: 211 211 147
GlifName: O_acute
Width: 930
Flags: W
HStem: -15 198<406.874 579.233> 642 198<468.641 641.03>
LayerCount: 2
Fore
SplineSet
313 413 m 0
 295 288 372 183 490 183 c 0
 608 183 716 288 734 413 c 0
 752 538 676 642 558 642 c 0
 440 642 331 538 313 413 c 0
108 413 m 0
 142 645 355 840 587 840 c 0
 819 840 973 645 939 413 c 0
 905 181 693 -15 461 -15 c 0
 229 -15 74 181 108 413 c 0
509 976 m 1
 737 1152 l 1
 812 1037 l 1
 554 899 l 1
 509 976 l 1
EndSplineSet
EndChar

StartChar: Ocircumflex
Encoding: 212 212 148
GlifName: O_circumflex
Width: 930
Flags: W
HStem: -15 198<406.874 579.233> 642 198<468.641 641.03>
LayerCount: 2
Fore
SplineSet
313 413 m 0
 295 288 372 183 490 183 c 0
 608 183 716 288 734 413 c 0
 752 538 676 642 558 642 c 0
 440 642 331 538 313 413 c 0
108 413 m 0
 142 645 355 840 587 840 c 0
 819 840 973 645 939 413 c 0
 905 181 693 -15 461 -15 c 0
 229 -15 74 181 108 413 c 0
387 990 m 1
 633 1152 l 1
 829 990 l 1
 748 899 l 1
 612 1011 l 1
 442 899 l 1
 387 990 l 1
EndSplineSet
EndChar

StartChar: Otilde
Encoding: 213 213 149
GlifName: O_tilde
Width: 930
Flags: W
HStem: -15 198<406.874 579.233> 642 198<468.641 641.03> 927 126<620.349 738.275> 973 126<485.202 611.389>
LayerCount: 2
Fore
SplineSet
313 413 m 0xc0
 295 288 372 183 490 183 c 0
 608 183 716 288 734 413 c 0
 752 538 676 642 558 642 c 0
 440 642 331 538 313 413 c 0xc0
108 413 m 0
 142 645 355 840 587 840 c 0
 819 840 973 645 939 413 c 0
 905 181 693 -15 461 -15 c 0
 229 -15 74 181 108 413 c 0
521 973 m 0xd0
 489 973 470 927 470 927 c 1
 368 927 l 1xe0
 368 927 419 1099 529 1099 c 0xd0
 568 1099 661 1053 702 1053 c 0xe0
 734 1053 755 1099 755 1099 c 1
 855 1099 l 1xd0
 855 1099 804 927 694 927 c 0xe0
 655 927 585 973 521 973 c 0xd0
EndSplineSet
EndChar

StartChar: Odieresis
Encoding: 214 214 150
GlifName: O_dieresis
Width: 930
Flags: W
HStem: -15 198<406.874 579.233> 642 198<468.641 641.03> 919 184<446.29 542.303 682.29 778.303>
VStem: 402 184<961.329 1058.79> 638 184<961.329 1058.79>
LayerCount: 2
Fore
SplineSet
313 413 m 0
 295 288 372 183 490 183 c 0
 608 183 716 288 734 413 c 0
 752 538 676 642 558 642 c 0
 440 642 331 538 313 413 c 0
108 413 m 0
 142 645 355 840 587 840 c 0
 819 840 973 645 939 413 c 0
 905 181 693 -15 461 -15 c 0
 229 -15 74 181 108 413 c 0
744 1103 m 0
 795 1103 830 1062 822 1011 c 0
 814 960 768 919 717 919 c 0
 666 919 630 960 638 1011 c 0
 646 1062 693 1103 744 1103 c 0
508 1103 m 0
 559 1103 594 1062 586 1011 c 0
 578 960 532 919 481 919 c 0
 430 919 394 960 402 1011 c 0
 410 1062 457 1103 508 1103 c 0
EndSplineSet
EndChar

StartChar: multiply
Encoding: 215 215 151
GlifName: multiply
Width: 612
Flags: W
LayerCount: 2
Fore
SplineSet
604 262 m 1
 481 154 l 1
 350 307 l 1
 175 154 l 1
 83 263 l 1
 257 415 l 1
 128 568 l 1
 252 675 l 1
 381 523 l 1
 557 675 l 1
 649 567 l 1
 473 414 l 1
 604 262 l 1
EndSplineSet
EndChar

StartChar: Oslash
Encoding: 216 216 152
GlifName: O_slash
Width: 930
Flags: W
HStem: -15 198<415.677 579.233> 642 198<468.641 632.323>
LayerCount: 2
Fore
SplineSet
849 853 m 1
 948 767 l 1
 878 693 l 1
 931 617 955 519 939 413 c 0
 905 181 693 -15 461 -15 c 0
 386 -15 319 5 264 41 c 1
 199 -27 l 1
 100 59 l 1
 169 132 l 1
 116 208 92 307 108 413 c 0
 142 645 355 840 587 840 c 0
 662 840 729 819 784 784 c 1
 849 853 l 1
723 528 m 1
 414 200 l 1
 436 189 462 183 490 183 c 0
 608 183 716 288 734 413 c 0
 740 455 736 494 723 528 c 1
634 626 m 1
 612 637 586 642 558 642 c 0
 440 642 331 538 313 413 c 0
 307 371 312 331 325 297 c 1
 634 626 l 1
EndSplineSet
EndChar

StartChar: Ugrave
Encoding: 217 217 153
GlifName: U_grave
Width: 762
Flags: W
HStem: -15 185<326.84 490.452> 805 20G<177.03 368 633.023 824>
LayerCount: 2
Fore
SplineSet
636 825 m 1
 824 825 l 1
 745 293 l 2
 715 89 588 -15 378 -15 c 0
 168 -15 71 89 101 293 c 2
 180 825 l 1
 368 825 l 1
 297 348 l 2
 277 210 313 170 405 170 c 0
 497 170 545 210 565 348 c 2
 636 825 l 1
406 1152 m 1
 582 976 l 1
 515 899 l 1
 297 1037 l 1
 406 1152 l 1
EndSplineSet
EndChar

StartChar: Uacute
Encoding: 218 218 154
GlifName: U_acute
Width: 762
Flags: W
HStem: -15 185<326.84 490.452> 805 20G<177.03 368 633.023 824>
LayerCount: 2
Fore
SplineSet
636 825 m 1
 824 825 l 1
 745 293 l 2
 715 89 588 -15 378 -15 c 0
 168 -15 71 89 101 293 c 2
 180 825 l 1
 368 825 l 1
 297 348 l 2
 277 210 313 170 405 170 c 0
 497 170 545 210 565 348 c 2
 636 825 l 1
406 976 m 1
 636 1152 l 1
 709 1037 l 1
 451 899 l 1
 406 976 l 1
EndSplineSet
EndChar

StartChar: Ucircumflex
Encoding: 219 219 155
GlifName: U_circumflex
Width: 762
Flags: W
HStem: -15 185<326.84 490.452> 805 20G<177.03 368 633.023 824>
LayerCount: 2
Fore
SplineSet
636 825 m 1
 824 825 l 1
 745 293 l 2
 715 89 588 -15 378 -15 c 0
 168 -15 71 89 101 293 c 2
 180 825 l 1
 368 825 l 1
 297 348 l 2
 277 210 313 170 405 170 c 0
 497 170 545 210 565 348 c 2
 636 825 l 1
306 990 m 1
 550 1152 l 1
 748 990 l 1
 667 899 l 1
 529 1011 l 1
 361 899 l 1
 306 990 l 1
EndSplineSet
EndChar

StartChar: Udieresis
Encoding: 220 220 156
GlifName: U_dieresis
Width: 762
Flags: W
HStem: -15 185<326.84 490.452> 805 20G<177.03 368 633.023 824> 919 184<363.29 459.303 599.29 695.303>
VStem: 319 184<961.329 1058.79> 555 184<961.329 1058.79>
LayerCount: 2
Fore
SplineSet
636 825 m 1
 824 825 l 1
 745 293 l 2
 715 89 588 -15 378 -15 c 0
 168 -15 71 89 101 293 c 2
 180 825 l 1
 368 825 l 1
 297 348 l 2
 277 210 313 170 405 170 c 0
 497 170 545 210 565 348 c 2
 636 825 l 1
661 1103 m 0
 712 1103 747 1062 739 1011 c 0
 731 960 685 919 634 919 c 0
 583 919 547 960 555 1011 c 0
 563 1062 610 1103 661 1103 c 0
425 1103 m 0
 476 1103 511 1062 503 1011 c 0
 495 960 449 919 398 919 c 0
 347 919 311 960 319 1011 c 0
 327 1062 374 1103 425 1103 c 0
EndSplineSet
EndChar

StartChar: Yacute
Encoding: 221 221 157
GlifName: Y_acute
Width: 869
Flags: W
HStem: 0 21G<340 530.973> 805 20G<158 394.076 712.015 954>
LayerCount: 2
Fore
SplineSet
158 825 m 1
 384 825 l 1
 517 561 l 1
 728 825 l 1
 954 825 l 1
 583 370 l 1
 528 0 l 1
 340 0 l 1
 395 370 l 1
 158 825 l 1
460 976 m 1
 690 1152 l 1
 763 1037 l 1
 505 899 l 1
 460 976 l 1
EndSplineSet
EndChar

StartChar: Thorn
Encoding: 222 222 158
GlifName: T_horn
Width: 696
Flags: W
HStem: 0 21G<62 253.007> 153 150<295 444.035> 522 150<349 468.509> 805 20G<181.042 372>
LayerCount: 2
Fore
SplineSet
295 303 m 1
 347 303 l 2
 421 303 491 329 503 412 c 0
 515 496 453 522 379 522 c 2
 327 522 l 1
 295 303 l 1
372 825 m 1
 349 672 l 1
 461 672 l 2
 622 672 732 589 707 418 c 0
 682 248 546 153 385 153 c 2
 273 153 l 1
 250 0 l 1
 62 0 l 1
 184 825 l 1
 372 825 l 1
EndSplineSet
EndChar

StartChar: germandbls
Encoding: 223 223 159
GlifName: germandbls
Width: 657
Flags: W
HStem: 0 21G<61 231.945 274.958 303.724>
LayerCount: 2
Fore
SplineSet
675 638 m 1
 660 535 607 484 539 444 c 1
 625 398 652 315 640 232 c 0
 605 -7 272 0 272 0 c 1
 293 142 l 1
 286 167 447 131 464 244 c 0
 478 341 384 363 349 392 c 1
 366 509 l 2
 375 568 483 543 495 626 c 0
 508 718 446 733 379 724 c 0
 341 719 325 653 315 584 c 2
 229 0 l 1
 61 0 l 1
 156 650 l 2
 204 982 743 929 675 638 c 1
EndSplineSet
EndChar

StartChar: agrave
Encoding: 224 224 160
GlifName: agrave
Width: 709
Flags: W
HStem: -15 151<226 403.195> 0 21G<473 650.952> 377 151<339.762 478.029> 820 20G<326.043 365>
LayerCount: 2
Fore
SplineSet
275 256 m 0xb0
 265 186 305 136 377 136 c 0
 446 136 503 186 513 256 c 0
 523 327 479 377 413 377 c 0
 346 377 285 327 275 256 c 0xb0
715 454 m 2
 648 0 l 1
 473 0 l 1x70
 482 58 l 1
 438 16 371 -15 301 -15 c 0
 151 -15 65 106 87 256 c 0
 109 406 231 528 381 528 c 0
 450 528 728 541 715 454 c 2
345 840 m 1
 521 664 l 1
 454 587 l 1
 236 725 l 1
 345 840 l 1
EndSplineSet
EndChar

StartChar: aacute
Encoding: 225 225 161
GlifName: aacute
Width: 710
Flags: W
HStem: -15 151<227 404.195> 0 21G<474 651.952> 377 151<340.762 479.029> 820 20G<609.864 648.696>
LayerCount: 2
Fore
SplineSet
276 256 m 0xb0
 266 186 306 136 378 136 c 0
 447 136 504 186 514 256 c 0
 524 327 480 377 414 377 c 0
 347 377 286 327 276 256 c 0xb0
716 454 m 2
 649 0 l 1
 474 0 l 1x70
 483 58 l 1
 439 16 372 -15 302 -15 c 0
 152 -15 66 106 88 256 c 0
 110 406 232 528 382 528 c 0
 451 528 729 541 716 454 c 2
406 664 m 1
 636 840 l 1
 709 725 l 1
 451 587 l 1
 406 664 l 1
EndSplineSet
EndChar

StartChar: acircumflex
Encoding: 226 226 162
GlifName: acircumflex
Width: 709
Flags: W
HStem: -15 151<226 403.195> 0 21G<473 650.952> 377 151<339.762 478.029> 820 20G<458.877 513.444>
LayerCount: 2
Fore
SplineSet
275 256 m 0xb0
 265 186 305 136 377 136 c 0
 446 136 503 186 513 256 c 0
 523 327 479 377 413 377 c 0
 346 377 285 327 275 256 c 0xb0
715 454 m 2
 648 0 l 1
 473 0 l 1x70
 482 58 l 1
 438 16 371 -15 301 -15 c 0
 151 -15 65 106 87 256 c 0
 109 406 231 528 381 528 c 0
 450 528 728 541 715 454 c 2
245 678 m 1
 489 840 l 1
 687 678 l 1
 606 587 l 1
 468 699 l 1
 300 587 l 1
 245 678 l 1
EndSplineSet
EndChar

StartChar: atilde
Encoding: 227 227 163
GlifName: atilde
Width: 710
Flags: W
HStem: -15 151<227 404.195> 0 21G<474 651.952> 377 151<340.762 479.029> 615 126<479.349 596.798> 661 126<343.725 470.389>
LayerCount: 2
Fore
SplineSet
276 256 m 0xa0
 266 186 306 136 378 136 c 0
 447 136 504 186 514 256 c 0
 524 327 480 377 414 377 c 0
 347 377 286 327 276 256 c 0xa0
716 454 m 2
 649 0 l 1
 474 0 l 1x60
 483 58 l 1
 439 16 372 -15 302 -15 c 0
 152 -15 66 106 88 256 c 0
 110 406 232 528 382 528 c 0
 451 528 729 541 716 454 c 2
380 661 m 0x28
 348 661 327 615 327 615 c 1
 227 615 l 1x30
 227 615 278 787 388 787 c 0x28
 427 787 520 741 561 741 c 0x30
 593 741 612 787 612 787 c 1
 714 787 l 1x28
 714 787 663 615 553 615 c 0x30
 514 615 444 661 380 661 c 0x28
EndSplineSet
EndChar

StartChar: adieresis
Encoding: 228 228 164
GlifName: adieresis
Width: 709
Flags: W
HStem: -15 151<226 403.195> 0 21G<473 650.952> 377 151<339.762 478.029> 607 184<302.29 398.303 540.29 636.303>
VStem: 258 184<649.329 746.79> 496 184<649.329 746.79>
LayerCount: 2
Fore
SplineSet
275 256 m 0xbc
 265 186 305 136 377 136 c 0
 446 136 503 186 513 256 c 0
 523 327 479 377 413 377 c 0
 346 377 285 327 275 256 c 0xbc
715 454 m 2
 648 0 l 1
 473 0 l 1x7c
 482 58 l 1
 438 16 371 -15 301 -15 c 0
 151 -15 65 106 87 256 c 0
 109 406 231 528 381 528 c 0
 450 528 728 541 715 454 c 2
602 791 m 0
 653 791 688 750 680 699 c 0
 672 648 626 607 575 607 c 0
 524 607 488 648 496 699 c 0
 504 750 551 791 602 791 c 0
364 791 m 0
 415 791 450 750 442 699 c 0
 434 648 388 607 337 607 c 0
 286 607 250 648 258 699 c 0
 266 750 313 791 364 791 c 0
EndSplineSet
EndChar

StartChar: aring
Encoding: 229 229 165
GlifName: aring
Width: 709
Flags: W
HStem: -15 151<226 403.195> 0 21G<473 650.952> 377 151<339.762 478.029> 590 79<421.763 511.92> 795 80<433.416 524.231>
LayerCount: 2
Fore
SplineSet
275 256 m 0xb8
 265 186 305 136 377 136 c 0
 446 136 503 186 513 256 c 0
 523 327 479 377 413 377 c 0
 346 377 285 327 275 256 c 0xb8
715 454 m 2
 648 0 l 1
 473 0 l 1x78
 482 58 l 1
 438 16 371 -15 301 -15 c 0
 151 -15 65 106 87 256 c 0
 109 406 231 528 381 528 c 0
 450 528 728 541 715 454 c 2
413 733 m 0
 408 698 428 669 464 669 c 0
 499 669 530 698 535 733 c 0
 540 767 516 795 482 795 c 0
 449 795 418 767 413 733 c 0
313 733 m 0
 325 816 404 875 494 875 c 0
 585 875 647 816 635 733 c 0
 623 649 546 590 452 590 c 0
 356 590 301 649 313 733 c 0
EndSplineSet
EndChar

StartChar: ae
Encoding: 230 230 166
GlifName: ae
Width: 997
Flags: W
HStem: -15 141<634.659 788.658> -15 106<181.5 358.673> 207 94<263.549 395.473> 232 98<625 820> 387 141<212.327 400.814> 413 115<664.504 796.642>
LayerCount: 2
Fore
SplineSet
245 151 m 0x60
 240 115 268 91 315 91 c 0
 362 91 405 121 409 151 c 0
 413 181 380 207 333 207 c 0
 286 207 250 187 245 151 c 0x60
625 330 m 1x14
 820 330 l 1
 820 384 787 413 735 413 c 0
 674 413 635 377 625 330 c 1x14
189 357 m 1
 151 478 l 1
 151 478 222 528 353 528 c 0x68
 415 528 501 513 556 464 c 1
 611 504 678 528 747 528 c 0
 903 528 1009 436 982 256 c 0
 981 249 979 238 977 232 c 1
 605 232 l 1
 593 153 656 126 701 126 c 0
 758 126 784 137 834 183 c 1
 953 119 l 1
 881 22 781 -15 667 -15 c 0x94
 582 -15 511 21 468 79 c 1
 468 79 392 -15 235 -15 c 0
 128 -15 53 43 67 136 c 0
 81 228 158 301 274 301 c 0
 359 301 405 278 426 262 c 1
 431 299 l 2
 439 355 383 387 332 387 c 0x68
 240 387 189 357 189 357 c 1
EndSplineSet
EndChar

StartChar: ccedilla
Encoding: 231 231 167
GlifName: ccedilla
Width: 552
Flags: W
HStem: -294 90<194.755 310.09> -120 57<291 309.428> -15 145<314.306 461.018> 383 145<347.429 511.214>
LayerCount: 2
Fore
SplineSet
511 31 m 1
 511 31 446 -15 332 -15 c 0
 326 -15 320 -15 314 -14 c 1
 291 -63 l 1
 346 -63 415 -96 405 -165 c 0
 396 -228 345 -294 234 -294 c 0
 144 -294 92 -211 92 -211 c 1
 172 -157 l 1
 172 -157 201 -204 247 -204 c 0
 343 -204 343 -120 247 -120 c 0
 211 -120 195 -129 195 -129 c 1
 243 0 l 1
 140 36 70 136 88 255 c 0
 110 406 263 528 412 528 c 0
 526 528 577 480 577 480 c 1
 499 359 l 1
 499 359 470 383 417 383 c 0
 350 383 286 327 276 257 c 0
 266 186 312 130 379 130 c 0
 432 130 469 154 469 154 c 1
 511 31 l 1
EndSplineSet
EndChar

StartChar: egrave
Encoding: 232 232 168
GlifName: egrave
Width: 656
Flags: W
HStem: -15 21G<251.5 386> 227 90<284 480> 413 115<334.902 451.575> 820 20G<286.391 325.227>
LayerCount: 2
Fore
SplineSet
284 317 m 1
 480 317 l 1
 480 371 448 413 396 413 c 0
 335 413 294 364 284 317 c 1
495 173 m 1
 615 119 l 1
 543 22 443 -15 329 -15 c 0
 174 -15 65 107 87 256 c 0
 109 406 254 528 409 528 c 0
 565 528 667 418 639 227 c 1
 267 227 l 1
 254 141 365 60 495 173 c 1
305 840 m 1
 483 664 l 1
 416 587 l 1
 198 725 l 1
 305 840 l 1
EndSplineSet
EndChar

StartChar: eacute
Encoding: 233 233 169
GlifName: eacute
Width: 655
Flags: W
HStem: -15 21G<251.5 386> 227 90<284 480> 413 115<334.902 451.575> 820 20G<568.977 607.87>
LayerCount: 2
Fore
SplineSet
284 317 m 1
 480 317 l 1
 480 371 448 413 396 413 c 0
 335 413 294 364 284 317 c 1
495 173 m 1
 615 119 l 1
 543 22 443 -15 329 -15 c 0
 174 -15 65 107 87 256 c 0
 109 406 254 528 409 528 c 0
 565 528 667 418 639 227 c 1
 267 227 l 1
 254 141 365 60 495 173 c 1
366 664 m 1
 595 840 l 1
 669 725 l 1
 411 587 l 1
 366 664 l 1
EndSplineSet
EndChar

StartChar: ecircumflex
Encoding: 234 234 170
GlifName: ecircumflex
Width: 654
Flags: W
HStem: -15 21G<250.5 385> 227 90<283 479> 413 115<333.902 450.575> 820 20G<418.753 473.321>
LayerCount: 2
Fore
SplineSet
283 317 m 1
 479 317 l 1
 479 371 447 413 395 413 c 0
 334 413 293 364 283 317 c 1
494 173 m 1
 614 119 l 1
 542 22 442 -15 328 -15 c 0
 173 -15 64 107 86 256 c 0
 108 406 253 528 408 528 c 0
 564 528 666 418 638 227 c 1
 266 227 l 1
 253 141 364 60 494 173 c 1
204 678 m 1
 449 840 l 1
 646 678 l 1
 565 587 l 1
 428 699 l 1
 259 587 l 1
 204 678 l 1
EndSplineSet
EndChar

StartChar: edieresis
Encoding: 235 235 171
GlifName: edieresis
Width: 655
Flags: W
HStem: -15 21G<251.5 386> 227 90<284 480> 413 115<334.902 451.575> 607 184<264.29 360.303 500.29 596.303>
VStem: 220 184<649.329 746.79> 456 184<649.329 746.79>
LayerCount: 2
Fore
SplineSet
284 317 m 1
 480 317 l 1
 480 371 448 413 396 413 c 0
 335 413 294 364 284 317 c 1
495 173 m 1
 615 119 l 1
 543 22 443 -15 329 -15 c 0
 174 -15 65 107 87 256 c 0
 109 406 254 528 409 528 c 0
 565 528 667 418 639 227 c 1
 267 227 l 1
 254 141 365 60 495 173 c 1
562 791 m 0
 613 791 648 750 640 699 c 0
 632 648 586 607 535 607 c 0
 484 607 448 648 456 699 c 0
 464 750 511 791 562 791 c 0
326 791 m 0
 377 791 412 750 404 699 c 0
 396 648 350 607 299 607 c 0
 248 607 212 648 220 699 c 0
 228 750 275 791 326 791 c 0
EndSplineSet
EndChar

StartChar: igrave
Encoding: 236 236 172
GlifName: igrave
Width: 422
Flags: W
HStem: 0 21G<183 362.963> 493 20G<256.037 436> 820 20G<232.217 271.114>
VStem: 143 293
LayerCount: 2
Fore
SplineSet
259 513 m 1
 436 513 l 1
 360 0 l 1
 183 0 l 1
 259 513 l 1
251 840 m 1
 428 664 l 1
 361 587 l 1
 143 725 l 1
 251 840 l 1
EndSplineSet
EndChar

StartChar: iacute
Encoding: 237 237 173
GlifName: iacute
Width: 420
Flags: W
HStem: 0 21G<59 238.963> 493 20G<132.037 312> 820 20G<389.977 428.87>
LayerCount: 2
Fore
SplineSet
135 513 m 1
 312 513 l 1
 236 0 l 1
 59 0 l 1
 135 513 l 1
187 664 m 1
 416 840 l 1
 490 725 l 1
 232 587 l 1
 187 664 l 1
EndSplineSet
EndChar

StartChar: icircumflex
Encoding: 238 238 174
GlifName: icircumflex
Width: 518
Flags: W
HStem: 0 21G<169 348.963> 493 20G<242.037 422> 820 20G<350.877 405.444>
LayerCount: 2
Fore
SplineSet
245 513 m 1
 422 513 l 1
 346 0 l 1
 169 0 l 1
 245 513 l 1
137 678 m 1
 381 840 l 1
 579 678 l 1
 498 587 l 1
 360 699 l 1
 192 587 l 1
 137 678 l 1
EndSplineSet
EndChar

StartChar: idieresis
Encoding: 239 239 175
GlifName: idieresis
Width: 502
Flags: W
HStem: 0 21G<162 341.963> 493 20G<235.037 415> 607 184<187.29 283.303 423.29 519.303>
VStem: 143 184<649.329 746.79> 379 184<649.329 746.79>
LayerCount: 2
Fore
SplineSet
238 513 m 1
 415 513 l 1
 339 0 l 1
 162 0 l 1
 238 513 l 1
485 791 m 0
 536 791 571 750 563 699 c 0
 555 648 509 607 458 607 c 0
 407 607 371 648 379 699 c 0
 387 750 434 791 485 791 c 0
249 791 m 0
 300 791 335 750 327 699 c 0
 319 648 273 607 222 607 c 0
 171 607 135 648 143 699 c 0
 151 750 198 791 249 791 c 0
EndSplineSet
EndChar

StartChar: eth
Encoding: 240 240 176
GlifName: eth
Width: 717
Flags: W
HStem: -15 151<310.711 447.004> 377 151<339.776 470.459>
LayerCount: 2
Fore
SplineSet
274 256 m 0
 264 186 304 136 376 136 c 0
 445 136 504 186 514 256 c 2
 515 261 l 2
 522 329 476 377 412 377 c 0
 345 377 284 327 274 256 c 0
86 256 m 0
 111 424 274 528 384 528 c 0
 398 528 445 528 472 512 c 1
 446 559 411 597 373 627 c 1
 276 545 l 1
 212 622 l 1
 283 684 l 1
 224 714 177 725 177 725 c 1
 241 875 l 1
 241 875 324 856 419 803 c 1
 503 875 l 1
 568 797 l 1
 508 745 l 1
 628 651 738 498 702 256 c 0
 679 98 533 -15 356 -15 c 0
 171 -15 63 98 86 256 c 0
EndSplineSet
EndChar

StartChar: ntilde
Encoding: 241 241 177
GlifName: ntilde
Width: 681
Flags: W
HStem: 0 21G<59 245.951 445 624.927> 384 144<330.135 466.287> 500 20G<133.038 276> 615 126<442.349 559.798> 661 126<306.725 433.389>
LayerCount: 2
Fore
SplineSet
343 661 m 0x88
 311 661 290 615 290 615 c 1
 190 615 l 1x90
 190 615 241 787 351 787 c 0x88
 390 787 483 741 524 741 c 0x90
 556 741 575 787 575 787 c 1
 677 787 l 1x88
 677 787 626 615 516 615 c 0x90
 477 615 407 661 343 661 c 0x88
243 0 m 1
 59 0 l 1
 136 520 l 1
 276 520 l 1xa0
 272 491 l 1
 309 514 358 528 423 528 c 0
 615 528 689 459 664 287 c 2
 622 0 l 1
 445 0 l 1
 481 244 l 2
 496 345 476 384 402 384 c 0xc0
 328 384 294 345 279 244 c 2
 243 0 l 1
EndSplineSet
EndChar

StartChar: ograve
Encoding: 242 242 178
GlifName: ograve
Width: 709
Flags: W
HStem: -15 155<310.106 445.786> 373 155<338.244 471.611> 820 20G<312.217 351.114>
LayerCount: 2
Fore
SplineSet
268 256 m 0
 259 194 307 140 374 140 c 0
 441 140 504 194 513 256 c 0
 522 318 475 373 408 373 c 0
 341 373 277 318 268 256 c 0
86 256 m 0
 107 401 265 528 432 528 c 0
 599 528 716 401 695 256 c 0
 674 111 519 -15 352 -15 c 0
 185 -15 65 111 86 256 c 0
331 840 m 1
 508 664 l 1
 441 587 l 1
 223 725 l 1
 331 840 l 1
EndSplineSet
EndChar

StartChar: oacute
Encoding: 243 243 179
GlifName: oacute
Width: 710
Flags: W
HStem: -15 155<311.106 446.786> 373 155<339.244 472.611> 820 20G<555.977 594.87>
LayerCount: 2
Fore
SplineSet
269 256 m 0
 260 194 308 140 375 140 c 0
 442 140 505 194 514 256 c 0
 523 318 476 373 409 373 c 0
 342 373 278 318 269 256 c 0
87 256 m 0
 108 401 266 528 433 528 c 0
 600 528 717 401 696 256 c 0
 675 111 520 -15 353 -15 c 0
 186 -15 66 111 87 256 c 0
353 664 m 1
 582 840 l 1
 656 725 l 1
 398 587 l 1
 353 664 l 1
EndSplineSet
EndChar

StartChar: ocircumflex
Encoding: 244 244 180
GlifName: ocircumflex
Width: 709
Flags: W
HStem: -15 155<310.106 445.786> 373 155<338.244 471.611> 820 20G<445.63 500.198>
LayerCount: 2
Fore
SplineSet
268 256 m 0
 259 194 307 140 374 140 c 0
 441 140 504 194 513 256 c 0
 522 318 475 373 408 373 c 0
 341 373 277 318 268 256 c 0
86 256 m 0
 107 401 265 528 432 528 c 0
 599 528 716 401 695 256 c 0
 674 111 519 -15 352 -15 c 0
 185 -15 65 111 86 256 c 0
230 678 m 1
 476 840 l 1
 672 678 l 1
 591 587 l 1
 455 699 l 1
 285 587 l 1
 230 678 l 1
EndSplineSet
EndChar

StartChar: otilde
Encoding: 245 245 181
GlifName: otilde
Width: 709
Flags: W
HStem: -15 155<310.106 445.786> 373 155<338.244 471.611> 615 126<464.349 582.036> 661 126<328.964 455.389>
LayerCount: 2
Fore
SplineSet
268 256 m 0xc0
 259 194 307 140 374 140 c 0
 441 140 504 194 513 256 c 0
 522 318 475 373 408 373 c 0
 341 373 277 318 268 256 c 0xc0
86 256 m 0
 107 401 265 528 432 528 c 0
 599 528 716 401 695 256 c 0
 674 111 519 -15 352 -15 c 0
 185 -15 65 111 86 256 c 0
365 661 m 0xd0
 333 661 313 615 313 615 c 1
 212 615 l 1xe0
 212 615 263 787 373 787 c 0xd0
 412 787 505 741 546 741 c 0xe0
 578 741 598 787 598 787 c 1
 699 787 l 1xd0
 699 787 648 615 538 615 c 0xe0
 499 615 429 661 365 661 c 0xd0
EndSplineSet
EndChar

StartChar: odieresis
Encoding: 246 246 182
GlifName: odieresis
Width: 709
Flags: W
HStem: -15 155<310.106 445.786> 373 155<338.244 471.611> 607 184<289.29 385.303 525.29 621.303>
VStem: 245 184<649.329 746.79> 481 184<649.329 746.79>
LayerCount: 2
Fore
SplineSet
268 256 m 0
 259 194 307 140 374 140 c 0
 441 140 504 194 513 256 c 0
 522 318 475 373 408 373 c 0
 341 373 277 318 268 256 c 0
86 256 m 0
 107 401 265 528 432 528 c 0
 599 528 716 401 695 256 c 0
 674 111 519 -15 352 -15 c 0
 185 -15 65 111 86 256 c 0
587 791 m 0
 638 791 673 750 665 699 c 0
 657 648 611 607 560 607 c 0
 509 607 473 648 481 699 c 0
 489 750 536 791 587 791 c 0
351 791 m 0
 402 791 437 750 429 699 c 0
 421 648 375 607 324 607 c 0
 273 607 237 648 245 699 c 0
 253 750 300 791 351 791 c 0
EndSplineSet
EndChar

StartChar: divide
Encoding: 247 247 183
GlifName: divide
Width: 617
Flags: W
HStem: 109 162<288.295 379.741> 338 153<123 613> 558 162<354.295 445.741>
CounterMasks: 1 e0
LayerCount: 2
Fore
SplineSet
345 271 m 0
 391 271 422 235 415 189 c 0
 409 145 367 109 321 109 c 0
 277 109 247 145 253 189 c 0
 260 235 301 271 345 271 c 0
123 491 m 1
 636 491 l 1
 613 338 l 1
 100 338 l 1
 123 491 l 1
411 720 m 0
 457 720 488 684 481 638 c 0
 475 594 433 558 387 558 c 0
 343 558 313 594 319 638 c 0
 326 684 367 720 411 720 c 0
EndSplineSet
EndChar

StartChar: oslash
Encoding: 248 248 184
GlifName: oslash
Width: 680
Flags: W
HStem: -15 155<308.576 424.757> 373 155<327.986 444.344>
LayerCount: 2
Fore
SplineSet
100 256 m 0
 121 401 266 528 418 528 c 0
 487 528 546 502 588 460 c 1
 653 507 l 1
 698 439 l 1
 635 393 l 1
 654 352 661 305 654 256 c 0
 633 111 490 -15 338 -15 c 0
 269 -15 209 12 166 54 c 1
 99 5 l 1
 53 73 l 1
 119 121 l 1
 101 161 93 207 100 256 c 0
446 357 m 1
 431 367 414 373 394 373 c 0
 333 373 274 318 265 256 c 0
 264 246 262 236 264 226 c 1
 446 357 l 1
488 287 m 1
 307 156 l 1
 322 146 340 140 360 140 c 0
 421 140 480 194 489 256 c 0
 491 267 490 277 488 287 c 1
EndSplineSet
EndChar

StartChar: ugrave
Encoding: 249 249 185
GlifName: ugrave
Width: 673
Flags: W
HStem: -15 144<288.515 423.744> 493 20G<129.003 309 509.049 689> 820 20G<295.043 334>
LayerCount: 2
Fore
SplineSet
132 513 m 1
 309 513 l 1
 273 269 l 2
 258 168 279 129 353 129 c 0
 427 129 461 168 476 269 c 2
 512 513 l 1
 689 513 l 1
 646 226 l 2
 621 54 524 -15 332 -15 c 0
 140 -15 64 54 89 226 c 2
 132 513 l 1
314 840 m 1
 490 664 l 1
 423 587 l 1
 205 725 l 1
 314 840 l 1
EndSplineSet
EndChar

StartChar: uacute
Encoding: 250 250 186
GlifName: uacute
Width: 673
Flags: W
HStem: -15 144<289.515 424.744> 493 20G<130.003 310 510.049 690> 820 20G<577.091 616.043>
LayerCount: 2
Fore
SplineSet
133 513 m 1
 310 513 l 1
 274 269 l 2
 259 168 280 129 354 129 c 0
 428 129 462 168 477 269 c 2
 513 513 l 1
 690 513 l 1
 647 226 l 2
 622 54 525 -15 333 -15 c 0
 141 -15 65 54 90 226 c 2
 133 513 l 1
375 664 m 1
 603 840 l 1
 678 725 l 1
 420 587 l 1
 375 664 l 1
EndSplineSet
EndChar

StartChar: ucircumflex
Encoding: 251 251 187
GlifName: ucircumflex
Width: 671
Flags: W
HStem: -15 144<288.515 423.524> 493 20G<129.003 309 508.049 688> 820 20G<427.753 482.321>
LayerCount: 2
Fore
SplineSet
132 513 m 1
 309 513 l 1
 273 269 l 2
 258 168 279 129 353 129 c 0
 427 129 460 168 475 269 c 2
 511 513 l 1
 688 513 l 1
 645 226 l 2
 620 54 524 -15 332 -15 c 0
 140 -15 64 54 89 226 c 2
 132 513 l 1
213 678 m 1
 458 840 l 1
 655 678 l 1
 574 587 l 1
 437 699 l 1
 268 587 l 1
 213 678 l 1
EndSplineSet
EndChar

StartChar: udieresis
Encoding: 252 252 188
GlifName: udieresis
Width: 673
Flags: W
HStem: -15 144<288.515 423.744> 493 20G<129.003 309 509.049 689> 607 184<271.29 367.303 507.29 603.303>
VStem: 227 184<649.329 746.79> 463 184<649.329 746.79>
LayerCount: 2
Fore
SplineSet
132 513 m 1
 309 513 l 1
 273 269 l 2
 258 168 279 129 353 129 c 0
 427 129 461 168 476 269 c 2
 512 513 l 1
 689 513 l 1
 646 226 l 2
 621 54 524 -15 332 -15 c 0
 140 -15 64 54 89 226 c 2
 132 513 l 1
569 791 m 0
 620 791 655 750 647 699 c 0
 639 648 593 607 542 607 c 0
 491 607 455 648 463 699 c 0
 471 750 518 791 569 791 c 0
333 791 m 0
 384 791 419 750 411 699 c 0
 403 648 357 607 306 607 c 0
 255 607 219 648 227 699 c 0
 235 750 282 791 333 791 c 0
EndSplineSet
EndChar

StartChar: yacute
Encoding: 253 253 189
GlifName: yacute
Width: 751
Flags: W
HStem: -260 21G<66 283.376> 493 20G<114 325.909 570.757 787> 820 20G<577.977 616.87>
LayerCount: 2
Fore
SplineSet
583 513 m 1
 787 513 l 1
 270 -260 l 1
 66 -260 l 1
 293 80 l 1
 114 513 l 1
 318 513 l 1
 422 250 l 1
 583 513 l 1
375 664 m 1
 604 840 l 1
 678 725 l 1
 420 587 l 1
 375 664 l 1
EndSplineSet
EndChar

StartChar: thorn
Encoding: 254 254 190
GlifName: thorn
Width: 714
Flags: W
HStem: -260 21G<24 201.956> -15 151<308.908 447.839> 377 151<377.142 560>
LayerCount: 2
Fore
SplineSet
512 256 m 0
 522 327 477 377 410 377 c 0
 344 377 283 327 273 256 c 0
 263 186 305 136 374 136 c 0
 446 136 502 186 512 256 c 0
199 -260 m 1
 24 -260 l 1
 189 860 l 1
 366 860 l 1
 308 464 l 1
 356 505 416 528 485 528 c 0
 635 528 722 406 700 256 c 0
 678 106 555 -15 405 -15 c 0
 335 -15 278 16 246 58 c 1
 199 -260 l 1
EndSplineSet
EndChar

StartChar: ydieresis
Encoding: 255 255 191
GlifName: ydieresis
Width: 752
Flags: W
HStem: -260 21G<66 283.402> 493 20G<114 325.985 571.757 788> 607 184<311.29 407.303 549.29 645.303>
VStem: 267 184<649.329 746.79> 505 184<649.329 746.79>
LayerCount: 2
Fore
SplineSet
584 513 m 1
 788 513 l 1
 270 -260 l 1
 66 -260 l 1
 294 80 l 1
 114 513 l 1
 318 513 l 1
 423 250 l 1
 584 513 l 1
611 791 m 0
 662 791 697 750 689 699 c 0
 681 648 635 607 584 607 c 0
 533 607 497 648 505 699 c 0
 513 750 560 791 611 791 c 0
373 791 m 0
 424 791 459 750 451 699 c 0
 443 648 397 607 346 607 c 0
 295 607 259 648 267 699 c 0
 275 750 322 791 373 791 c 0
EndSplineSet
EndChar

StartChar: Amacron
Encoding: 256 256 192
GlifName: A_macron
Width: 918
Flags: W
HStem: 0 21G<39 251.182 672.394 879> 165 165<414 600> 805 20G<481.994 672.139> 946 120<408 799>
LayerCount: 2
Fore
SplineSet
408 1066 m 1
 816 1066 l 1
 799 946 l 1
 391 946 l 1
 408 1066 l 1
667 825 m 1
 879 0 l 1
 677 0 l 1
 639 165 l 1
 325 165 l 1
 241 0 l 1
 39 0 l 1
 493 825 l 1
 667 825 l 1
600 330 m 1
 541 570 l 1
 414 330 l 1
 600 330 l 1
EndSplineSet
EndChar

StartChar: amacron
Encoding: 257 257 193
GlifName: amacron
Width: 710
Flags: W
HStem: -15 151<227 404.195> 0 21G<474 651.952> 377 151<340.762 479.029> 634 120<273 664>
LayerCount: 2
Fore
SplineSet
276 256 m 0xb0
 266 186 306 136 378 136 c 0
 447 136 504 186 514 256 c 0
 524 327 480 377 414 377 c 0
 347 377 286 327 276 256 c 0xb0
716 454 m 2
 649 0 l 1
 474 0 l 1x70
 483 58 l 1
 439 16 372 -15 302 -15 c 0
 152 -15 66 106 88 256 c 0
 110 406 232 528 382 528 c 0
 451 528 729 541 716 454 c 2
273 754 m 1
 681 754 l 1
 664 634 l 1
 256 634 l 1
 273 754 l 1
EndSplineSet
EndChar

StartChar: Abreve
Encoding: 258 258 194
GlifName: A_breve
Width: 918
Flags: W
HStem: 0 21G<39 251.182 672.394 879> 165 165<414 600> 805 20G<481.994 672.139> 940 109<555.517 679.502>
LayerCount: 2
Fore
SplineSet
734 1152 m 1
 856 1121 l 1
 828 1014 727 940 598 940 c 0
 469 940 390 1014 394 1121 c 1
 524 1152 l 1
 524 1152 520 1049 614 1049 c 0
 708 1049 734 1152 734 1152 c 1
667 825 m 1
 879 0 l 1
 677 0 l 1
 639 165 l 1
 325 165 l 1
 241 0 l 1
 39 0 l 1
 493 825 l 1
 667 825 l 1
600 330 m 1
 541 570 l 1
 414 330 l 1
 600 330 l 1
EndSplineSet
EndChar

StartChar: abreve
Encoding: 259 259 195
GlifName: abreve
Width: 710
Flags: W
HStem: -15 151<227 404.195> 0 21G<474 651.952> 377 151<340.762 479.029> 628 109<416.623 540.608> 820 20G<301.484 403.282 572.505 674.065>
LayerCount: 2
Fore
SplineSet
276 256 m 0xb8
 266 186 306 136 378 136 c 0
 447 136 504 186 514 256 c 0
 524 327 480 377 414 377 c 0
 347 377 286 327 276 256 c 0xb8
716 454 m 2
 649 0 l 1
 474 0 l 1x78
 483 58 l 1
 439 16 372 -15 302 -15 c 0
 152 -15 66 106 88 256 c 0
 110 406 232 528 382 528 c 0
 451 528 729 541 716 454 c 2
596 840 m 1
 717 809 l 1
 689 702 588 628 459 628 c 0
 330 628 251 702 255 809 c 1
 386 840 l 1
 386 840 381 737 475 737 c 0
 569 737 596 840 596 840 c 1
EndSplineSet
EndChar

StartChar: Aogonek
Encoding: 260 260 196
GlifName: A_ogonek
Width: 918
Flags: W
HStem: -275 96<655.106 757.638> 0 21G<39 251.182> 165 165<414 600> 805 20G<481.994 672.139>
LayerCount: 2
Fore
SplineSet
600 330 m 1
 541 570 l 1
 414 330 l 1
 600 330 l 1
667 825 m 1
 879 0 l 1
 759 0 l 1
 759 0 689 -70 679 -140 c 0
 675 -165 694 -179 711 -179 c 0
 742 -179 766 -149 766 -149 c 1
 830 -203 l 1
 830 -203 774 -275 682 -275 c 0
 630 -275 561 -245 574 -158 c 0
 582 -101 642 -35 677 0 c 1
 639 165 l 1
 325 165 l 1
 241 0 l 1
 39 0 l 1
 493 825 l 1
 667 825 l 1
EndSplineSet
EndChar

StartChar: aogonek
Encoding: 261 261 197
GlifName: aogonek
Width: 713
Flags: W
HStem: -275 96<449.106 552.117> -15 151<228 405.195> 377 151<341.762 480.029>
LayerCount: 2
Fore
SplineSet
475 0 m 1
 484 58 l 1
 440 16 373 -15 303 -15 c 0
 153 -15 67 106 89 256 c 0
 111 406 233 528 383 528 c 0
 452 528 730 541 717 454 c 2
 650 0 l 1
 555 0 l 1
 555 0 483 -70 473 -140 c 0
 469 -165 488 -179 505 -179 c 0
 536 -179 561 -149 561 -149 c 1
 625 -203 l 1
 625 -203 568 -275 476 -275 c 0
 424 -275 355 -245 368 -158 c 0
 376 -101 440 -35 475 0 c 1
277 256 m 0
 267 186 307 136 379 136 c 0
 448 136 505 186 515 256 c 0
 525 327 481 377 415 377 c 0
 348 377 287 327 277 256 c 0
EndSplineSet
EndChar

StartChar: Cacute
Encoding: 262 262 198
GlifName: C_acute
Width: 778
Flags: W
HStem: -15 185<436.801 677.374> 655 185<499.55 773.574>
LayerCount: 2
Fore
SplineSet
736 25 m 1
 736 25 671 -15 492 -15 c 0
 259 -15 73 175 108 411 c 0
 143 648 384 840 618 840 c 0
 797 840 850 800 850 800 c 1
 783 615 l 1
 783 615 716 655 620 655 c 0
 431 655 328 523 312 413 c 0
 296 302 359 170 548 170 c 0
 644 170 723 210 723 210 c 1
 736 25 l 1
439 976 m 1
 668 1152 l 1
 742 1037 l 1
 484 899 l 1
 439 976 l 1
EndSplineSet
EndChar

StartChar: cacute
Encoding: 263 263 199
GlifName: cacute
Width: 553
Flags: W
HStem: -15 145<315.273 460.018> 383 145<346.429 510.214> 820 20G<517.977 556.87>
LayerCount: 2
Fore
SplineSet
510 31 m 1
 510 31 445 -15 331 -15 c 0
 183 -15 65 105 87 255 c 0
 109 406 262 528 411 528 c 0
 525 528 576 480 576 480 c 1
 498 359 l 1
 498 359 469 383 416 383 c 0
 349 383 285 327 275 257 c 0
 265 186 311 130 378 130 c 0
 431 130 468 154 468 154 c 1
 510 31 l 1
315 664 m 1
 544 840 l 1
 618 725 l 1
 360 587 l 1
 315 664 l 1
EndSplineSet
EndChar

StartChar: Ccircumflex
Encoding: 264 264 200
GlifName: C_circumflex
Width: 778
Flags: W
HStem: -15 185<436.801 677.374> 655 185<499.55 773.574>
LayerCount: 2
Fore
SplineSet
736 25 m 1
 736 25 671 -15 492 -15 c 0
 259 -15 73 175 108 411 c 0
 143 648 384 840 618 840 c 0
 797 840 850 800 850 800 c 1
 783 615 l 1
 783 615 716 655 620 655 c 0
 431 655 328 523 312 413 c 0
 296 302 359 170 548 170 c 0
 644 170 723 210 723 210 c 1
 736 25 l 1
368 976 m 1
 613 1138 l 1
 810 976 l 1
 729 885 l 1
 592 997 l 1
 423 885 l 1
 368 976 l 1
EndSplineSet
EndChar

StartChar: ccircumflex
Encoding: 265 265 201
GlifName: ccircumflex
Width: 553
Flags: W
HStem: -15 145<314.273 459.018> 383 145<345.429 509.214>
LayerCount: 2
Fore
SplineSet
509 31 m 1
 509 31 444 -15 330 -15 c 0
 182 -15 64 105 86 255 c 0
 108 406 261 528 410 528 c 0
 524 528 575 480 575 480 c 1
 497 359 l 1
 497 359 468 383 415 383 c 0
 348 383 284 327 274 257 c 0
 264 186 310 130 377 130 c 0
 430 130 467 154 467 154 c 1
 509 31 l 1
166 658 m 1
 411 820 l 1
 608 658 l 1
 527 567 l 1
 390 679 l 1
 221 567 l 1
 166 658 l 1
EndSplineSet
EndChar

StartChar: Cdotaccent
Encoding: 266 266 202
GlifName: C_dotaccent
Width: 778
Flags: W
HStem: -15 185<436.801 677.374> 655 185<499.55 773.574> 919 184<543.29 639.303>
VStem: 499 184<961.329 1058.79>
LayerCount: 2
Fore
SplineSet
736 25 m 1
 736 25 671 -15 492 -15 c 0
 259 -15 73 175 108 411 c 0
 143 648 384 840 618 840 c 0
 797 840 850 800 850 800 c 1
 783 615 l 1
 783 615 716 655 620 655 c 0
 431 655 328 523 312 413 c 0
 296 302 359 170 548 170 c 0
 644 170 723 210 723 210 c 1
 736 25 l 1
605 1103 m 0
 656 1103 691 1062 683 1011 c 0
 675 960 629 919 578 919 c 0
 527 919 491 960 499 1011 c 0
 507 1062 554 1103 605 1103 c 0
EndSplineSet
EndChar

StartChar: cdotaccent
Encoding: 267 267 203
GlifName: cdotaccent
Width: 550
Flags: W
HStem: -15 145<315.273 460.018> 383 145<346.429 510.214> 597 184<346.697 442.71>
VStem: 303 184<641.21 738.671>
LayerCount: 2
Fore
SplineSet
510 31 m 1
 510 31 445 -15 331 -15 c 0
 183 -15 65 105 87 255 c 0
 109 406 262 528 411 528 c 0
 525 528 576 480 576 480 c 1
 498 359 l 1
 498 359 469 383 416 383 c 0
 349 383 285 327 275 257 c 0
 265 186 311 130 378 130 c 0
 431 130 468 154 468 154 c 1
 510 31 l 1
408 781 m 0
 459 781 495 740 487 689 c 0
 479 638 432 597 381 597 c 0
 330 597 295 638 303 689 c 0
 311 740 357 781 408 781 c 0
EndSplineSet
EndChar

StartChar: Ccaron
Encoding: 268 268 204
GlifName: C_caron
Width: 778
Flags: W
HStem: -15 185<436.801 677.374> 655 185<499.55 773.574>
LayerCount: 2
Fore
SplineSet
736 25 m 1
 736 25 671 -15 492 -15 c 0
 259 -15 73 175 108 411 c 0
 143 648 384 840 618 840 c 0
 797 840 850 800 850 800 c 1
 783 615 l 1
 783 615 716 655 620 655 c 0
 431 655 328 523 312 413 c 0
 296 302 359 170 548 170 c 0
 644 170 723 210 723 210 c 1
 736 25 l 1
482 1152 m 1
 619 1040 l 1
 788 1152 l 1
 843 1061 l 1
 598 899 l 1
 401 1061 l 1
 482 1152 l 1
EndSplineSet
EndChar

StartChar: ccaron
Encoding: 269 269 205
GlifName: ccaron
Width: 552
Flags: W
HStem: -15 145<315.273 460.018> 383 145<346.429 510.214> 820 20G<238.198 280.464 531.821 574.088>
LayerCount: 2
Fore
SplineSet
510 31 m 1
 510 31 445 -15 331 -15 c 0
 183 -15 65 105 87 255 c 0
 109 406 262 528 411 528 c 0
 525 528 576 480 576 480 c 1
 498 359 l 1
 498 359 469 383 416 383 c 0
 349 383 285 327 275 257 c 0
 265 186 311 130 378 130 c 0
 431 130 468 154 468 154 c 1
 510 31 l 1
256 840 m 1
 393 728 l 1
 562 840 l 1
 617 749 l 1
 372 587 l 1
 175 749 l 1
 256 840 l 1
EndSplineSet
EndChar

StartChar: Dcaron
Encoding: 270 270 206
GlifName: D_caron
Width: 768
Flags: W
HStem: 0 168<274 410.581> 657 168<346 473.768>
LayerCount: 2
Fore
SplineSet
576 412 m 0
 597 556 549 657 346 657 c 1
 274 168 l 1
 477 168 555 268 576 412 c 0
183 825 m 1
 422 825 l 2
 648 825 812 653 777 413 c 0
 741 172 527 0 300 0 c 2
 61 0 l 1
 183 825 l 1
378 1152 m 1
 515 1040 l 1
 684 1152 l 1
 739 1061 l 1
 494 899 l 1
 297 1061 l 1
 378 1152 l 1
EndSplineSet
EndChar

StartChar: dcaron
Encoding: 271 271 207
GlifName: dcaron
Width: 916
Flags: W
HStem: -15 151<228 452.899> 0 21G<574 652.965> 377 151<341.249 514.829> 513 21G<795.774 854.5>
VStem: 574 76<0 47.2222>
LayerCount: 2
Fore
SplineSet
276 256 m 4xa8
 266 186 306 136 378 136 c 4
 438 136 491 174 509 231 c 5
 517 282 l 5
 514 339 472 377 414 377 c 4
 347 377 286 327 276 256 c 4xa8
776 850 m 5
 650 0 l 5
 574 0 l 5x68
 574 0 581 46 574 52 c 5
 517 13 433 -15 303 -15 c 4
 153 -15 66 106 88 256 c 4
 110 406 233 528 383 528 c 4
 413 528 484 530 552 526 c 5
 599 850 l 5
 776 850 l 5
905 824 m 0
 955 824 988 784 981 734 c 0
 967 641 890 565 819 513 c 1x18
 783 544 l 1
 783 544 837 589 859 654 c 1
 822 663 797 694 803 734 c 0
 810 784 857 824 905 824 c 0
EndSplineSet
EndChar

StartChar: Dcroat
Encoding: 272 272 208
GlifName: D_croat
Width: 833
Flags: W
HStem: 0 168<339 475.581> 657 168<411 538.768>
LayerCount: 2
Fore
SplineSet
641 412 m 0
 662 556 614 657 411 657 c 1
 386 489 l 1
 497 461 l 1
 484 372 l 1
 364 336 l 1
 339 168 l 1
 542 168 620 268 641 412 c 0
198 489 m 1
 248 825 l 1
 487 825 l 2
 713 825 877 653 842 413 c 0
 806 172 592 0 365 0 c 2
 126 0 l 1
 176 336 l 1
 99 372 l 1
 112 461 l 1
 198 489 l 1
EndSplineSet
EndChar

StartChar: dcroat
Encoding: 273 273 209
GlifName: dcroat
Width: 768
Flags: W
HStem: -15 151<228 452.899> 0 21G<574 652.962> 377 151<341.249 514.829> 628 114<458 567 760 817>
VStem: 574 76<0 47.2688>
LayerCount: 2
Fore
SplineSet
276 256 m 0xb8
 266 186 306 136 378 136 c 0
 438 136 491 174 509 231 c 1
 517 282 l 1
 514 339 472 377 414 377 c 0
 347 377 286 327 276 256 c 0xb8
583 742 m 1
 599 850 l 1
 776 850 l 1
 760 742 l 1
 834 742 l 1
 817 628 l 1
 743 628 l 1
 650 0 l 1
 574 0 l 1x78
 574 0 581 46 574 52 c 1
 517 13 433 -15 303 -15 c 0
 153 -15 66 106 88 256 c 0
 110 406 233 528 383 528 c 0
 413 528 484 530 552 526 c 1
 567 628 l 1
 441 628 l 1
 458 742 l 1
 583 742 l 1
EndSplineSet
EndChar

StartChar: Emacron
Encoding: 274 274 210
GlifName: E_macron
Width: 588
Flags: W
HStem: 0 165<273 533> 331 165<322 570> 660 165<346 630> 946 120<244 635>
LayerCount: 2
Fore
SplineSet
655 825 m 1
 630 660 l 1
 346 660 l 1
 322 496 l 1
 594 496 l 1
 570 331 l 1
 298 331 l 1
 273 165 l 1
 557 165 l 1
 533 0 l 1
 61 0 l 1
 183 825 l 1
 655 825 l 1
244 1066 m 1
 652 1066 l 1
 635 946 l 1
 227 946 l 1
 244 1066 l 1
EndSplineSet
EndChar

StartChar: emacron
Encoding: 275 275 211
GlifName: emacron
Width: 656
Flags: W
HStem: -15 21G<251.5 386> 227 90<284 480> 413 115<334.902 451.575> 634 120<234 625>
LayerCount: 2
Fore
SplineSet
284 317 m 1
 480 317 l 1
 480 371 448 413 396 413 c 0
 335 413 294 364 284 317 c 1
495 173 m 1
 615 119 l 1
 543 22 443 -15 329 -15 c 0
 174 -15 65 107 87 256 c 0
 109 406 254 528 409 528 c 0
 565 528 667 418 639 227 c 1
 267 227 l 1
 254 141 365 60 495 173 c 1
234 754 m 1
 642 754 l 1
 625 634 l 1
 217 634 l 1
 234 754 l 1
EndSplineSet
EndChar

StartChar: Ebreve
Encoding: 276 276 212
GlifName: E_breve
Width: 588
Flags: W
HStem: 0 165<273 533> 331 165<322 570> 660 165<346 630> 913 109<395.394 519.335>
LayerCount: 2
Fore
SplineSet
655 825 m 1
 630 660 l 1
 346 660 l 1
 322 496 l 1
 594 496 l 1
 570 331 l 1
 298 331 l 1
 273 165 l 1
 557 165 l 1
 533 0 l 1
 61 0 l 1
 183 825 l 1
 655 825 l 1
573 1125 m 1
 695 1094 l 1
 667 987 567 913 438 913 c 0
 309 913 229 987 233 1094 c 1
 363 1125 l 1
 363 1125 360 1022 454 1022 c 0
 548 1022 573 1125 573 1125 c 1
EndSplineSet
EndChar

StartChar: ebreve
Encoding: 277 277 213
GlifName: ebreve
Width: 655
Flags: W
HStem: -15 21G<251.5 386> 227 90<284 480> 413 115<334.902 451.575> 595 109<376.394 500.335>
LayerCount: 2
Fore
SplineSet
284 317 m 1
 480 317 l 1
 480 371 448 413 396 413 c 0
 335 413 294 364 284 317 c 1
495 173 m 1
 615 119 l 1
 543 22 443 -15 329 -15 c 0
 174 -15 65 107 87 256 c 0
 109 406 254 528 409 528 c 0
 565 528 667 418 639 227 c 1
 267 227 l 1
 254 141 365 60 495 173 c 1
554 807 m 1
 676 776 l 1
 648 669 548 595 419 595 c 0
 290 595 210 669 214 776 c 1
 344 807 l 1
 344 807 341 704 435 704 c 0
 529 704 554 807 554 807 c 1
EndSplineSet
EndChar

StartChar: Edotaccent
Encoding: 278 278 214
GlifName: E_dotaccent
Width: 588
Flags: W
HStem: 0 165<273 533> 331 165<322 570> 660 165<346 630> 919 184<392.29 488.303>
VStem: 348 184<961.329 1058.79>
LayerCount: 2
Fore
SplineSet
655 825 m 1
 630 660 l 1
 346 660 l 1
 322 496 l 1
 594 496 l 1
 570 331 l 1
 298 331 l 1
 273 165 l 1
 557 165 l 1
 533 0 l 1
 61 0 l 1
 183 825 l 1
 655 825 l 1
454 1103 m 0
 505 1103 540 1062 532 1011 c 0
 524 960 478 919 427 919 c 0
 376 919 340 960 348 1011 c 0
 356 1062 403 1103 454 1103 c 0
EndSplineSet
EndChar

StartChar: edotaccent
Encoding: 279 279 215
GlifName: edotaccent
Width: 656
Flags: W
HStem: -15 21G<251.5 386> 227 90<284 480> 413 115<334.902 451.575> 607 184<382.29 478.303>
VStem: 338 184<649.329 746.79>
LayerCount: 2
Fore
SplineSet
284 317 m 1
 480 317 l 1
 480 371 448 413 396 413 c 0
 335 413 294 364 284 317 c 1
495 173 m 1
 615 119 l 1
 543 22 443 -15 329 -15 c 0
 174 -15 65 107 87 256 c 0
 109 406 254 528 409 528 c 0
 565 528 667 418 639 227 c 1
 267 227 l 1
 254 141 365 60 495 173 c 1
444 791 m 0
 495 791 530 750 522 699 c 0
 514 648 468 607 417 607 c 0
 366 607 330 648 338 699 c 0
 346 750 393 791 444 791 c 0
EndSplineSet
EndChar

StartChar: Eogonek
Encoding: 280 280 216
GlifName: E_ogonek
Width: 588
Flags: W
HStem: -275 96<332.106 434.638> 0 165<273 354 416.466 533> 331 165<322 570> 660 165<346 630>
LayerCount: 2
Fore
SplineSet
655 825 m 1
 630 660 l 1
 346 660 l 1
 322 496 l 1
 594 496 l 1
 570 331 l 1
 298 331 l 1
 273 165 l 1
 557 165 l 1
 533 0 l 1
 436 0 l 1
 436 0 366 -70 356 -140 c 0
 352 -165 371 -179 388 -179 c 0
 419 -179 443 -149 443 -149 c 1
 507 -203 l 1
 507 -203 451 -275 359 -275 c 0
 307 -275 238 -245 251 -158 c 0
 259 -103 319 -36 354 0 c 1
 61 0 l 1
 183 825 l 1
 655 825 l 1
EndSplineSet
EndChar

StartChar: eogonek
Encoding: 281 281 217
GlifName: eogonek
Width: 658
Flags: W
HStem: -275 96<342.106 444.638> 227 90<285 481> 413 115<335.902 452.575>
LayerCount: 2
Fore
SplineSet
446 0 m 1
 446 0 376 -70 366 -140 c 0
 362 -165 381 -179 398 -179 c 0
 429 -179 453 -149 453 -149 c 1
 517 -203 l 1
 517 -203 461 -275 369 -275 c 0
 317 -275 248 -245 261 -158 c 0
 268 -110 314 -53 350 -15 c 1
 330 -15 l 2
 175 -15 66 107 88 256 c 0
 110 406 255 528 410 528 c 0
 566 528 668 418 640 227 c 1
 268 227 l 1
 255 141 366 60 496 173 c 1
 616 119 l 1
 570 57 511 19 446 0 c 1
285 317 m 1
 481 317 l 1
 481 371 449 413 397 413 c 0
 336 413 295 364 285 317 c 1
EndSplineSet
EndChar

StartChar: Ecaron
Encoding: 282 282 218
GlifName: E_caron
Width: 587
Flags: W
HStem: 0 165<273 533> 331 165<322 570> 660 165<346 630>
LayerCount: 2
Fore
SplineSet
655 825 m 1
 630 660 l 1
 346 660 l 1
 322 496 l 1
 594 496 l 1
 570 331 l 1
 298 331 l 1
 273 165 l 1
 557 165 l 1
 533 0 l 1
 61 0 l 1
 183 825 l 1
 655 825 l 1
308 1152 m 1
 445 1040 l 1
 614 1152 l 1
 669 1061 l 1
 424 899 l 1
 227 1061 l 1
 308 1152 l 1
EndSplineSet
EndChar

StartChar: ecaron
Encoding: 283 283 219
GlifName: ecaron
Width: 655
Flags: W
HStem: -15 21G<251.5 386> 227 90<284 480> 413 115<334.902 451.575> 820 20G<279.198 321.464 572.821 615.088>
LayerCount: 2
Fore
SplineSet
284 317 m 1
 480 317 l 1
 480 371 448 413 396 413 c 0
 335 413 294 364 284 317 c 1
495 173 m 1
 615 119 l 1
 543 22 443 -15 329 -15 c 0
 174 -15 65 107 87 256 c 0
 109 406 254 528 409 528 c 0
 565 528 667 418 639 227 c 1
 267 227 l 1
 254 141 365 60 495 173 c 1
297 840 m 1
 434 728 l 1
 603 840 l 1
 658 749 l 1
 413 587 l 1
 216 749 l 1
 297 840 l 1
EndSplineSet
EndChar

StartChar: Gcircumflex
Encoding: 284 284 220
GlifName: G_circumflex
Width: 891
Flags: W
HStem: -15 173<405.229 577.026> 0 21G<775.882 832.944> 317 145<516 686> 670 170<475.883 650.174>
LayerCount: 2
Fore
SplineSet
898 462 m 1xb0
 830 0 l 1x70
 738 34 l 1
 752 94 l 1
 672 18 567 -15 447 -15 c 0
 225 -15 73 176 108 412 c 0
 143 649 341 840 573 840 c 0
 718 840 811 786 870 699 c 1
 727 564 l 1
 690 641 632 670 559 670 c 0
 443 670 332 555 311 412 c 0
 290 272 367 158 483 158 c 0
 573 158 671 216 686 317 c 1
 516 317 l 1
 503 462 l 1
 898 462 l 1xb0
364 974 m 1
 609 1136 l 1
 806 974 l 1
 724 883 l 1
 588 995 l 1
 418 883 l 1
 364 974 l 1
EndSplineSet
EndChar

StartChar: gcircumflex
Encoding: 285 285 221
GlifName: gcircumflex
Width: 707
Flags: W
HStem: -275 154<240.491 406.881> -15 151<227 431.399> 377 151<340.249 515.84>
LayerCount: 2
Fore
SplineSet
687 256 m 2
 647 -14 l 2
 622 -186 481 -275 306 -275 c 0
 199 -275 80 -251 44 -126 c 1
 200 -55 l 1
 214 -86 252 -121 329 -121 c 0
 378 -121 459 -92 472 -1 c 2
 477 37 l 1
 433 -5 372 -15 302 -15 c 0
 152 -15 65 106 87 256 c 0
 109 406 232 528 382 528 c 0
 674 528 727 528 687 256 c 2
275 256 m 0
 265 186 305 136 377 136 c 0
 446 136 504 186 514 256 c 2
 523 318 l 2
 529 365 519 377 413 377 c 0
 346 377 285 327 275 256 c 0
265 688 m 1
 509 850 l 1
 707 688 l 1
 625 597 l 1
 488 709 l 1
 319 597 l 1
 265 688 l 1
EndSplineSet
EndChar

StartChar: Gbreve
Encoding: 286 286 222
GlifName: G_breve
Width: 891
Flags: W
HStem: -15 173<405.229 577.026> 0 21G<775.882 832.944> 317 145<516 686> 670 170<475.883 650.174> 911 109<543.623 667.608>
LayerCount: 2
Fore
SplineSet
898 462 m 1xb8
 830 0 l 1x78
 738 34 l 1
 752 94 l 1
 672 18 567 -15 447 -15 c 0
 225 -15 73 176 108 412 c 0
 143 649 341 840 573 840 c 0
 718 840 811 786 870 699 c 1
 727 564 l 1
 690 641 632 670 559 670 c 0
 443 670 332 555 311 412 c 0
 290 272 367 158 483 158 c 0
 573 158 671 216 686 317 c 1
 516 317 l 1
 503 462 l 1
 898 462 l 1xb8
723 1123 m 1
 844 1092 l 1
 816 985 715 911 586 911 c 0
 457 911 378 985 382 1092 c 1
 513 1123 l 1
 513 1123 508 1020 602 1020 c 0
 696 1020 723 1123 723 1123 c 1
EndSplineSet
EndChar

StartChar: gbreve
Encoding: 287 287 223
GlifName: gbreve
Width: 709
Flags: W
HStem: -275 154<243.274 407.149> -15 151<228 431.996> 377 151<340.737 516.34> 598 109<398.5 522.441>
LayerCount: 2
Fore
SplineSet
688 256 m 2
 648 -14 l 2
 623 -186 481 -275 306 -275 c 0
 199 -275 80 -251 44 -126 c 1
 201 -55 l 1
 215 -86 252 -121 329 -121 c 0
 378 -121 460 -92 473 -1 c 2
 478 37 l 1
 434 -5 373 -15 303 -15 c 0
 153 -15 65 106 87 256 c 0
 109 406 233 528 383 528 c 0
 675 528 728 528 688 256 c 2
275 256 m 0
 265 186 305 136 377 136 c 0
 446 136 505 186 515 256 c 0
 516 264 522 311 523 318 c 0
 529 365 519 377 413 377 c 0
 346 377 285 327 275 256 c 0
577 810 m 1
 698 779 l 1
 670 672 570 598 441 598 c 0
 312 598 232 672 236 779 c 1
 367 810 l 1
 367 810 363 707 457 707 c 0
 551 707 577 810 577 810 c 1
EndSplineSet
EndChar

StartChar: Gdotaccent
Encoding: 288 288 224
GlifName: G_dotaccent
Width: 891
Flags: W
HStem: -15 173<405.229 577.026> 0 21G<775.882 832.944> 317 145<516 686> 670 170<475.883 650.174> 919 184<548.29 644.303>
VStem: 504 184<961.329 1058.79>
LayerCount: 2
Fore
SplineSet
898 462 m 1xbc
 830 0 l 1x7c
 738 34 l 1
 752 94 l 1
 672 18 567 -15 447 -15 c 0
 225 -15 73 176 108 412 c 0
 143 649 341 840 573 840 c 0
 718 840 811 786 870 699 c 1
 727 564 l 1
 690 641 632 670 559 670 c 0
 443 670 332 555 311 412 c 0
 290 272 367 158 483 158 c 0
 573 158 671 216 686 317 c 1
 516 317 l 1
 503 462 l 1
 898 462 l 1xbc
610 1103 m 0
 661 1103 696 1062 688 1011 c 0
 680 960 634 919 583 919 c 0
 532 919 496 960 504 1011 c 0
 512 1062 559 1103 610 1103 c 0
EndSplineSet
EndChar

StartChar: gdotaccent
Encoding: 289 289 225
GlifName: gdotaccent
Width: 710
Flags: W
HStem: -275 154<244.274 408.149> -15 151<229 432.996> 377 151<341.737 517.34> 600 184<411.29 507.303>
VStem: 367 184<642.329 739.79>
LayerCount: 2
Fore
SplineSet
689 256 m 2
 649 -14 l 2
 624 -186 482 -275 307 -275 c 0
 200 -275 81 -251 45 -126 c 1
 202 -55 l 1
 216 -86 253 -121 330 -121 c 0
 379 -121 461 -92 474 -1 c 2
 479 37 l 1
 435 -5 374 -15 304 -15 c 0
 154 -15 66 106 88 256 c 0
 110 406 234 528 384 528 c 0
 676 528 729 528 689 256 c 2
276 256 m 0
 266 186 306 136 378 136 c 0
 447 136 506 186 516 256 c 0
 517 264 523 311 524 318 c 0
 530 365 520 377 414 377 c 0
 347 377 286 327 276 256 c 0
473 784 m 0
 524 784 559 743 551 692 c 0
 543 641 497 600 446 600 c 0
 395 600 359 641 367 692 c 0
 375 743 422 784 473 784 c 0
EndSplineSet
EndChar

StartChar: uni0122
Encoding: 290 290 226
GlifName: uni0122
Width: 891
Flags: W
HStem: -15 173<405.229 577.026> 0 21G<775.882 832.944> 317 145<516 686> 670 170<475.883 650.174>
LayerCount: 2
Fore
SplineSet
898 462 m 1xb0
 830 0 l 1x70
 738 34 l 1
 752 94 l 1
 672 18 567 -15 447 -15 c 0
 225 -15 73 176 108 412 c 0
 143 649 341 840 573 840 c 0
 718 840 811 786 870 699 c 1
 727 564 l 1
 690 641 632 670 559 670 c 0
 443 670 332 555 311 412 c 0
 290 272 367 158 483 158 c 0
 573 158 671 216 686 317 c 1
 516 317 l 1
 503 462 l 1
 898 462 l 1xb0
443 -40 m 0
 493 -40 527 -80 520 -130 c 0
 506 -223 428 -299 357 -351 c 1
 322 -320 l 1
 322 -320 375 -275 397 -210 c 1
 360 -201 336 -170 342 -130 c 0
 349 -80 395 -40 443 -40 c 0
EndSplineSet
EndChar

StartChar: uni0123
Encoding: 291 291 227
GlifName: uni0123
Width: 709
Flags: W
HStem: -275 154<243.274 407.149> -15 151<228 431.996> 377 151<340.737 516.34>
LayerCount: 2
Fore
SplineSet
688 256 m 2
 648 -14 l 2
 623 -186 481 -275 306 -275 c 0
 199 -275 80 -251 44 -126 c 1
 201 -55 l 1
 215 -86 252 -121 329 -121 c 0
 378 -121 460 -92 473 -1 c 2
 478 37 l 1
 434 -5 373 -15 303 -15 c 0
 153 -15 65 106 87 256 c 0
 109 406 233 528 383 528 c 0
 675 528 728 528 688 256 c 2
275 256 m 0
 265 186 305 136 377 136 c 0
 446 136 505 186 515 256 c 0
 516 264 522 311 523 318 c 0
 529 365 519 377 413 377 c 0
 346 377 285 327 275 256 c 0
459 607 m 0
 409 607 375 647 382 697 c 0
 396 790 474 866 545 918 c 1
 580 887 l 1
 580 887 526 842 504 777 c 1
 541 768 566 737 560 697 c 0
 553 647 507 607 459 607 c 0
EndSplineSet
EndChar

StartChar: Hcircumflex
Encoding: 292 292 228
GlifName: H_circumflex
Width: 767
Flags: W
HStem: 0 21G<61 251.961 515 705.958> 331 165<322 564> 805 20G<180.042 371 634.021 825>
LayerCount: 2
Fore
SplineSet
298 331 m 1
 249 0 l 1
 61 0 l 1
 183 825 l 1
 371 825 l 1
 322 496 l 1
 588 496 l 1
 637 825 l 1
 825 825 l 1
 703 0 l 1
 515 0 l 1
 564 331 l 1
 298 331 l 1
308 976 m 1
 554 1138 l 1
 750 976 l 1
 669 885 l 1
 533 997 l 1
 363 885 l 1
 308 976 l 1
EndSplineSet
EndChar

StartChar: hcircumflex
Encoding: 293 293 229
GlifName: hcircumflex
Width: 672
Flags: W
HStem: 0 21G<61 240.966 435 614.959> 390 138<377.573 512>
LayerCount: 2
Fore
SplineSet
365 860 m 1
 306 459 l 1
 352 499 409 528 465 528 c 0
 559 528 683 481 662 338 c 2
 612 0 l 1
 435 0 l 1
 478 290 l 2
 486 341 458 390 401 390 c 0
 348 390 289 341 281 290 c 2
 238 0 l 1
 61 0 l 1
 188 860 l 1
 365 860 l 1
261 1018 m 1
 507 1180 l 1
 703 1018 l 1
 622 927 l 1
 486 1039 l 1
 316 927 l 1
 261 1018 l 1
EndSplineSet
EndChar

StartChar: Hbar
Encoding: 294 294 230
GlifName: H_bar
Width: 947
Flags: W
HStem: 0 21G<159 349.968 613 803.952> 310 165<417 659> 542 177<147 239 453 693 907 981> 805 20G<277.981 469 731.981 923>
LayerCount: 2
Fore
SplineSet
393 310 m 1
 347 0 l 1
 159 0 l 1
 239 542 l 1
 121 542 l 1
 147 719 l 1
 265 719 l 1
 281 825 l 1
 469 825 l 1
 453 719 l 1
 719 719 l 1
 735 825 l 1
 923 825 l 1
 907 719 l 1
 1007 719 l 1
 981 542 l 1
 881 542 l 1
 801 0 l 1
 613 0 l 1
 659 310 l 1
 393 310 l 1
427 542 m 1
 417 475 l 1
 683 475 l 1
 693 542 l 1
 427 542 l 1
EndSplineSet
EndChar

StartChar: hbar
Encoding: 295 295 231
GlifName: hbar
Width: 765
Flags: W
HStem: 0 21G<155 334.966 529 708.959> 390 138<471.573 606> 608 139<151 245 442 732>
LayerCount: 2
Fore
SplineSet
422 608 m 1
 400 459 l 1
 446 499 503 528 559 528 c 0
 653 528 777 481 756 338 c 2
 706 0 l 1
 529 0 l 1
 572 290 l 2
 580 341 552 390 495 390 c 0
 442 390 383 341 375 290 c 2
 332 0 l 1
 155 0 l 1
 245 608 l 1
 131 608 l 1
 151 747 l 1
 265 747 l 1
 282 860 l 1
 459 860 l 1
 442 747 l 1
 752 747 l 1
 732 608 l 1
 422 608 l 1
EndSplineSet
EndChar

StartChar: Itilde
Encoding: 296 296 232
GlifName: I_tilde
Width: 531
Flags: W
HStem: 0 21G<170 360.958> 805 20G<289.042 480> 885 126<417.11 535.036> 931 126<281.702 408.116>
LayerCount: 2
Fore
SplineSet
317 931 m 0xd0
 285 931 266 885 266 885 c 1
 165 885 l 1xe0
 165 885 216 1057 326 1057 c 0xd0
 365 1057 458 1011 499 1011 c 0xe0
 531 1011 551 1057 551 1057 c 1
 652 1057 l 1xd0
 652 1057 601 885 491 885 c 0xe0
 452 885 381 931 317 931 c 0xd0
480 825 m 1
 358 0 l 1
 170 0 l 1
 292 825 l 1
 480 825 l 1
EndSplineSet
EndChar

StartChar: itilde
Encoding: 297 297 233
GlifName: itilde
Width: 539
Flags: W
HStem: 0 21G<180 359.963> 493 20G<253.037 433> 578 126<374.849 492.563> 624 126<239.437 365.889>
LayerCount: 2
Fore
SplineSet
275 624 m 0xd0
 243 624 223 578 223 578 c 1
 122 578 l 1xe0
 122 578 174 750 284 750 c 0xd0
 323 750 416 704 457 704 c 0xe0
 489 704 509 750 509 750 c 1
 610 750 l 1xd0
 610 750 558 578 448 578 c 0xe0
 409 578 339 624 275 624 c 0xd0
256 513 m 1
 433 513 l 1
 357 0 l 1
 180 0 l 1
 256 513 l 1
EndSplineSet
EndChar

StartChar: Imacron
Encoding: 298 298 234
GlifName: I_macron
Width: 478
Flags: W
HStem: 0 21G<144 334.958> 805 20G<263.042 454> 946 120<191 582>
LayerCount: 2
Fore
SplineSet
454 825 m 1
 332 0 l 1
 144 0 l 1
 266 825 l 1
 454 825 l 1
191 1066 m 1
 599 1066 l 1
 582 946 l 1
 174 946 l 1
 191 1066 l 1
EndSplineSet
EndChar

StartChar: imacron
Encoding: 299 299 235
GlifName: imacron
Width: 495
Flags: W
HStem: 0 21G<157 336.963> 493 20G<230.037 410> 634 120<152 543>
LayerCount: 2
Fore
SplineSet
233 513 m 1
 410 513 l 1
 334 0 l 1
 157 0 l 1
 233 513 l 1
152 754 m 1
 560 754 l 1
 543 634 l 1
 135 634 l 1
 152 754 l 1
EndSplineSet
EndChar

StartChar: Ibreve
Encoding: 300 300 236
GlifName: I_breve
Width: 531
Flags: W
HStem: 0 21G<167 357.958> 805 20G<286.042 477> 919 109<358.5 482.441>
LayerCount: 2
Fore
SplineSet
477 825 m 1
 355 0 l 1
 167 0 l 1
 289 825 l 1
 477 825 l 1
537 1131 m 1
 658 1100 l 1
 630 993 530 919 401 919 c 0
 272 919 192 993 196 1100 c 1
 327 1131 l 1
 327 1131 323 1028 417 1028 c 0
 511 1028 537 1131 537 1131 c 1
EndSplineSet
EndChar

StartChar: ibreve
Encoding: 301 301 237
GlifName: ibreve
Width: 540
Flags: W
HStem: 0 21G<176 355.963> 493 20G<249.037 429> 604 109<316.394 440.335>
LayerCount: 2
Fore
SplineSet
252 513 m 1
 429 513 l 1
 353 0 l 1
 176 0 l 1
 252 513 l 1
494 816 m 1
 616 785 l 1
 588 678 488 604 359 604 c 0
 230 604 150 678 154 785 c 1
 284 816 l 1
 284 816 281 713 375 713 c 0
 469 713 494 816 494 816 c 1
EndSplineSet
EndChar

StartChar: Iogonek
Encoding: 302 302 238
GlifName: I_ogonek
Width: 340
Flags: W
HStem: -275 96<98.1062 201.117> 805 20G<187.042 378>
LayerCount: 2
Fore
SplineSet
378 825 m 1
 256 0 l 1
 202 0 l 1
 202 0 132 -70 122 -140 c 0
 118 -165 137 -179 154 -179 c 0
 185 -179 210 -149 210 -149 c 1
 274 -203 l 1
 274 -203 217 -275 125 -275 c 0
 73 -275 4 -245 17 -158 c 0
 25 -103 85 -36 120 0 c 1
 68 0 l 1
 190 825 l 1
 378 825 l 1
EndSplineSet
EndChar

StartChar: iogonek
Encoding: 303 303 239
GlifName: iogonek
Width: 337
Flags: W
HStem: -275 96<97.1062 199.638> 493 20G<143.037 323> 620 210<218.042 318.597>
LayerCount: 2
Fore
SplineSet
16 -158 m 0
 24 -101 84 -35 119 0 c 1
 70 0 l 1
 146 513 l 1
 323 513 l 1
 247 0 l 1
 201 0 l 1
 201 0 131 -70 121 -140 c 0
 117 -165 136 -179 153 -179 c 0
 184 -179 208 -149 208 -149 c 1
 272 -203 l 1
 272 -203 216 -275 124 -275 c 0
 72 -275 3 -245 16 -158 c 0
284 830 m 0
 342 830 382 783 373 725 c 0
 364 667 311 620 253 620 c 0
 195 620 154 667 163 725 c 0
 172 783 226 830 284 830 c 0
EndSplineSet
EndChar

StartChar: Idotaccent
Encoding: 304 304 240
GlifName: I_dotaccent
Width: 313
Flags: W
HStem: 0 21G<61 251.958> 805 20G<180.042 371> 905 210<254.403 354.958>
LayerCount: 2
Fore
SplineSet
371 825 m 1
 249 0 l 1
 61 0 l 1
 183 825 l 1
 371 825 l 1
320 1115 m 0
 378 1115 419 1068 410 1010 c 0
 401 952 347 905 289 905 c 0
 231 905 191 952 200 1010 c 0
 209 1068 262 1115 320 1115 c 0
EndSplineSet
EndChar

StartChar: dotlessi
Encoding: 305 305 241
GlifName: dotlessi
Width: 301
Flags: W
HStem: 0 21G<60 239.963> 493 20G<133.037 313>
VStem: 60 253
LayerCount: 2
Fore
SplineSet
60 0 m 1
 136 513 l 1
 313 513 l 1
 237 0 l 1
 60 0 l 1
EndSplineSet
EndChar

StartChar: IJ
Encoding: 306 306 242
GlifName: I_J_
Width: 769
Flags: W
HStem: -15 180<391.04 513.999> 805 20G<181.048 372 638.022 829>
LayerCount: 2
Fore
SplineSet
829 825 m 1
 741 233 l 2
 717 71 613 -15 448 -15 c 0
 330 -15 266 64 266 64 c 1
 350 221 l 1
 350 221 400 165 448 165 c 0
 502 165 548 198 560 281 c 2
 641 825 l 1
 829 825 l 1
372 825 m 1
 248 -15 l 1
 60 -15 l 1
 184 825 l 1
 372 825 l 1
EndSplineSet
EndChar

StartChar: ij
Encoding: 307 307 243
GlifName: ij
Width: 593
Flags: W
HStem: 0 21G<64 243.963> 493 20G<137.037 317 423.049 603> 620 210<212.681 313.236 494.681 595.236>
LayerCount: 2
Fore
SplineSet
426 513 m 1
 603 513 l 1
 541 92 l 2
 520 -47 428 -148 298 -148 c 0
 267 -148 231 -23 261 -12 c 0
 300 3 350 0 363 86 c 2
 426 513 l 1
561 830 m 0
 619 830 658 783 649 725 c 0
 640 667 588 620 530 620 c 0
 472 620 430 667 439 725 c 0
 448 783 503 830 561 830 c 0
317 513 m 1
 241 0 l 1
 64 0 l 1
 140 513 l 1
 317 513 l 1
157 725 m 0
 166 783 221 830 279 830 c 0
 337 830 376 783 367 725 c 0
 358 667 306 620 248 620 c 0
 190 620 148 667 157 725 c 0
EndSplineSet
EndChar

StartChar: Jcircumflex
Encoding: 308 308 244
GlifName: J_circumflex
Width: 650
Flags: W
HStem: -15 180<174.04 296.999> 805 20G<421.022 612>
LayerCount: 2
Fore
SplineSet
612 825 m 1
 524 233 l 2
 500 71 396 -15 231 -15 c 0
 113 -15 49 64 49 64 c 1
 133 221 l 1
 133 221 183 165 231 165 c 0
 285 165 331 198 343 281 c 2
 424 825 l 1
 612 825 l 1
317 975 m 1
 562 1137 l 1
 759 975 l 1
 678 884 l 1
 541 996 l 1
 372 884 l 1
 317 975 l 1
EndSplineSet
EndChar

StartChar: jcircumflex
Encoding: 309 309 245
GlifName: jcircumflex
Width: 516
Flags: W
HStem: 493 20G<240.049 420> 815 20G<348.877 403.444>
LayerCount: 2
Fore
SplineSet
243 513 m 1
 420 513 l 1
 358 92 l 2
 337 -47 246 -148 116 -148 c 0
 85 -148 48 -23 78 -12 c 0
 117 3 167 0 180 86 c 2
 243 513 l 1
135 673 m 1
 379 835 l 1
 577 673 l 1
 496 582 l 1
 358 694 l 1
 190 582 l 1
 135 673 l 1
EndSplineSet
EndChar

StartChar: uni0136
Encoding: 310 310 246
GlifName: uni0136
Width: 850
Flags: W
HStem: 0 21G<62 252.971 539.6 813> 805 20G<181.042 372 635.237 883>
LayerCount: 2
Fore
SplineSet
388 -40 m 0
 438 -40 472 -80 465 -130 c 0
 451 -223 373 -299 302 -351 c 1
 267 -320 l 1
 267 -320 320 -275 342 -210 c 1
 305 -201 281 -170 287 -130 c 0
 294 -80 340 -40 388 -40 c 0
813 0 m 1
 554 0 l 1
 302 350 l 1
 250 0 l 1
 62 0 l 1
 184 825 l 1
 372 825 l 1
 322 488 l 1
 655 825 l 1
 883 825 l 1
 493 434 l 1
 813 0 l 1
EndSplineSet
EndChar

StartChar: uni0137
Encoding: 311 311 247
GlifName: uni0137
Width: 709
Flags: W
HStem: 0 21G<62 241.927 426.927 672> 493 20G<470.983 724>
LayerCount: 2
Fore
SplineSet
318 -40 m 0
 368 -40 402 -80 395 -130 c 0
 381 -223 303 -299 232 -351 c 1
 197 -320 l 1
 197 -320 250 -275 272 -210 c 1
 235 -201 211 -170 217 -130 c 0
 224 -80 270 -40 318 -40 c 0
724 513 m 1
 444 268 l 1
 672 0 l 1
 444 0 l 1
 269 205 l 1
 239 0 l 1
 62 0 l 1
 189 860 l 1
 366 860 l 1
 288 334 l 1
 494 513 l 1
 724 513 l 1
EndSplineSet
EndChar

StartChar: kgreenlandic
Encoding: 312 312 248
GlifName: kgreenlandic
Width: 697
Flags: W
LayerCount: 2
Fore
SplineSet
660 2 m 1
 453 2 l 1
 252 282 l 1
 210 2 l 1
 60 2 l 1
 158 662 l 1
 308 662 l 1
 268 392 l 1
 534 662 l 1
 717 662 l 1
 405 349 l 1
 660 2 l 1
EndSplineSet
EndChar

StartChar: Lacute
Encoding: 313 313 249
GlifName: L_acute
Width: 581
Flags: W
HStem: 0 165<273 533> 805 20G<180.042 371>
LayerCount: 2
Fore
SplineSet
371 825 m 1
 273 165 l 1
 557 165 l 1
 533 0 l 1
 61 0 l 1
 183 825 l 1
 371 825 l 1
281 976 m 1
 509 1152 l 1
 584 1037 l 1
 326 899 l 1
 281 976 l 1
EndSplineSet
EndChar

StartChar: lacute
Encoding: 314 314 250
GlifName: lacute
Width: 386
Flags: W
HStem: 0 21G<198 278.5> 805 20G<177.1 356>
LayerCount: 2
Fore
SplineSet
263 0 m 0
 133 0 72 86 93 225 c 2
 180 825 l 1
 356 825 l 1
 273 234 l 2
 263 169 334 164 345 163 c 0
 375 161 294 0 263 0 c 0
206 1011 m 1
 435 1187 l 1
 509 1072 l 1
 251 934 l 1
 206 1011 l 1
EndSplineSet
EndChar

StartChar: uni013B
Encoding: 315 315 251
GlifName: uni013B_
Width: 581
Flags: W
HStem: 0 165<273 533> 805 20G<180.042 371>
LayerCount: 2
Fore
SplineSet
275 -40 m 0
 325 -40 359 -80 352 -130 c 0
 338 -223 260 -299 189 -351 c 1
 154 -320 l 1
 154 -320 208 -275 230 -210 c 1
 193 -201 168 -170 174 -130 c 0
 181 -80 227 -40 275 -40 c 0
371 825 m 1
 273 165 l 1
 557 165 l 1
 533 0 l 1
 61 0 l 1
 183 825 l 1
 371 825 l 1
EndSplineSet
EndChar

StartChar: uni013C
Encoding: 316 316 252
GlifName: uni013C_
Width: 371
Flags: W
HStem: 0 21G<198 278.5> 805 20G<177.1 356>
VStem: 29 327
LayerCount: 2
Fore
SplineSet
263 0 m 0
 133 0 72 86 93 225 c 2
 180 825 l 1
 356 825 l 1
 273 234 l 2
 263 169 334 164 345 163 c 0
 375 161 294 0 263 0 c 0
150 -40 m 0
 200 -40 234 -80 227 -130 c 0
 213 -223 135 -299 64 -351 c 1
 29 -320 l 1
 29 -320 82 -275 104 -210 c 1
 67 -201 43 -170 49 -130 c 0
 56 -80 102 -40 150 -40 c 0
EndSplineSet
EndChar

StartChar: Lcaron
Encoding: 317 317 253
GlifName: L_caron
Width: 582
Flags: W
HStem: 0 165<274 534> 513 21G<430.774 489.5> 805 20G<181.042 372>
LayerCount: 2
Fore
SplineSet
540 824 m 0
 590 824 623 784 616 734 c 0
 602 641 525 565 454 513 c 1
 418 544 l 1
 418 544 473 589 495 654 c 1
 458 663 432 694 438 734 c 0
 445 784 492 824 540 824 c 0
372 825 m 1
 274 165 l 1
 558 165 l 1
 534 0 l 1
 62 0 l 1
 184 825 l 1
 372 825 l 1
EndSplineSet
EndChar

StartChar: lcaron
Encoding: 318 318 254
GlifName: lcaron
Width: 502
Flags: W
HStem: 0 21G<198 278.5> 513 21G<381.774 440.5> 805 20G<177.1 356>
LayerCount: 2
Fore
SplineSet
263 0 m 0
 133 0 72 86 93 225 c 2
 180 825 l 1
 356 825 l 1
 273 234 l 2
 263 169 334 164 345 163 c 0
 375 161 294 0 263 0 c 0
491 824 m 0
 541 824 574 784 567 734 c 0
 553 641 476 565 405 513 c 1
 369 544 l 1
 369 544 422 589 444 654 c 1
 407 663 383 694 389 734 c 0
 396 784 443 824 491 824 c 0
EndSplineSet
EndChar

StartChar: Ldot
Encoding: 319 319 255
GlifName: L_dot
Width: 582
Flags: W
HStem: 0 165<274 534> 383 184<446.29 542.303> 805 20G<181.042 372>
VStem: 402 184<425.329 522.79>
LayerCount: 2
Fore
SplineSet
372 825 m 1
 274 165 l 1
 558 165 l 1
 534 0 l 1
 62 0 l 1
 184 825 l 1
 372 825 l 1
508 567 m 0
 559 567 594 526 586 475 c 0
 578 424 532 383 481 383 c 0
 430 383 394 424 402 475 c 0
 410 526 457 567 508 567 c 0
EndSplineSet
EndChar

StartChar: ldot
Encoding: 320 320 256
GlifName: ldot
Width: 514
Flags: W
HStem: 0 21G<198 278.5> 383 184<397.29 493.303> 805 20G<177.1 356>
VStem: 353 184<425.329 522.79>
LayerCount: 2
Fore
SplineSet
263 0 m 0
 133 0 72 86 93 225 c 2
 180 825 l 1
 356 825 l 1
 273 234 l 2
 263 169 334 164 345 163 c 0
 375 161 294 0 263 0 c 0
459 567 m 0
 510 567 545 526 537 475 c 0
 529 424 483 383 432 383 c 0
 381 383 345 424 353 475 c 0
 361 526 408 567 459 567 c 0
EndSplineSet
EndChar

StartChar: Lslash
Encoding: 321 321 257
GlifName: L_slash
Width: 646
Flags: W
HStem: 0 165<338 598> 805 20G<245.025 436>
LayerCount: 2
Fore
SplineSet
87 250 m 1
 110 403 l 1
 194 462 l 1
 248 825 l 1
 436 825 l 1
 404 610 l 1
 522 693 l 1
 500 540 l 1
 381 457 l 1
 338 165 l 1
 622 165 l 1
 598 0 l 1
 126 0 l 1
 172 309 l 1
 87 250 l 1
EndSplineSet
EndChar

StartChar: lslash
Encoding: 322 322 258
GlifName: lslash
Width: 440
Flags: W
HStem: 0 21G<266 346.5> 805 20G<244.127 423>
LayerCount: 2
Fore
SplineSet
87 250 m 1
 110 403 l 1
 195 463 l 1
 247 825 l 1
 423 825 l 1
 392 602 l 1
 477 662 l 1
 454 509 l 1
 370 450 l 1
 340 234 l 2
 330 169 401 164 412 163 c 0
 442 161 362 0 331 0 c 0
 201 0 139 86 160 225 c 2
 173 311 l 1
 87 250 l 1
EndSplineSet
EndChar

StartChar: Nacute
Encoding: 323 323 259
GlifName: N_acute
Width: 831
Flags: W
HStem: 0 21G<61 251.972 745.538 769.958> 805 20G<180.042 204.318 697.941 889>
LayerCount: 2
Fore
SplineSet
411 976 m 1
 640 1152 l 1
 714 1037 l 1
 456 899 l 1
 411 976 l 1
61 0 m 1
 183 825 l 1
 636 400 l 1
 701 825 l 1
 889 825 l 1
 767 0 l 1
 312 424 l 1
 249 0 l 1
 61 0 l 1
EndSplineSet
EndChar

StartChar: nacute
Encoding: 324 324 260
GlifName: nacute
Width: 680
Flags: W
HStem: 0 21G<59 245.951 445 624.927> 384 144<330.135 466.287> 500 20G<133.038 276> 820 20G<570.977 609.87>
LayerCount: 2
Fore
SplineSet
243 0 m 1xd0
 59 0 l 1
 136 520 l 1
 276 520 l 1xb0
 272 491 l 1
 309 514 358 528 423 528 c 0
 615 528 689 459 664 287 c 2
 622 0 l 1
 445 0 l 1
 481 244 l 2
 496 345 476 384 402 384 c 0
 328 384 294 345 279 244 c 2
 243 0 l 1xd0
368 664 m 1
 597 840 l 1
 671 725 l 1
 413 587 l 1
 368 664 l 1
EndSplineSet
EndChar

StartChar: uni0145
Encoding: 325 325 261
GlifName: uni0145
Width: 832
Flags: W
HStem: 0 21G<62 252.972 746.538 770.958> 805 20G<181.042 205.318 698.941 890>
LayerCount: 2
Fore
SplineSet
408 -40 m 0
 458 -40 492 -80 485 -130 c 0
 471 -223 393 -299 322 -351 c 1
 287 -320 l 1
 287 -320 340 -275 362 -210 c 1
 325 -201 301 -170 307 -130 c 0
 314 -80 360 -40 408 -40 c 0
62 0 m 1
 184 825 l 1
 637 400 l 1
 702 825 l 1
 890 825 l 1
 768 0 l 1
 313 424 l 1
 250 0 l 1
 62 0 l 1
EndSplineSet
EndChar

StartChar: uni0146
Encoding: 326 326 262
GlifName: uni0146
Width: 683
Flags: W
HStem: 0 21G<60 246.951 446 625.927> 384 144<331.135 467.287> 500 20G<134.038 277>
LayerCount: 2
Fore
SplineSet
244 0 m 1xc0
 60 0 l 1
 137 520 l 1
 277 520 l 1xa0
 273 491 l 1
 310 514 359 528 424 528 c 0
 616 528 690 459 665 287 c 2
 623 0 l 1
 446 0 l 1
 482 244 l 2
 497 345 477 384 403 384 c 0
 329 384 295 345 280 244 c 2
 244 0 l 1xc0
323 -40 m 0
 373 -40 407 -80 400 -130 c 0
 386 -223 308 -299 237 -351 c 1
 202 -320 l 1
 202 -320 255 -275 277 -210 c 1
 240 -201 216 -170 222 -130 c 0
 229 -80 275 -40 323 -40 c 0
EndSplineSet
EndChar

StartChar: Ncaron
Encoding: 327 327 263
GlifName: N_caron
Width: 831
Flags: W
HStem: 0 21G<61 251.972 745.538 769.958> 805 20G<180.042 204.318 697.941 889>
LayerCount: 2
Fore
SplineSet
431 1152 m 1
 568 1040 l 1
 737 1152 l 1
 792 1061 l 1
 547 899 l 1
 350 1061 l 1
 431 1152 l 1
61 0 m 1
 183 825 l 1
 636 400 l 1
 701 825 l 1
 889 825 l 1
 767 0 l 1
 312 424 l 1
 249 0 l 1
 61 0 l 1
EndSplineSet
EndChar

StartChar: ncaron
Encoding: 328 328 264
GlifName: ncaron
Width: 680
Flags: W
HStem: 0 21G<59 245.951 445 624.927> 384 144<330.135 466.287> 500 20G<133.038 276> 820 20G<281.198 323.286 574.643 617.088>
LayerCount: 2
Fore
SplineSet
243 0 m 1xd0
 59 0 l 1
 136 520 l 1
 276 520 l 1xb0
 272 491 l 1
 309 514 358 528 423 528 c 0
 615 528 689 459 664 287 c 2
 622 0 l 1
 445 0 l 1
 481 244 l 2
 496 345 476 384 402 384 c 0
 328 384 294 345 279 244 c 2
 243 0 l 1xd0
299 840 m 1
 435 728 l 1
 605 840 l 1
 660 749 l 1
 414 587 l 1
 218 749 l 1
 299 840 l 1
EndSplineSet
EndChar

StartChar: napostrophe
Encoding: 329 329 265
GlifName: napostrophe
Width: 756
Flags: W
HStem: 0 21G<134 320.951 520 699.927> 384 144<405.135 541.287> 500 20G<208.038 351> 520 21G<164.333 208.99>
LayerCount: 2
Fore
SplineSet
318 0 m 1xc0
 134 0 l 1
 211 520 l 1
 351 520 l 1xa0
 347 491 l 1
 384 514 433 528 498 528 c 0
 690 528 764 459 739 287 c 2
 697 0 l 1
 520 0 l 1
 556 244 l 2
 571 345 551 384 477 384 c 0
 403 384 369 345 354 244 c 2
 318 0 l 1xc0
121 580 m 1
 305 802 l 1
 409 714 l 1
 186 520 l 1x90
 121 580 l 1
EndSplineSet
EndChar

StartChar: Eng
Encoding: 330 330 266
GlifName: E_ng
Width: 832
Flags: W
HStem: -279 110<421 488.922> 0 21G<62 252.972> 805 20G<181.042 205.318 698.941 890>
LayerCount: 2
Fore
SplineSet
62 0 m 1
 184 825 l 1
 637 400 l 1
 702 825 l 1
 890 825 l 1
 768 0 l 2
 732 -247 483 -275 389 -279 c 1
 421 -169 l 1
 620 -135 674 70 631 128 c 1
 313 424 l 1
 250 0 l 1
 62 0 l 1
EndSplineSet
EndChar

StartChar: eng
Encoding: 331 331 267
GlifName: eng
Width: 683
Flags: W
HStem: -279 117<277 336.688> 0 21G<60 246.951> 384 144<331.135 467.287> 500 20G<134.038 277>
LayerCount: 2
Fore
SplineSet
665 287 m 2xe0
 623 0 l 1
 582 -241 337 -275 244 -279 c 1
 277 -162 l 1
 325 -157 430 -103 447 7 c 2
 482 244 l 2
 497 345 477 384 403 384 c 0xe0
 329 384 295 345 280 244 c 2
 244 0 l 1
 60 0 l 1
 137 520 l 1
 277 520 l 1xd0
 273 491 l 1
 310 514 359 528 424 528 c 0
 616 528 690 459 665 287 c 2xe0
EndSplineSet
EndChar

StartChar: Omacron
Encoding: 332 332 268
GlifName: O_macron
Width: 930
Flags: W
HStem: -15 198<406.874 579.233> 642 198<468.641 641.03> 946 120<416 807>
LayerCount: 2
Fore
SplineSet
313 413 m 0
 295 288 372 183 490 183 c 0
 608 183 716 288 734 413 c 0
 752 538 676 642 558 642 c 0
 440 642 331 538 313 413 c 0
108 413 m 0
 142 645 355 840 587 840 c 0
 819 840 973 645 939 413 c 0
 905 181 693 -15 461 -15 c 0
 229 -15 74 181 108 413 c 0
416 1066 m 1
 824 1066 l 1
 807 946 l 1
 399 946 l 1
 416 1066 l 1
EndSplineSet
EndChar

StartChar: omacron
Encoding: 333 333 269
GlifName: omacron
Width: 710
Flags: W
HStem: -15 155<311.106 446.786> 373 155<339.244 472.611> 634 120<258 649>
LayerCount: 2
Fore
SplineSet
269 256 m 0
 260 194 308 140 375 140 c 0
 442 140 505 194 514 256 c 0
 523 318 476 373 409 373 c 0
 342 373 278 318 269 256 c 0
87 256 m 0
 108 401 266 528 433 528 c 0
 600 528 717 401 696 256 c 0
 675 111 520 -15 353 -15 c 0
 186 -15 66 111 87 256 c 0
258 754 m 1
 666 754 l 1
 649 634 l 1
 241 634 l 1
 258 754 l 1
EndSplineSet
EndChar

StartChar: Obreve
Encoding: 334 334 270
GlifName: O_breve
Width: 930
Flags: W
HStem: -15 198<406.874 579.233> 642 198<468.641 641.03> 904 109<553.894 677.835>
LayerCount: 2
Fore
SplineSet
313 413 m 0
 295 288 372 183 490 183 c 0
 608 183 716 288 734 413 c 0
 752 538 676 642 558 642 c 0
 440 642 331 538 313 413 c 0
108 413 m 0
 142 645 355 840 587 840 c 0
 819 840 973 645 939 413 c 0
 905 181 693 -15 461 -15 c 0
 229 -15 74 181 108 413 c 0
732 1116 m 1
 853 1085 l 1
 825 978 725 904 596 904 c 0
 467 904 387 978 391 1085 c 1
 522 1116 l 1
 522 1116 519 1013 613 1013 c 0
 707 1013 732 1116 732 1116 c 1
EndSplineSet
EndChar

StartChar: obreve
Encoding: 335 335 271
GlifName: obreve
Width: 709
Flags: W
HStem: -15 155<310.106 445.786> 373 155<338.244 471.611> 594 109<397.5 521.441>
LayerCount: 2
Fore
SplineSet
268 256 m 0
 259 194 307 140 374 140 c 0
 441 140 504 194 513 256 c 0
 522 318 475 373 408 373 c 0
 341 373 277 318 268 256 c 0
86 256 m 0
 107 401 265 528 432 528 c 0
 599 528 716 401 695 256 c 0
 674 111 519 -15 352 -15 c 0
 185 -15 65 111 86 256 c 0
576 806 m 1
 697 775 l 1
 669 668 569 594 440 594 c 0
 311 594 231 668 235 775 c 1
 366 806 l 1
 366 806 362 703 456 703 c 0
 550 703 576 806 576 806 c 1
EndSplineSet
EndChar

StartChar: Ohungarumlaut
Encoding: 336 336 272
GlifName: O_hungarumlaut
Width: 930
Flags: W
HStem: -15 198<406.874 579.233> 642 198<468.641 641.03>
LayerCount: 2
Fore
SplineSet
313 413 m 0
 295 288 372 183 490 183 c 0
 608 183 716 288 734 413 c 0
 752 538 676 642 558 642 c 0
 440 642 331 538 313 413 c 0
108 413 m 0
 142 645 355 840 587 840 c 0
 819 840 973 645 939 413 c 0
 905 181 693 -15 461 -15 c 0
 229 -15 74 181 108 413 c 0
611 976 m 1
 812 1172 l 1
 879 1068 l 1
 656 899 l 1
 611 976 l 1
399 976 m 1
 602 1172 l 1
 669 1068 l 1
 444 899 l 1
 399 976 l 1
EndSplineSet
EndChar

StartChar: ohungarumlaut
Encoding: 337 337 273
GlifName: ohungarumlaut
Width: 709
Flags: W
HStem: -15 155<310.106 445.786> 373 155<338.244 471.611>
LayerCount: 2
Fore
SplineSet
268 256 m 0
 259 194 307 140 374 140 c 0
 441 140 504 194 513 256 c 0
 522 318 475 373 408 373 c 0
 341 373 277 318 268 256 c 0
86 256 m 0
 107 401 265 528 432 528 c 0
 599 528 716 401 695 256 c 0
 674 111 519 -15 352 -15 c 0
 185 -15 65 111 86 256 c 0
452 664 m 1
 654 860 l 1
 721 756 l 1
 497 587 l 1
 452 664 l 1
241 664 m 1
 443 860 l 1
 510 756 l 1
 286 587 l 1
 241 664 l 1
EndSplineSet
EndChar

StartChar: OE
Encoding: 338 338 274
GlifName: O_E_
Width: 1041
Flags: W
HStem: 0 165<420.22 539 726 986> 331 165<775 1023> 660 165<481.125 611 799 1083>
LayerCount: 2
Fore
SplineSet
462 0 m 2
 235 0 72 172 108 413 c 0
 143 653 358 825 584 825 c 2
 1108 825 l 1
 1083 660 l 1
 799 660 l 1
 775 496 l 1
 1047 496 l 1
 1023 331 l 1
 751 331 l 1
 726 165 l 1
 1010 165 l 1
 986 0 l 1
 462 0 l 2
309 412 m 0
 288 268 336 168 539 168 c 1
 611 657 l 1
 408 657 330 556 309 412 c 0
EndSplineSet
EndChar

StartChar: oe
Encoding: 339 339 275
GlifName: oe
Width: 1052
Flags: W
HStem: -15 155<289.01 414.311> 227 90<679 874> 373 155<315.986 440.817> 413 115<726.997 845.884>
LayerCount: 2
Fore
SplineSet
88 256 m 0xd0
 109 401 254 528 406 528 c 0xe0
 482 528 546 496 589 446 c 1
 648 497 724 528 803 528 c 0
 959 528 1062 418 1034 227 c 1
 661 227 l 1
 648 141 759 60 889 173 c 1
 1009 119 l 1
 937 22 837 -15 723 -15 c 0
 644 -15 576 16 533 67 c 1
 476 17 402 -15 326 -15 c 0
 174 -15 67 111 88 256 c 0xd0
253 256 m 0
 244 194 287 140 348 140 c 0
 409 140 467 194 476 256 c 0
 485 318 443 373 382 373 c 0
 321 373 262 318 253 256 c 0
679 317 m 1
 874 317 l 1
 874 371 843 413 791 413 c 0xd0
 730 413 689 364 679 317 c 1
EndSplineSet
EndChar

StartChar: Racute
Encoding: 340 340 276
GlifName: R_acute
Width: 753
Flags: W
HStem: 0 21G<61 251.941 500.805 717> 675 150<349 484.25>
LayerCount: 2
Fore
SplineSet
183 825 m 1
 483 825 l 1
 681 820 746 698 727 571 c 0
 709 446 630 380 542 345 c 1
 717 0 l 1
 511 0 l 1
 354 308 l 1
 331 307 311 306 294 306 c 1
 249 0 l 1
 61 0 l 1
 183 825 l 1
316 456 m 1
 408 458 514 468 528 565 c 0
 541 656 458 675 349 675 c 1
 316 456 l 1
355 976 m 1
 585 1152 l 1
 658 1037 l 1
 400 899 l 1
 355 976 l 1
EndSplineSet
EndChar

StartChar: racute
Encoding: 341 341 277
GlifName: racute
Width: 549
Flags: W
HStem: 0 21G<59 238.963> 374 154<371.203 494.586> 493 20G<132.037 312> 820 20G<448.864 487.696>
LayerCount: 2
Fore
SplineSet
312 513 m 1xb0
 301 439 l 2
 306 475 384 528 456 528 c 0
 540 528 580 496 580 496 c 1
 484 346 l 1
 484 346 455 374 396 374 c 0xd0
 304 374 278 283 276 270 c 2
 236 0 l 1
 59 0 l 1
 135 513 l 1
 312 513 l 1xb0
245 664 m 1
 475 840 l 1
 548 725 l 1
 290 587 l 1
 245 664 l 1
EndSplineSet
EndChar

StartChar: uni0156
Encoding: 342 342 278
GlifName: uni0156
Width: 757
Flags: W
HStem: 0 21G<62 252.941 501.87 720> 675 150<350 485.25>
LayerCount: 2
Fore
SplineSet
184 825 m 1
 486 825 l 1
 684 820 747 698 728 571 c 0
 710 446 632 380 544 345 c 1
 720 0 l 1
 512 0 l 1
 356 308 l 1
 333 307 312 306 295 306 c 1
 250 0 l 1
 62 0 l 1
 184 825 l 1
317 456 m 1
 409 458 515 468 529 565 c 0
 542 656 459 675 350 675 c 1
 317 456 l 1
354 -40 m 0
 404 -40 438 -80 431 -130 c 0
 417 -223 339 -299 268 -351 c 1
 233 -320 l 1
 233 -320 285 -275 307 -210 c 1
 270 -201 247 -170 253 -130 c 0
 260 -80 306 -40 354 -40 c 0
EndSplineSet
EndChar

StartChar: uni0157
Encoding: 343 343 279
GlifName: uni0157
Width: 552
Flags: W
HStem: 0 21G<60 239.963> 374 154<372.203 495.586> 493 20G<133.037 313>
LayerCount: 2
Fore
SplineSet
313 513 m 1xa0
 302 439 l 2
 307 475 385 528 457 528 c 0
 541 528 581 496 581 496 c 1
 485 346 l 1
 485 346 456 374 397 374 c 0xc0
 305 374 279 283 277 270 c 2
 237 0 l 1
 60 0 l 1
 136 513 l 1
 313 513 l 1xa0
142 -40 m 0
 192 -40 226 -80 219 -130 c 0
 205 -223 127 -299 56 -351 c 1
 21 -320 l 1
 21 -320 75 -275 97 -210 c 1
 60 -201 35 -170 41 -130 c 0
 48 -80 94 -40 142 -40 c 0
EndSplineSet
EndChar

StartChar: Rcaron
Encoding: 344 344 280
GlifName: R_caron
Width: 753
Flags: W
HStem: 0 21G<61 251.941 500.805 717> 675 150<349 484.25>
LayerCount: 2
Fore
SplineSet
183 825 m 1
 483 825 l 1
 681 820 746 698 727 571 c 0
 709 446 630 380 542 345 c 1
 717 0 l 1
 511 0 l 1
 354 308 l 1
 331 307 311 306 294 306 c 1
 249 0 l 1
 61 0 l 1
 183 825 l 1
316 456 m 1
 408 458 514 468 528 565 c 0
 541 656 458 675 349 675 c 1
 316 456 l 1
341 1152 m 1
 479 1040 l 1
 647 1152 l 1
 702 1061 l 1
 458 899 l 1
 260 1061 l 1
 341 1152 l 1
EndSplineSet
EndChar

StartChar: rcaron
Encoding: 345 345 281
GlifName: rcaron
Width: 552
Flags: W
HStem: 0 21G<62 241.963> 374 154<374.203 497.586> 493 20G<135.037 315> 820 20G<224.198 266.286 517.643 560.088>
LayerCount: 2
Fore
SplineSet
315 513 m 1xb0
 304 439 l 2
 309 475 387 528 459 528 c 0
 543 528 583 496 583 496 c 1
 487 346 l 1
 487 346 458 374 399 374 c 0xd0
 307 374 281 283 279 270 c 2
 239 0 l 1
 62 0 l 1
 138 513 l 1
 315 513 l 1xb0
242 840 m 1
 378 728 l 1
 548 840 l 1
 603 749 l 1
 357 587 l 1
 161 749 l 1
 242 840 l 1
EndSplineSet
EndChar

StartChar: Sacute
Encoding: 346 346 282
GlifName: S_acute
Width: 710
Flags: W
LayerCount: 2
Fore
SplineSet
169 252 m 1
 268 175 471 117 489 240 c 0
 508 371 169 399 197 588 c 0
 223 765 445 950 749 762 c 1
 650 612 l 1
 543 719 392 664 382 595 c 0
 369 505 731 481 697 251 c 0
 668 54 357 -145 52 94 c 1
 169 252 l 1
348 976 m 1
 578 1152 l 1
 651 1037 l 1
 393 899 l 1
 348 976 l 1
EndSplineSet
EndChar

StartChar: sacute
Encoding: 347 347 283
GlifName: sacute
Width: 526
Flags: W
HStem: 820 20G<455.091 494.043>
LayerCount: 2
Fore
SplineSet
137 175 m 1
 244 85 311 119 316 153 c 0
 328 231 114 261 129 363 c 0
 143 460 305 602 543 488 c 1
 468 372 l 1
 341 434 302 397 298 373 c 0
 289 311 522 283 504 160 c 0
 482 9 213 -87 47 54 c 1
 137 175 l 1
253 664 m 1
 481 840 l 1
 556 725 l 1
 298 587 l 1
 253 664 l 1
EndSplineSet
EndChar

StartChar: Scircumflex
Encoding: 348 348 284
GlifName: S_circumflex
Width: 710
Flags: W
LayerCount: 2
Fore
SplineSet
169 252 m 1
 268 175 471 117 489 240 c 0
 508 371 169 399 197 588 c 0
 223 765 445 950 749 762 c 1
 650 612 l 1
 543 719 392 664 382 595 c 0
 369 505 731 481 697 251 c 0
 668 54 357 -145 52 94 c 1
 169 252 l 1
298 975 m 1
 542 1137 l 1
 740 975 l 1
 659 884 l 1
 521 996 l 1
 353 884 l 1
 298 975 l 1
EndSplineSet
EndChar

StartChar: scircumflex
Encoding: 349 349 285
GlifName: scircumflex
Width: 530
Flags: W
LayerCount: 2
Fore
SplineSet
138 175 m 1
 245 85 312 119 317 153 c 0
 329 231 115 261 130 363 c 0
 144 460 306 602 544 488 c 1
 469 372 l 1
 342 434 303 397 299 373 c 0
 290 311 523 283 505 160 c 0
 483 9 214 -87 48 54 c 1
 138 175 l 1
139 654 m 1
 384 816 l 1
 581 654 l 1
 499 563 l 1
 364 675 l 1
 193 563 l 1
 139 654 l 1
EndSplineSet
EndChar

StartChar: Scedilla
Encoding: 350 350 286
GlifName: S_cedilla
Width: 711
Flags: W
LayerCount: 2
Fore
SplineSet
169 252 m 1
 268 175 471 117 489 240 c 0
 508 371 169 399 197 588 c 0
 223 765 445 950 749 762 c 1
 650 612 l 1
 543 719 392 664 382 595 c 0
 369 505 731 481 697 251 c 0
 668 54 357 -145 52 94 c 1
 169 252 l 1
344 -40 m 0
 394 -40 428 -80 421 -130 c 0
 407 -223 329 -299 258 -351 c 1
 223 -320 l 1
 223 -320 275 -275 297 -210 c 1
 260 -201 237 -170 243 -130 c 0
 250 -80 296 -40 344 -40 c 0
EndSplineSet
EndChar

StartChar: scedilla
Encoding: 351 351 287
GlifName: scedilla
Width: 528
Flags: W
LayerCount: 2
Fore
SplineSet
137 175 m 1
 244 85 311 119 316 153 c 0
 328 231 114 261 129 363 c 0
 143 460 305 602 543 488 c 1
 468 372 l 1
 341 434 302 397 298 373 c 0
 289 311 522 283 504 160 c 0
 482 9 213 -87 47 54 c 1
 137 175 l 1
255 -40 m 0
 305 -40 339 -80 332 -130 c 0
 318 -223 240 -299 169 -351 c 1
 134 -320 l 1
 134 -320 186 -275 208 -210 c 1
 171 -201 148 -170 154 -130 c 0
 161 -80 207 -40 255 -40 c 0
EndSplineSet
EndChar

StartChar: Scaron
Encoding: 352 352 288
GlifName: S_caron
Width: 710
Flags: W
LayerCount: 2
Fore
SplineSet
169 252 m 1
 268 175 471 117 489 240 c 0
 508 371 169 399 197 588 c 0
 223 765 445 950 749 762 c 1
 650 612 l 1
 543 719 392 664 382 595 c 0
 369 505 731 481 697 251 c 0
 668 54 357 -145 52 94 c 1
 169 252 l 1
368 1152 m 1
 506 1040 l 1
 674 1152 l 1
 729 1061 l 1
 485 899 l 1
 287 1061 l 1
 368 1152 l 1
EndSplineSet
EndChar

StartChar: scaron
Encoding: 353 353 289
GlifName: scaron
Width: 530
Flags: W
HStem: 820 20G<216.198 258.464 509.821 552.088>
LayerCount: 2
Fore
SplineSet
138 175 m 1
 245 85 312 119 317 153 c 0
 329 231 115 261 130 363 c 0
 144 460 306 602 544 488 c 1
 469 372 l 1
 342 434 303 397 299 373 c 0
 290 311 523 283 505 160 c 0
 483 9 214 -87 48 54 c 1
 138 175 l 1
234 840 m 1
 371 728 l 1
 540 840 l 1
 595 749 l 1
 350 587 l 1
 153 749 l 1
 234 840 l 1
EndSplineSet
EndChar

StartChar: uni0162
Encoding: 354 354 290
GlifName: uni0162
Width: 669
Flags: W
HStem: 0 21G<239 429.939> 660 165<165 336 524 720>
LayerCount: 2
Fore
SplineSet
140 660 m 1
 165 825 l 1
 745 825 l 1
 720 660 l 1
 524 660 l 1
 427 0 l 1
 239 0 l 1
 336 660 l 1
 140 660 l 1
327 -40 m 0
 377 -40 411 -80 404 -130 c 0
 390 -223 312 -299 241 -351 c 1
 206 -320 l 1
 206 -320 259 -275 281 -210 c 1
 244 -201 220 -170 226 -130 c 0
 233 -80 279 -40 327 -40 c 0
EndSplineSet
EndChar

StartChar: uni0163
Encoding: 355 355 291
GlifName: uni0163
Width: 468
Flags: W
HStem: -15 159<222.5 404.689> 378 135<122 176 373 461>
LayerCount: 2
Fore
SplineSet
196 513 m 1
 224 704 l 1
 401 704 l 1
 373 513 l 1
 481 513 l 1
 461 378 l 1
 353 378 l 1
 329 215 l 2
 322 167 330 144 358 144 c 0
 381 144 405 160 405 160 c 1
 428 17 l 1
 428 17 366 -15 293 -15 c 0
 152 -15 134 90 147 181 c 2
 176 378 l 1
 102 378 l 1
 122 513 l 1
 196 513 l 1
219 -40 m 0
 269 -40 303 -80 296 -130 c 0
 282 -223 204 -299 133 -351 c 1
 98 -320 l 1
 98 -320 151 -275 173 -210 c 1
 136 -201 112 -170 118 -130 c 0
 125 -80 171 -40 219 -40 c 0
EndSplineSet
EndChar

StartChar: Tcaron
Encoding: 356 356 292
GlifName: T_caron
Width: 872
Flags: W
HStem: 0 21G<239 429.939> 660 165<165 336 524 720>
LayerCount: 2
Fore
SplineSet
140 660 m 1
 165 825 l 1
 745 825 l 1
 720 660 l 1
 524 660 l 1
 427 0 l 1
 239 0 l 1
 336 660 l 1
 140 660 l 1
881 938 m 0
 931 938 964 898 957 848 c 0
 943 755 866 679 795 627 c 1
 759 658 l 1
 759 658 812 703 834 768 c 1
 797 777 773 808 779 848 c 0
 786 898 833 938 881 938 c 0
EndSplineSet
EndChar

StartChar: tcaron
Encoding: 357 357 293
GlifName: tcaron
Width: 639
Flags: W
HStem: -15 159<222.5 404.689> 378 135<122 176 373 461> 513 21G<518.774 577.5>
LayerCount: 2
Fore
SplineSet
196 513 m 1xa0
 224 704 l 1
 401 704 l 1
 373 513 l 1xc0
 481 513 l 1xa0
 461 378 l 1
 353 378 l 1
 329 215 l 2
 322 167 330 144 358 144 c 0
 381 144 405 160 405 160 c 1
 428 17 l 1
 428 17 366 -15 293 -15 c 0
 152 -15 134 90 147 181 c 2
 176 378 l 1
 102 378 l 1
 122 513 l 1xc0
 196 513 l 1xa0
628 824 m 0
 678 824 711 784 704 734 c 0
 690 641 613 565 542 513 c 1xa0
 506 544 l 1
 506 544 560 589 582 654 c 1
 545 663 520 694 526 734 c 0
 533 784 580 824 628 824 c 0
EndSplineSet
EndChar

StartChar: Tbar
Encoding: 358 358 294
GlifName: T_bar
Width: 669
Flags: W
HStem: 0 21G<239 429.959> 338 177<188 289 503 613> 660 165<165 336 524 720>
LayerCount: 2
Fore
SplineSet
140 660 m 1
 165 825 l 1
 745 825 l 1
 720 660 l 1
 524 660 l 1
 503 515 l 1
 639 515 l 1
 613 338 l 1
 477 338 l 1
 427 0 l 1
 239 0 l 1
 289 338 l 1
 162 338 l 1
 188 515 l 1
 315 515 l 1
 336 660 l 1
 140 660 l 1
EndSplineSet
EndChar

StartChar: tbar
Encoding: 359 359 295
GlifName: tbar
Width: 478
Flags: W
HStem: -15 159<229.5 411.689> 236 113<106 162 356 447> 411 135<134 188 385 473>
LayerCount: 2
Fore
SplineSet
208 546 m 1
 231 704 l 1
 408 704 l 1
 385 546 l 1
 493 546 l 1
 473 411 l 1
 365 411 l 1
 356 349 l 1
 464 349 l 1
 447 236 l 1
 339 236 l 1
 336 215 l 2
 329 167 337 144 365 144 c 0
 388 144 412 160 412 160 c 1
 435 17 l 1
 435 17 373 -15 300 -15 c 0
 159 -15 141 90 154 181 c 2
 162 236 l 1
 89 236 l 1
 106 349 l 1
 179 349 l 1
 188 411 l 1
 114 411 l 1
 134 546 l 1
 208 546 l 1
EndSplineSet
EndChar

StartChar: Utilde
Encoding: 360 360 296
GlifName: U_tilde
Width: 762
Flags: W
HStem: -15 185<326.84 490.452> 805 20G<177.03 368 633.023 824> 905 126<538.111 653.798> 951 126<400.464 516.889>
LayerCount: 2
Fore
SplineSet
636 825 m 1xc0
 824 825 l 1
 745 293 l 2
 715 89 588 -15 378 -15 c 0
 168 -15 71 89 101 293 c 2
 180 825 l 1
 368 825 l 1
 297 348 l 2
 277 210 313 170 405 170 c 0
 497 170 545 210 565 348 c 2
 636 825 l 1xc0
510 932 m 1
 510 932 472 951 436 951 c 0xd0
 404 951 384 905 384 905 c 1
 284 905 l 1xe0
 284 905 335 1077 445 1077 c 0xd0
 484 1077 545 1050 545 1050 c 1
 545 1050 582 1031 618 1031 c 0xe0
 650 1031 669 1077 669 1077 c 1
 771 1077 l 1xd0
 771 1077 720 905 610 905 c 0xe0
 571 905 510 932 510 932 c 1
EndSplineSet
EndChar

StartChar: utilde
Encoding: 361 361 297
GlifName: utilde
Width: 672
Flags: W
HStem: -15 144<288.515 423.524> 493 20G<129.003 309 508.049 688> 605 126<449.499 564.563> 651 126<311.437 426.501>
LayerCount: 2
Fore
SplineSet
132 513 m 1xc0
 309 513 l 1
 273 269 l 2
 258 168 279 129 353 129 c 0
 427 129 460 168 475 269 c 2
 511 513 l 1
 688 513 l 1
 645 226 l 2
 620 54 524 -15 332 -15 c 0
 140 -15 64 54 89 226 c 2
 132 513 l 1xc0
420 632 m 1
 420 632 383 651 347 651 c 0xd0
 315 651 295 605 295 605 c 1
 194 605 l 1xe0
 194 605 246 777 356 777 c 0xd0
 395 777 456 750 456 750 c 1
 456 750 493 731 529 731 c 0xe0
 561 731 581 777 581 777 c 1
 682 777 l 1xd0
 682 777 630 605 520 605 c 0xe0
 481 605 420 632 420 632 c 1
EndSplineSet
EndChar

StartChar: Umacron
Encoding: 362 362 298
GlifName: U_macron
Width: 762
Flags: W
HStem: -15 185<326.84 490.452> 805 20G<177.03 368 633.023 824> 946 120<333 724>
LayerCount: 2
Fore
SplineSet
636 825 m 1
 824 825 l 1
 745 293 l 2
 715 89 588 -15 378 -15 c 0
 168 -15 71 89 101 293 c 2
 180 825 l 1
 368 825 l 1
 297 348 l 2
 277 210 313 170 405 170 c 0
 497 170 545 210 565 348 c 2
 636 825 l 1
333 1066 m 1
 741 1066 l 1
 724 946 l 1
 316 946 l 1
 333 1066 l 1
EndSplineSet
EndChar

StartChar: umacron
Encoding: 363 363 299
GlifName: umacron
Width: 673
Flags: W
HStem: -15 144<289.515 424.524> 493 20G<130.003 310 509.049 689> 634 120<242 633>
LayerCount: 2
Fore
SplineSet
133 513 m 1
 310 513 l 1
 274 269 l 2
 259 168 280 129 354 129 c 0
 428 129 461 168 476 269 c 2
 512 513 l 1
 689 513 l 1
 646 226 l 2
 621 54 525 -15 333 -15 c 0
 141 -15 65 54 90 226 c 2
 133 513 l 1
242 754 m 1
 650 754 l 1
 633 634 l 1
 225 634 l 1
 242 754 l 1
EndSplineSet
EndChar

StartChar: Ubreve
Encoding: 364 364 300
GlifName: U_breve
Width: 762
Flags: W
HStem: -15 185<326.84 490.452> 805 20G<177.03 368 633.023 824> 892 109<469.623 593.608>
LayerCount: 2
Fore
SplineSet
636 825 m 1
 824 825 l 1
 745 293 l 2
 715 89 588 -15 378 -15 c 0
 168 -15 71 89 101 293 c 2
 180 825 l 1
 368 825 l 1
 297 348 l 2
 277 210 313 170 405 170 c 0
 497 170 545 210 565 348 c 2
 636 825 l 1
649 1104 m 1
 770 1073 l 1
 742 966 641 892 512 892 c 0
 383 892 304 966 308 1073 c 1
 439 1104 l 1
 439 1104 434 1001 528 1001 c 0
 622 1001 649 1104 649 1104 c 1
EndSplineSet
EndChar

StartChar: ubreve
Encoding: 365 365 301
GlifName: ubreve
Width: 671
Flags: W
HStem: -15 144<288.515 423.524> 493 20G<129.003 309 508.049 688> 576 109<375.517 499.502>
LayerCount: 2
Fore
SplineSet
132 513 m 1
 309 513 l 1
 273 269 l 2
 258 168 279 129 353 129 c 0
 427 129 460 168 475 269 c 2
 511 513 l 1
 688 513 l 1
 645 226 l 2
 620 54 524 -15 332 -15 c 0
 140 -15 64 54 89 226 c 2
 132 513 l 1
554 788 m 1
 676 757 l 1
 648 650 547 576 418 576 c 0
 289 576 210 650 214 757 c 1
 344 788 l 1
 344 788 340 685 434 685 c 0
 528 685 554 788 554 788 c 1
EndSplineSet
EndChar

StartChar: Uring
Encoding: 366 366 302
GlifName: U_ring
Width: 762
Flags: W
HStem: -15 185<326.84 490.452> 805 20G<177.03 368 633.023 824> 902 79<482.763 572.92> 1107 80<494.416 585.231>
LayerCount: 2
Fore
SplineSet
824 825 m 1
 745 293 l 2
 715 89 588 -15 378 -15 c 0
 168 -15 71 89 101 293 c 2
 180 825 l 1
 368 825 l 1
 297 348 l 2
 277 210 313 170 405 170 c 0
 497 170 545 210 565 348 c 2
 636 825 l 1
 824 825 l 1
474 1045 m 0
 469 1010 489 981 525 981 c 0
 560 981 591 1010 596 1045 c 0
 601 1079 577 1107 543 1107 c 0
 510 1107 479 1079 474 1045 c 0
374 1045 m 0
 386 1128 465 1187 555 1187 c 0
 646 1187 708 1128 696 1045 c 0
 684 961 607 902 513 902 c 0
 417 902 362 961 374 1045 c 0
EndSplineSet
EndChar

StartChar: uring
Encoding: 367 367 303
GlifName: uring
Width: 672
Flags: W
HStem: -15 144<288.515 423.524> 493 20G<129.003 309 508.049 688> 590 79<390.473 480.586> 795 80<402.061 492.929>
LayerCount: 2
Fore
SplineSet
309 513 m 1
 273 269 l 2
 258 168 279 129 353 129 c 0
 427 129 460 168 475 269 c 2
 511 513 l 1
 688 513 l 1
 645 226 l 2
 620 54 524 -15 332 -15 c 0
 140 -15 64 54 89 226 c 2
 132 513 l 1
 309 513 l 1
381 733 m 0
 376 698 397 669 433 669 c 0
 468 669 498 698 503 733 c 0
 508 767 485 795 451 795 c 0
 418 795 386 767 381 733 c 0
281 733 m 0
 293 816 373 875 463 875 c 0
 554 875 615 816 603 733 c 0
 591 649 515 590 421 590 c 0
 325 590 269 649 281 733 c 0
EndSplineSet
EndChar

StartChar: Uhungarumlaut
Encoding: 368 368 304
GlifName: U_hungarumlaut
Width: 762
Flags: W
HStem: -15 185<326.84 490.452> 805 20G<177.03 368 633.023 824>
LayerCount: 2
Fore
SplineSet
636 825 m 1
 824 825 l 1
 745 293 l 2
 715 89 588 -15 378 -15 c 0
 168 -15 71 89 101 293 c 2
 180 825 l 1
 368 825 l 1
 297 348 l 2
 277 210 313 170 405 170 c 0
 497 170 545 210 565 348 c 2
 636 825 l 1
528 976 m 1
 731 1172 l 1
 798 1068 l 1
 573 899 l 1
 528 976 l 1
318 976 m 1
 519 1172 l 1
 586 1068 l 1
 363 899 l 1
 318 976 l 1
EndSplineSet
EndChar

StartChar: uhungarumlaut
Encoding: 369 369 305
GlifName: uhungarumlaut
Width: 671
Flags: W
HStem: -15 144<288.515 423.524> 493 20G<129.003 309 508.049 688>
LayerCount: 2
Fore
SplineSet
132 513 m 1
 309 513 l 1
 273 269 l 2
 258 168 279 129 353 129 c 0
 427 129 460 168 475 269 c 2
 511 513 l 1
 688 513 l 1
 645 226 l 2
 620 54 524 -15 332 -15 c 0
 140 -15 64 54 89 226 c 2
 132 513 l 1
436 664 m 1
 638 860 l 1
 705 756 l 1
 481 587 l 1
 436 664 l 1
225 664 m 1
 427 860 l 1
 494 756 l 1
 270 587 l 1
 225 664 l 1
EndSplineSet
EndChar

StartChar: Uogonek
Encoding: 370 370 306
GlifName: U_ogonek
Width: 762
Flags: W
HStem: -275 96<332.106 434.158> 805 20G<177.03 368 633.023 824>
LayerCount: 2
Fore
SplineSet
251 -158 m 0
 258 -108 304 -51 340 -13 c 1
 156 -1 73 101 101 293 c 2
 180 825 l 1
 368 825 l 1
 297 348 l 2
 277 210 313 170 405 170 c 0
 497 170 545 210 565 348 c 2
 636 825 l 1
 824 825 l 1
 745 293 l 2
 717 104 607 1 424 -13 c 1
 404 -36 364 -88 356 -140 c 0
 352 -165 371 -179 388 -179 c 0
 419 -179 442 -149 442 -149 c 1
 506 -203 l 1
 506 -203 451 -275 359 -275 c 0
 307 -275 238 -245 251 -158 c 0
EndSplineSet
EndChar

StartChar: uogonek
Encoding: 371 371 307
GlifName: uogonek
Width: 673
Flags: W
HStem: -275 96<286.106 388.638> 493 20G<130.003 310 509.049 689>
LayerCount: 2
Fore
SplineSet
205 -158 m 0
 212 -108 259 -51 295 -14 c 1
 130 -5 66 66 90 226 c 2
 133 513 l 1
 310 513 l 1
 274 269 l 2
 259 168 280 129 354 129 c 0
 428 129 461 168 476 269 c 2
 512 513 l 1
 689 513 l 1
 646 226 l 2
 623 68 540 -3 377 -14 c 1
 356 -38 318 -89 310 -140 c 0
 306 -165 325 -179 342 -179 c 0
 373 -179 397 -149 397 -149 c 1
 461 -203 l 1
 461 -203 405 -275 313 -275 c 0
 261 -275 192 -245 205 -158 c 0
EndSplineSet
EndChar

StartChar: Wcircumflex
Encoding: 372 372 308
GlifName: W_circumflex
Width: 1226
Flags: W
HStem: 0 21G<268.285 489.639 742.235 961.63> 805 20G<159 369.049 654.731 807.332 1093.08 1309>
LayerCount: 2
Fore
SplineSet
745 0 m 1
 681 463 l 1
 481 0 l 1
 271 0 l 1
 159 825 l 1
 367 825 l 1
 425 259 l 1
 429 259 l 1
 663 825 l 1
 805 825 l 1
 871 259 l 1
 877 259 l 1
 1101 825 l 1
 1309 825 l 1
 953 0 l 1
 745 0 l 1
526 941 m 1
 770 1103 l 1
 968 941 l 1
 887 850 l 1
 749 962 l 1
 581 850 l 1
 526 941 l 1
EndSplineSet
EndChar

StartChar: wcircumflex
Encoding: 373 373 309
GlifName: wcircumflex
Width: 1105
Flags: W
HStem: 0 21G<305.242 444.849 663.038 802.684> 493 20G<114 324.065 554.159 693.921 924.014 1140>
LayerCount: 2
Fore
SplineSet
433 0 m 1
 313 0 l 1
 114 513 l 1
 318 513 l 1
 402 236 l 1
 566 513 l 1
 688 513 l 1
 770 236 l 1
 936 513 l 1
 1140 513 l 1
 789 0 l 1
 669 0 l 1
 590 265 l 1
 433 0 l 1
417 649 m 1
 662 811 l 1
 859 649 l 1
 777 558 l 1
 641 670 l 1
 471 558 l 1
 417 649 l 1
EndSplineSet
EndChar

StartChar: Ycircumflex
Encoding: 374 374 310
GlifName: Y_circumflex
Width: 868
Flags: W
HStem: 0 21G<339 529.973> 805 20G<157 393.076 711.015 953>
LayerCount: 2
Fore
SplineSet
157 825 m 1
 383 825 l 1
 516 561 l 1
 727 825 l 1
 953 825 l 1
 582 370 l 1
 527 0 l 1
 339 0 l 1
 394 370 l 1
 157 825 l 1
357 962 m 1
 601 1124 l 1
 799 962 l 1
 718 871 l 1
 580 983 l 1
 412 871 l 1
 357 962 l 1
EndSplineSet
EndChar

StartChar: ycircumflex
Encoding: 375 375 311
GlifName: ycircumflex
Width: 750
Flags: W
HStem: -260 21G<65 282.376> 493 20G<113 324.909 569.757 786>
LayerCount: 2
Fore
SplineSet
582 513 m 1
 786 513 l 1
 269 -260 l 1
 65 -260 l 1
 292 80 l 1
 113 513 l 1
 317 513 l 1
 421 250 l 1
 582 513 l 1
250 662 m 1
 495 824 l 1
 692 662 l 1
 610 571 l 1
 474 683 l 1
 304 571 l 1
 250 662 l 1
EndSplineSet
EndChar

StartChar: Ydieresis
Encoding: 376 376 312
GlifName: Y_dieresis
Width: 868
Flags: W
HStem: 0 21G<339 529.973> 805 20G<157 393.076 711.015 953> 919 184<414.29 510.303 652.29 748.303>
VStem: 370 184<961.329 1058.79> 608 184<961.329 1058.79>
LayerCount: 2
Fore
SplineSet
157 825 m 1
 383 825 l 1
 516 561 l 1
 727 825 l 1
 953 825 l 1
 582 370 l 1
 527 0 l 1
 339 0 l 1
 394 370 l 1
 157 825 l 1
714 1103 m 0
 765 1103 800 1062 792 1011 c 0
 784 960 738 919 687 919 c 0
 636 919 600 960 608 1011 c 0
 616 1062 663 1103 714 1103 c 0
476 1103 m 0
 527 1103 562 1062 554 1011 c 0
 546 960 500 919 449 919 c 0
 398 919 362 960 370 1011 c 0
 378 1062 425 1103 476 1103 c 0
EndSplineSet
EndChar

StartChar: Zacute
Encoding: 377 377 313
GlifName: Z_acute
Width: 814
Flags: W
HStem: 0 165<390 748> 660 165<218 543>
LayerCount: 2
Fore
SplineSet
897 825 m 1
 390 165 l 1
 772 165 l 1
 748 0 l 1
 38 0 l 1
 543 660 l 1
 193 660 l 1
 218 825 l 1
 897 825 l 1
403 976 m 1
 632 1152 l 1
 706 1037 l 1
 448 899 l 1
 403 976 l 1
EndSplineSet
EndChar

StartChar: zacute
Encoding: 378 378 314
GlifName: zacute
Width: 630
Flags: W
HStem: 0 135<355 569> 378 135<155 347> 820 20G<523.091 562.043>
LayerCount: 2
Fore
SplineSet
665 513 m 1
 355 135 l 1
 589 135 l 1
 569 0 l 1
 37 0 l 1
 347 378 l 1
 135 378 l 1
 155 513 l 1
 665 513 l 1
321 664 m 1
 549 840 l 1
 624 725 l 1
 366 587 l 1
 321 664 l 1
EndSplineSet
EndChar

StartChar: Zdotaccent
Encoding: 379 379 315
GlifName: Z_dotaccent
Width: 814
Flags: W
HStem: 0 165<390 748> 660 165<218 543> 919 184<507.29 603.303>
VStem: 463 184<961.329 1058.79>
LayerCount: 2
Fore
SplineSet
897 825 m 1
 390 165 l 1
 772 165 l 1
 748 0 l 1
 38 0 l 1
 543 660 l 1
 193 660 l 1
 218 825 l 1
 897 825 l 1
569 1103 m 0
 620 1103 655 1062 647 1011 c 0
 639 960 593 919 542 919 c 0
 491 919 455 960 463 1011 c 0
 471 1062 518 1103 569 1103 c 0
EndSplineSet
EndChar

StartChar: zdotaccent
Encoding: 380 380 316
GlifName: zdotaccent
Width: 630
Flags: W
HStem: 0 135<354 568> 378 135<155 347> 607 184<367.29 463.303>
VStem: 323 184<649.329 746.79>
LayerCount: 2
Fore
SplineSet
664 513 m 1
 354 135 l 1
 588 135 l 1
 568 0 l 1
 37 0 l 1
 347 378 l 1
 135 378 l 1
 155 513 l 1
 664 513 l 1
429 791 m 0
 480 791 515 750 507 699 c 0
 499 648 453 607 402 607 c 0
 351 607 315 648 323 699 c 0
 331 750 378 791 429 791 c 0
EndSplineSet
EndChar

StartChar: Zcaron
Encoding: 381 381 317
GlifName: Z_caron
Width: 814
Flags: W
HStem: 0 165<390 748> 660 165<218 543>
LayerCount: 2
Fore
SplineSet
897 825 m 1
 390 165 l 1
 772 165 l 1
 748 0 l 1
 38 0 l 1
 543 660 l 1
 193 660 l 1
 218 825 l 1
 897 825 l 1
423 1152 m 1
 560 1040 l 1
 729 1152 l 1
 784 1061 l 1
 539 899 l 1
 342 1061 l 1
 423 1152 l 1
EndSplineSet
EndChar

StartChar: zcaron
Encoding: 382 382 318
GlifName: zcaron
Width: 630
Flags: W
HStem: 0 135<355 569> 378 135<155 347> 820 20G<267.198 309.286 560.643 603.088>
LayerCount: 2
Fore
SplineSet
665 513 m 1
 355 135 l 1
 589 135 l 1
 569 0 l 1
 37 0 l 1
 347 378 l 1
 135 378 l 1
 155 513 l 1
 665 513 l 1
285 840 m 1
 421 728 l 1
 591 840 l 1
 646 749 l 1
 400 587 l 1
 204 749 l 1
 285 840 l 1
EndSplineSet
EndChar

StartChar: longs
Encoding: 383 383 319
GlifName: longs
Width: 627
Flags: W
HStem: 0 21G<176 355.946> 468 135<131 245> 740 120<462 693>
LayerCount: 2
Fore
SplineSet
711 860 m 1
 693 740 l 1
 462 740 l 1
 353 0 l 1
 176 0 l 1
 245 468 l 1
 111 468 l 1
 131 603 l 1
 265 603 l 1
 303 860 l 1
 711 860 l 1
EndSplineSet
EndChar

StartChar: uni0180
Encoding: 384 384 320
GlifName: uni0180
Width: 768
Flags: W
HStem: -15 151<365.808 506.839> 0 21G<121 203.154> 377 149<395.504 535.478> 628 114<157 214 408 516>
VStem: 121 76<0 47.2688>
LayerCount: 2
Fore
SplineSet
571 256 m 0xb8
 581 327 536 377 469 377 c 0
 411 377 357 339 338 282 c 1
 330 231 l 1
 332 174 373 136 433 136 c 0
 505 136 561 186 571 256 c 0xb8
408 742 m 1
 533 742 l 1
 516 628 l 1
 390 628 l 1
 375 526 l 1
 445 530 514 528 544 528 c 0
 694 528 781 406 759 256 c 0
 737 106 614 -15 464 -15 c 0xb8
 334 -15 258 13 213 52 c 1
 204 46 197 0 197 0 c 1
 121 0 l 1x78
 214 628 l 1
 140 628 l 1
 157 742 l 1
 231 742 l 1
 247 850 l 1
 424 850 l 1
 408 742 l 1
EndSplineSet
EndChar

StartChar: uni0181
Encoding: 385 385 321
GlifName: uni0181
Width: 745
Flags: W
HStem: 0 145<320 477.982> 340 162<373 483.696> 680 145<399 502.198>
LayerCount: 2
Fore
SplineSet
320 145 m 1
 379 145 l 2
 468 145 521 172 531 237 c 0
 542 313 497 340 408 340 c 2
 349 340 l 1
 320 145 l 1
373 502 m 1
 388 502 l 2
 469 502 517 527 527 596 c 0
 536 655 496 680 414 680 c 2
 399 680 l 1
 373 502 l 1
233 825 m 1
 489 825 l 2
 631 825 735 772 712 615 c 0
 701 539 658 474 583 438 c 1
 683 420 748 363 728 230 c 0
 708 94 595 0 424 0 c 2
 111 0 l 1
 186 510 l 1
 131 635 l 1
 233 825 l 1
EndSplineSet
EndChar

StartChar: uni0182
Encoding: 386 386 322
GlifName: uni0182
Width: 698
Flags: W
HStem: 0 150<272 421.949> 369 150<327 447.507> 740 120<359 557>
LayerCount: 2
Fore
SplineSet
304 369 m 1
 272 150 l 1
 325 150 l 2
 399 150 472 175 485 260 c 0
 497 344 431 369 357 369 c 2
 304 369 l 1
189 860 m 1
 575 860 l 1
 557 740 l 1
 359 740 l 1
 327 519 l 1
 440 519 l 2
 601 519 708 424 683 254 c 0
 658 83 524 0 363 0 c 2
 62 0 l 1
 189 860 l 1
EndSplineSet
EndChar

StartChar: uni0183
Encoding: 387 387 323
GlifName: uni0183
Width: 714
Flags: W
HStem: -15 151<301.808 442.839> 0 21G<57 139.154> 377 149<331.504 471.478> 740 120<343 524>
VStem: 57 76<0 47.4016>
LayerCount: 2
Fore
SplineSet
507 256 m 0xb8
 517 327 472 377 405 377 c 0
 347 377 293 339 274 282 c 1
 266 231 l 1
 268 174 309 136 369 136 c 0
 441 136 497 186 507 256 c 0xb8
57 0 m 1x78
 184 860 l 1
 577 860 l 1
 524 740 l 1
 343 740 l 1
 311 526 l 1
 381 530 450 528 480 528 c 0
 630 528 717 406 695 256 c 0
 673 106 550 -15 400 -15 c 0xb8
 270 -15 194 13 149 52 c 1
 140 46 133 0 133 0 c 1
 57 0 l 1x78
EndSplineSet
EndChar

StartChar: uni0184
Encoding: 388 388 324
GlifName: uni0184
Width: 750
Flags: W
HStem: 0 150<323 473.949> 369 150<378 499.507> 805 20G<224.053 423>
LayerCount: 2
Fore
SplineSet
355 369 m 1
 323 150 l 1
 377 150 l 2
 451 150 524 175 537 260 c 0
 549 344 483 369 409 369 c 2
 355 369 l 1
113 0 m 1
 188 510 l 1
 131 635 l 1
 235 825 l 1
 423 825 l 1
 378 519 l 1
 492 519 l 2
 653 519 760 424 735 254 c 0
 710 83 576 0 415 0 c 2
 113 0 l 1
EndSplineSet
EndChar

StartChar: uni0185
Encoding: 389 389 325
GlifName: uni0185
Width: 766
Flags: W
HStem: -15 151<365.808 506.839> 0 21G<121 203.154> 377 149<395.504 535.478>
VStem: 121 76<0 47.3919>
LayerCount: 2
Fore
SplineSet
571 256 m 0xb0
 581 327 536 377 469 377 c 0
 411 377 357 339 338 282 c 1
 330 231 l 1
 332 174 373 136 433 136 c 0
 505 136 561 186 571 256 c 0xb0
195 501 m 1
 137 624 l 1
 247 850 l 1
 424 850 l 1
 375 526 l 1
 445 530 514 528 544 528 c 0
 694 528 781 406 759 256 c 0
 737 106 614 -15 464 -15 c 0xb0
 334 -15 258 13 213 52 c 1
 204 46 197 0 197 0 c 1
 121 0 l 1x70
 195 501 l 1
EndSplineSet
EndChar

StartChar: uni0186
Encoding: 390 390 326
GlifName: uni0186
Width: 783
Flags: W
HStem: -15 185<125.652 399.813> 655 185<223.762 462.807>
LayerCount: 2
Fore
SplineSet
49 25 m 1
 116 210 l 1
 116 210 184 170 280 170 c 0
 469 170 572 302 588 413 c 0
 604 523 541 655 352 655 c 0
 256 655 176 615 176 615 c 1
 163 800 l 1
 163 800 228 840 407 840 c 0
 641 840 827 648 792 411 c 0
 757 175 514 -15 281 -15 c 0
 102 -15 49 25 49 25 c 1
EndSplineSet
EndChar

StartChar: uni0187
Encoding: 391 391 327
GlifName: uni0187
Width: 890
Flags: W
HStem: -15 185<437.293 676.238> 655 185<500.011 774.348>
LayerCount: 2
Fore
SplineSet
737 25 m 1
 737 25 672 -15 493 -15 c 0
 260 -15 73 175 108 411 c 0
 143 648 385 840 619 840 c 0
 798 840 851 800 851 800 c 1
 912 860 958 885 976 864 c 1
 962 774 l 1
 953 795 903 818 835 756 c 1
 784 615 l 1
 784 615 716 655 620 655 c 0
 431 655 328 523 312 413 c 0
 296 302 359 170 548 170 c 0
 644 170 724 210 724 210 c 1
 737 25 l 1
EndSplineSet
EndChar

StartChar: uni0188
Encoding: 392 392 328
GlifName: uni0188
Width: 672
Flags: W
HStem: -15 145<316.273 461.018> 383 145<347.429 511.214>
LayerCount: 2
Fore
SplineSet
577 480 m 1
 577 480 684 565 702 544 c 1
 689 454 l 1
 681 473 623 497 559 451 c 1
 499 359 l 1
 499 359 470 383 417 383 c 0
 350 383 286 327 276 257 c 0
 266 186 312 130 379 130 c 0
 432 130 469 154 469 154 c 1
 511 31 l 1
 511 31 446 -15 332 -15 c 0
 184 -15 66 105 88 255 c 0
 110 406 263 528 412 528 c 0
 526 528 577 480 577 480 c 1
EndSplineSet
EndChar

StartChar: uni0189
Encoding: 393 393 329
GlifName: uni0189
Width: 835
Flags: W
HStem: 0 168<341 477.581> 336 153<118 178 388 475> 657 168<413 540.768>
CounterMasks: 1 e0
LayerCount: 2
Fore
SplineSet
200 489 m 1
 250 825 l 1
 489 825 l 2
 715 825 879 653 844 413 c 0
 808 172 594 0 367 0 c 2
 128 0 l 1
 178 336 l 1
 96 336 l 1
 118 489 l 1
 200 489 l 1
643 412 m 0
 664 556 616 657 413 657 c 1
 388 489 l 1
 497 489 l 1
 475 336 l 1
 366 336 l 1
 341 168 l 1
 544 168 622 268 643 412 c 0
EndSplineSet
EndChar

StartChar: uni018A
Encoding: 394 394 330
GlifName: uni018A_
Width: 839
Flags: W
HStem: 0 168<345 481.581> 657 168<417 544.768>
LayerCount: 2
Fore
SplineSet
647 412 m 0
 668 556 620 657 417 657 c 1
 345 168 l 1
 548 168 626 268 647 412 c 0
254 825 m 1
 493 825 l 2
 719 825 883 653 848 413 c 0
 812 172 598 0 371 0 c 2
 132 0 l 1
 204 490 l 1
 127 615 l 1
 254 825 l 1
EndSplineSet
EndChar

StartChar: uni018B
Encoding: 395 395 331
GlifName: uni018B_
Width: 696
Flags: W
HStem: 0 150<324.492 466> 369 150<350.008 498> 740 120<373 553>
LayerCount: 2
Fore
SplineSet
498 369 m 1
 446 369 l 2
 372 369 298 344 286 260 c 0
 273 175 340 150 414 150 c 2
 466 150 l 1
 498 369 l 1
759 860 m 1
 632 0 l 1
 332 0 l 2
 171 0 63 83 88 254 c 0
 113 424 248 519 409 519 c 2
 521 519 l 1
 553 740 l 1
 355 740 l 1
 373 860 l 1
 759 860 l 1
EndSplineSet
EndChar

StartChar: uni018C
Encoding: 396 396 332
GlifName: uni018C_
Width: 714
Flags: W
HStem: -15 151<235 459.899> 0 21G<581 659.953> 377 151<348.249 521.829> 740 120<408 589>
VStem: 581 76<0 47.4016>
LayerCount: 2
Fore
SplineSet
283 256 m 0xb8
 273 186 313 136 385 136 c 0
 445 136 498 174 516 231 c 1
 524 282 l 1
 521 339 479 377 421 377 c 0
 354 377 293 327 283 256 c 0xb8
657 0 m 1x78
 581 0 l 1x78
 581 0 588 46 581 52 c 1
 524 13 440 -15 310 -15 c 0xb8
 160 -15 73 106 95 256 c 0
 117 406 240 528 390 528 c 0
 420 528 491 530 559 526 c 1
 589 740 l 1
 408 740 l 1
 391 860 l 5
 784 860 l 1
 657 0 l 1x78
EndSplineSet
EndChar

StartChar: uni018D
Encoding: 397 397 333
GlifName: uni018D_
Width: 710
Flags: W
HStem: 39 151<236 440.399> 431 151<349.249 486>
LayerCount: 2
Fore
SplineSet
284 310 m 0
 274 240 314 190 386 190 c 0
 455 190 513 240 523 310 c 0
 533 381 488 431 422 431 c 0
 355 431 294 381 284 310 c 0
708 391 m 1
 656 40 l 2
 631 -132 455 -261 279 -275 c 0
 253 -277 156 -261 127 -246 c 1
 173 -104 l 1
 243 -124 255 -133 333 -120 c 0
 406 -108 468 -38 481 53 c 2
 486 91 l 1
 442 49 381 39 311 39 c 0
 161 39 74 160 96 310 c 0
 118 460 241 582 391 582 c 0
 528 582 704 546 708 391 c 1
EndSplineSet
EndChar

StartChar: uni018E
Encoding: 398 398 334
GlifName: uni018E_
Width: 590
Flags: W
HStem: 0 165<78 362> 331 165<139 387> 660 165<176 435>
LayerCount: 2
Fore
SplineSet
176 825 m 1
 648 825 l 1
 526 0 l 1
 54 0 l 1
 78 165 l 1
 362 165 l 1
 387 331 l 1
 115 331 l 1
 139 496 l 1
 411 496 l 1
 435 660 l 1
 151 660 l 1
 176 825 l 1
EndSplineSet
EndChar

StartChar: uni018F
Encoding: 399 399 335
GlifName: uni018F_
Width: 798
Flags: W
HStem: -15 144<343.198 473.286> 249 112<301 545>
LayerCount: 2
Fore
SplineSet
545 249 m 1
 301 249 l 1
 301 181 339 129 404 129 c 0
 480 129 532 190 545 249 c 1
282 429 m 1
 132 496 l 1
 222 617 348 664 490 664 c 0
 684 664 819 511 792 325 c 0
 764 137 584 -15 390 -15 c 0
 195 -15 66 122 101 361 c 1
 567 361 l 1
 583 469 444 570 282 429 c 1
EndSplineSet
EndChar

StartChar: uni0190
Encoding: 400 400 336
GlifName: uni0190
Width: 705
Flags: W
HStem: -15 162<296.446 449.417> 371 123<371.481 446> 689 151<389.298 519.763>
LayerCount: 2
Fore
SplineSet
377 147 m 0
 501 147 530 273 530 273 c 1
 692 188 l 1
 692 188 606 -15 352 -15 c 0
 175 -15 63 98 86 256 c 0
 99 343 149 406 219 445 c 1
 179 480 159 532 169 600 c 0
 190 740 318 840 475 840 c 0
 706 840 721 659 721 659 c 1
 563 587 l 1
 563 587 559 689 455 689 c 0
 333 689 257 494 464 494 c 1
 446 371 l 1
 190 379 202 147 377 147 c 0
EndSplineSet
EndChar

StartChar: uni0191
Encoding: 401 401 337
GlifName: uni0191
Width: 653
Flags: W
HStem: 331 165<389 632> 660 165<413 703>
LayerCount: 2
Fore
SplineSet
727 825 m 1
 703 660 l 1
 413 660 l 1
 389 496 l 1
 657 496 l 1
 632 331 l 1
 364 331 l 1
 328 85 l 2
 310 -37 219 -240 74 -240 c 0
 43 -240 -3 -112 26 -98 c 0
 103 -60 121 0 140 85 c 1
 249 825 l 1
 727 825 l 1
EndSplineSet
EndChar

StartChar: florin
Encoding: 402 402 338
GlifName: florin
Width: 657
Flags: W
HStem: 296 150<267 277 505 585>
LayerCount: 2
Fore
SplineSet
459 296 m 1
 459 125 85 -131 13 -151 c 1
 60 8 l 1
 137 56 274 204 277 296 c 1
 203 296 l 1
 267 446 l 1
 323 446 l 1
 338 548 584 768 726 755 c 1
 677 596 l 1
 663 642 505 515 505 446 c 1
 649 446 l 1
 585 296 l 1
 459 296 l 1
EndSplineSet
EndChar

StartChar: uni0194
Encoding: 404 404 339
GlifName: uni0194
Width: 938
Flags: W
HStem: 0 120<370 593> 805 20G<210 444.578 721.556 972>
LayerCount: 2
Fore
SplineSet
902 0 m 1
 36 0 l 1
 414 444 l 1
 210 825 l 1
 434 825 l 1
 553 600 l 1
 738 825 l 1
 972 825 l 1
 646 444 l 1
 902 0 l 1
593 120 m 1
 504 281 l 1
 370 120 l 1
 593 120 l 1
EndSplineSet
EndChar

StartChar: uni0195
Encoding: 405 405 340
GlifName: uni0195
Width: 1054
Flags: W
HStem: -148 144<649.524 784.747> 0 21G<62 241.966> 390 138<378.573 508.321>
LayerCount: 2
Fore
SplineSet
366 860 m 1
 307 459 l 1
 353 499 410 528 466 528 c 0
 560 528 684 481 663 338 c 2
 634 136 l 2
 619 35 640 -4 714 -4 c 0
 788 -4 822 35 836 136 c 2
 894 528 l 1
 1071 528 l 1
 1007 93 l 2
 983 -79 885 -148 693 -148 c 0
 501 -148 426 -79 451 93 c 2
 479 290 l 2
 487 341 459 390 402 390 c 0
 349 390 290 341 282 290 c 2
 239 0 l 1
 62 0 l 1
 189 860 l 1
 366 860 l 1
EndSplineSet
EndChar

StartChar: uni0196
Encoding: 406 406 341
GlifName: uni0196
Width: 385
Flags: W
HStem: 0 21G<253 311>
VStem: 90 285
LayerCount: 2
Fore
SplineSet
90 199 m 2
 198 940 l 1
 375 940 l 1
 264 191 l 2
 257 140 347 113 362 113 c 1
 362 113 327 21 295 0 c 1
 211 0 171 -4 153 3 c 0
 89 29 81 109 90 199 c 2
EndSplineSet
EndChar

StartChar: uni0197
Encoding: 407 407 342
GlifName: uni0197
Width: 583
Flags: W
HStem: 0 21G<194 384.971> 350 116<115 246 451 584> 805 20G<313.047 504>
LayerCount: 2
Fore
SplineSet
434 350 m 1
 382 0 l 1
 194 0 l 1
 246 350 l 1
 98 350 l 1
 115 466 l 1
 263 466 l 1
 316 825 l 1
 504 825 l 1
 451 466 l 1
 601 466 l 1
 584 350 l 1
 434 350 l 1
EndSplineSet
EndChar

StartChar: uni0198
Encoding: 408 408 343
GlifName: uni0198
Width: 847
Flags: W
HStem: 0 21G<59 249.959 539.449 811> 805 20G<521 559.932 636.054 881>
LayerCount: 2
Fore
SplineSet
59 0 m 1
 147 597 l 2
 193 906 458 825 584 825 c 1
 442 707 l 1
 393 707 351 702 330 560 c 2
 309 419 l 1
 653 825 l 1
 881 825 l 1
 523 419 l 1
 811 0 l 1
 551 0 l 1
 309 419 l 1
 247 0 l 1
 59 0 l 1
EndSplineSet
EndChar

StartChar: uni0199
Encoding: 409 409 344
GlifName: uni0199
Width: 707
Flags: W
HStem: 0 21G<61 240.927 425.927 671> 493 20G<469.983 723> 801 124<373.031 506>
LayerCount: 2
Fore
SplineSet
723 513 m 1
 443 268 l 1
 671 0 l 1
 443 0 l 1
 268 205 l 1
 238 0 l 1
 61 0 l 1
 172 752 l 2
 182 823 293 922 506 925 c 1
 523 801 l 1
 450 828 354 786 349 752 c 2
 287 334 l 1
 493 513 l 1
 723 513 l 1
EndSplineSet
EndChar

StartChar: uni019A
Encoding: 410 410 345
GlifName: uni019A_
Width: 445
Flags: W
HStem: 0 21G<269 349.5> 391 116<120 188 381 445> 805 20G<247.107 426>
LayerCount: 2
Fore
SplineSet
462 507 m 1
 445 391 l 1
 365 391 l 1
 343 234 l 2
 333 169 404 164 415 163 c 0
 445 161 365 0 334 0 c 0
 204 0 142 86 163 225 c 2
 188 391 l 1
 103 391 l 1
 120 507 l 1
 204 507 l 1
 250 825 l 1
 426 825 l 1
 381 507 l 1
 462 507 l 1
EndSplineSet
EndChar

StartChar: uni019B
Encoding: 411 411 346
GlifName: uni019B_
Width: 816
Flags: W
LayerCount: 2
Fore
SplineSet
574 2 m 1
 491 265 l 1
 309 2 l 1
 105 2 l 1
 412 435 l 1
 387 503 l 1
 159 391 l 1
 114 508 l 1
 343 620 l 1
 285 775 l 1
 489 775 l 1
 515 705 l 1
 728 809 l 1
 773 692 l 1
 560 587 l 1
 778 2 l 1
 574 2 l 1
EndSplineSet
EndChar

StartChar: uni019C
Encoding: 412 412 347
GlifName: uni019C_
Width: 996
Flags: W
HStem: 0 21G<114 324.63 675.252 884.752> 805 20G<160.836 350 883.46 1076>
LayerCount: 2
Fore
SplineSet
350 825 m 1
 317 336 l 1
 322 336 l 1
 562 820 l 1
 674 820 l 1
 772 336 l 1
 777 336 l 1
 888 825 l 1
 1076 825 l 1
 880 0 l 1
 680 0 l 1
 567 476 l 1
 314 0 l 1
 114 0 l 1
 162 825 l 1
 350 825 l 1
EndSplineSet
EndChar

StartChar: uni019E
Encoding: 414 414 348
GlifName: uni019E_
Width: 683
Flags: W
HStem: 0 21G<60 246.951> 384 144<331.135 458.162> 500 20G<134.038 277>
LayerCount: 2
Fore
SplineSet
598 -171 m 1xc0
 421 -171 l 1
 490 299 503 384 403 384 c 0xc0
 329 384 295 345 280 244 c 2
 244 0 l 1
 60 0 l 1
 137 520 l 1
 277 520 l 1xa0
 273 491 l 1
 310 514 359 528 424 528 c 0
 616 528 690 459 665 287 c 2
 598 -171 l 1xc0
EndSplineSet
EndChar

StartChar: uni019F
Encoding: 415 415 349
GlifName: uni019F_
Width: 930
Flags: W
HStem: -15 198<406.291 579.903> 363 96<324 722> 642 198<467.504 642.123>
LayerCount: 2
Fore
SplineSet
108 413 m 0
 142 645 355 840 587 840 c 0
 819 840 973 645 939 413 c 0
 905 181 693 -15 461 -15 c 0
 229 -15 74 181 108 413 c 0
324 459 m 1
 737 459 l 1
 733 562 661 642 558 642 c 0
 455 642 359 562 324 459 c 1
722 363 m 1
 311 363 l 1
 317 261 388 183 490 183 c 0
 592 183 686 261 722 363 c 1
EndSplineSet
EndChar

StartChar: uni01A4
Encoding: 420 420 350
GlifName: uni01A_4
Width: 836
Flags: W
HStem: 0 21G<206 397.007> 306 150<462 611.992> 675 150<494 636.508>
LayerCount: 2
Fore
SplineSet
300 633 m 1
 237 645 214 581 191 549 c 1
 131 614 l 1
 127 680 234 816 328 825 c 1
 629 825 l 2
 790 825 899 742 874 571 c 0
 849 401 714 306 553 306 c 2
 440 306 l 1
 394 0 l 1
 206 0 l 1
 300 633 l 1
462 456 m 1
 515 456 l 2
 589 456 663 481 675 565 c 0
 688 650 621 675 547 675 c 2
 494 675 l 1
 462 456 l 1
EndSplineSet
EndChar

StartChar: uni01A7
Encoding: 423 423 351
GlifName: uni01A_7
Width: 708
Flags: W
LayerCount: 2
Fore
SplineSet
612 252 m 1
 683 94 l 1
 308 -145 55 54 84 251 c 0
 118 481 488 505 501 595 c 0
 511 664 376 719 237 612 c 1
 184 762 l 1
 544 950 710 765 684 588 c 0
 656 399 307 371 288 240 c 0
 270 117 491 175 612 252 c 1
EndSplineSet
EndChar

StartChar: uni01A8
Encoding: 424 424 352
GlifName: uni01A_8
Width: 529
Flags: W
LayerCount: 2
Fore
SplineSet
443 175 m 1
 497 54 l 1
 289 -87 49 9 71 160 c 0
 89 283 329 311 338 373 c 0
 342 397 315 434 170 372 c 1
 129 488 l 1
 401 602 521 460 507 363 c 0
 492 261 269 231 257 153 c 0
 252 119 310 85 443 175 c 1
EndSplineSet
EndChar

StartChar: uni01A9
Encoding: 425 425 353
GlifName: uni01A_9
Width: 601
Flags: W
LayerCount: 2
Fore
SplineSet
646 655 m 1
 348 620 l 1
 347 615 l 1
 486 463 l 1
 471 362 l 1
 287 210 l 1
 286 206 l 1
 574 170 l 1
 549 1 l 1
 64 68 l 1
 91 248 l 1
 273 412 l 1
 139 577 l 1
 166 757 l 1
 671 824 l 1
 646 655 l 1
EndSplineSet
EndChar

StartChar: uni01AC
Encoding: 428 428 354
GlifName: uni01A_C_
Width: 761
Flags: W
HStem: 0 21G<239 429.939> 660 165<165 336 524 705.097>
LayerCount: 2
Fore
SplineSet
165 825 m 1
 745 825 l 2
 846 822 851 614 715 506 c 1
 672 566 l 1
 715 617 728 659 652 660 c 2
 524 660 l 1
 427 0 l 1
 239 0 l 1
 336 660 l 1
 140 660 l 1
 165 825 l 1
EndSplineSet
EndChar

StartChar: uni01AD
Encoding: 429 429 355
GlifName: uni01A_D_
Width: 515
Flags: W
HStem: -15 159<222.5 404.689> 378 135<122 176 373 461> 655 148<408.352 513>
LayerCount: 2
Fore
SplineSet
373 513 m 1
 481 513 l 1
 461 378 l 1
 353 378 l 1
 329 215 l 2
 322 167 330 144 358 144 c 0
 381 144 405 160 405 160 c 1
 428 17 l 1
 428 17 366 -15 293 -15 c 0
 152 -15 134 90 147 181 c 2
 176 378 l 1
 102 378 l 1
 122 513 l 1
 196 513 l 1
 224 705 300 803 440 803 c 0
 530 803 594 787 594 787 c 1
 513 655 l 1
 449 655 l 2
 394 655 383 581 373 513 c 1
EndSplineSet
EndChar

StartChar: uni01B1
Encoding: 433 433 356
GlifName: uni01B_1
Width: 1063
Flags: W
HStem: 2 169<492.109 642.9> 655 117<155 272 1000 1116>
LayerCount: 2
Fore
SplineSet
768 772 m 1
 1132 772 l 1
 1116 655 l 1
 1000 655 l 1
 1011 610 1018 540 1005 449 c 0
 970 215 759 2 537 2 c 0
 316 2 170 216 204 449 c 0
 217 540 247 610 272 655 c 1
 138 655 l 1
 155 772 l 1
 519 772 l 1
 475 716 396 574 382 478 c 0
 354 289 460 171 564 171 c 0
 667 171 809 289 837 478 c 0
 851 574 806 708 768 772 c 1
EndSplineSet
EndChar

StartChar: uni01B2
Encoding: 434 434 357
GlifName: uni01B_2
Width: 764
Flags: W
HStem: -15 185<326.84 499.952> 805 20G<177.03 368>
LayerCount: 2
Fore
SplineSet
693 675 m 1
 745 293 l 2
 771 100 588 -15 378 -15 c 0
 168 -15 71 89 101 293 c 2
 180 825 l 1
 368 825 l 1
 297 348 l 2
 277 210 313 170 405 170 c 0
 497 170 589 220 565 348 c 2
 505 675 l 1
 693 675 l 1
EndSplineSet
EndChar

StartChar: uni01B3
Encoding: 435 435 358
GlifName: uni01B_3
Width: 1009
Flags: W
HStem: 0 21G<340 530.973> 805 20G<158 394.076>
LayerCount: 2
Fore
SplineSet
728 825 m 1
 739 848 1060 823 1077 731 c 1
 970 588 l 1
 939 647 890 673 837 682 c 1
 583 370 l 1
 528 0 l 1
 340 0 l 1
 395 370 l 1
 158 825 l 1
 384 825 l 1
 517 561 l 1
 728 825 l 1
EndSplineSet
EndChar

StartChar: uni01B4
Encoding: 436 436 359
GlifName: uni01B_4
Width: 885
Flags: W
HStem: -260 21G<67 284.364> 493 20G<115 326.985 572.757 917>
LayerCount: 2
Fore
SplineSet
700 382 m 2
 271 -260 l 1
 67 -260 l 1
 295 80 l 1
 115 513 l 1
 319 513 l 1
 424 250 l 1
 585 513 l 1
 917 513 l 1
 829 380 l 1
 795 444 754 458 700 382 c 2
EndSplineSet
EndChar

StartChar: uni01B5
Encoding: 437 437 360
GlifName: uni01B_5
Width: 814
Flags: W
HStem: 0 165<390 748> 350 116<237 306 622 706> 660 165<218 543>
LayerCount: 2
Fore
SplineSet
533 350 m 1
 390 165 l 1
 772 165 l 1
 748 0 l 1
 38 0 l 1
 306 350 l 1
 220 350 l 1
 237 466 l 1
 395 466 l 1
 543 660 l 1
 193 660 l 1
 218 825 l 1
 897 825 l 1
 622 466 l 1
 723 466 l 1
 706 350 l 1
 533 350 l 1
EndSplineSet
EndChar

StartChar: uni01B6
Encoding: 438 438 361
GlifName: uni01B_6
Width: 633
Flags: W
HStem: 0 135<356 570> 214 87<178 214 491 530> 378 135<157 349>
LayerCount: 2
Fore
SplineSet
421 214 m 1
 356 135 l 1
 590 135 l 1
 570 0 l 1
 39 0 l 1
 214 214 l 1
 166 214 l 1
 178 301 l 1
 285 301 l 1
 349 378 l 1
 137 378 l 1
 157 513 l 1
 666 513 l 1
 491 301 l 1
 542 301 l 1
 530 214 l 1
 421 214 l 1
EndSplineSet
EndChar

StartChar: uni01B7
Encoding: 439 439 362
GlifName: uni01B_7
Width: 707
Flags: W
HStem: -15 162<302.998 457.816> 371 123<386 485.304> 689 151<300 513.026>
LayerCount: 2
Fore
SplineSet
371 147 m 0
 546 147 626 379 368 371 c 1
 386 494 l 1
 593 494 575 689 453 689 c 2
 300 689 l 1
 204 840 l 1
 477 840 l 2
 634 840 752 867 713 600 c 0
 703 532 667 480 617 445 c 1
 675 406 707 343 694 256 c 0
 671 98 525 -15 348 -15 c 0
 94 -15 68 188 68 188 c 1
 254 273 l 1
 254 273 247 147 371 147 c 0
EndSplineSet
EndChar

StartChar: uni01B8
Encoding: 440 440 363
GlifName: uni01B_8
Width: 706
Flags: W
HStem: -15 162<296.446 449.417> 371 123<371.481 446> 689 151<391.803 608>
LayerCount: 2
Fore
SplineSet
377 147 m 0
 501 147 530 273 530 273 c 1
 692 188 l 1
 692 188 606 -15 352 -15 c 0
 175 -15 63 98 86 256 c 0
 99 343 149 406 219 445 c 1
 179 480 159 532 169 600 c 0
 208 867 318 840 475 840 c 2
 748 840 l 1
 608 689 l 1
 455 689 l 2
 333 689 257 494 464 494 c 1
 446 371 l 1
 190 379 202 147 377 147 c 0
EndSplineSet
EndChar

StartChar: uni01B9
Encoding: 441 441 364
GlifName: uni01B_9
Width: 614
Flags: W
HStem: -15 138<258.8 396.978> 313 105<321.86 385> 583 128<334.064 523>
LayerCount: 2
Fore
SplineSet
327 123 m 0
 432 123 457 230 457 230 c 1
 594 158 l 1
 594 158 522 -15 306 -15 c 0
 156 -15 60 81 80 215 c 0
 91 289 134 343 193 376 c 1
 159 406 141 450 150 508 c 0
 184 735 277 711 410 711 c 2
 642 711 l 1
 523 583 l 1
 393 583 l 2
 289 583 225 418 401 418 c 1
 385 313 l 1
 168 320 179 123 327 123 c 0
EndSplineSet
EndChar

StartChar: uni01BB
Encoding: 443 443 365
GlifName: uni01B_B_
Width: 739
Flags: W
HStem: 0 165<403 685> 265 116<147 317 663 718> 524 21G<242.105 301.911> 681 159<393.555 516.075>
LayerCount: 2
Fore
SplineSet
452 681 m 0
 362 681 280 524 280 524 c 1
 136 600 l 1
 136 600 251 840 475 840 c 0
 758 840 766 654 751 550 c 0
 742 492 708 434 663 381 c 1
 735 381 l 1
 718 265 l 1
 543 265 l 1
 469 204 403 165 403 165 c 1
 709 165 l 1
 685 0 l 1
 43 0 l 1
 50 47 l 1
 50 47 187 148 317 265 c 1
 130 265 l 1
 147 381 l 1
 437 381 l 1
 497 445 542 506 548 550 c 0
 552 580 562 681 452 681 c 0
EndSplineSet
EndChar

StartChar: uni01BC
Encoding: 444 444 366
GlifName: uni01B_C_
Width: 691
Flags: W
HStem: -15 157<269.732 426.687> 660 165<423 708>
LayerCount: 2
Fore
SplineSet
354 142 m 0
 518 142 597 407 297 407 c 0
 228 407 179 392 152 381 c 1
 287 825 l 1
 733 825 l 1
 708 660 l 1
 423 660 l 1
 388 545 l 1
 572 545 711 485 677 256 c 0
 654 98 508 -15 331 -15 c 0
 155 -15 82 80 63 164 c 1
 223 236 l 1
 230 185 268 142 354 142 c 0
EndSplineSet
EndChar

StartChar: uni01BD
Encoding: 445 445 367
GlifName: uni01B_D_
Width: 601
Flags: W
HStem: -15 133<228.175 373.641> 559 140<365 608>
LayerCount: 2
Fore
SplineSet
305 118 m 0
 444 118 513 344 258 344 c 0
 199 344 157 331 135 322 c 1
 249 699 l 1
 628 699 l 1
 608 559 l 1
 365 559 l 1
 335 461 l 1
 491 461 610 410 581 215 c 0
 561 81 436 -15 286 -15 c 0
 136 -15 75 66 59 137 c 1
 194 198 l 1
 201 155 232 118 305 118 c 0
EndSplineSet
EndChar

StartChar: uni01BE
Encoding: 446 446 368
GlifName: uni01B_E_
Width: 643
Flags: W
HStem: 1 157<266.486 385.587> 431 90<198 286 503 572>
LayerCount: 2
Fore
SplineSet
226 261 m 1
 231 218 256 158 328 158 c 0
 373 158 415 192 422 240 c 0
 432 311 376 314 321 353 c 0
 290 375 285 401 286 431 c 1
 185 431 l 1
 198 521 l 1
 298 521 l 1
 309 598 l 1
 475 598 l 1
 464 521 l 1
 585 521 l 1
 572 431 l 1
 503 431 l 1
 584 390 640 332 626 240 c 0
 605 99 457 1 307 1 c 0
 84 1 68 185 69 190 c 1
 226 261 l 1
EndSplineSet
EndChar

StartChar: uni01BF
Encoding: 447 447 369
GlifName: uni01B_F_
Width: 590
Flags: W
LayerCount: 2
Fore
SplineSet
289 705 m 1
 621 483 l 1
 223 260 l 1
 238 362 l 1
 454 483 l 1
 274 603 l 1
 289 705 l 1
289 705 m 1
 185 2 l 1
 61 2 l 1
 165 703 l 1
 289 705 l 1
EndSplineSet
EndChar

StartChar: uni01C0
Encoding: 448 448 370
GlifName: uni01C_0
Width: 263
Flags: W
HStem: 0 21G<62 201.953>
VStem: 62 264
LayerCount: 2
Fore
SplineSet
62 0 m 1
 189 860 l 1
 326 860 l 1
 199 0 l 1
 62 0 l 1
EndSplineSet
EndChar

StartChar: uni01C1
Encoding: 449 449 371
GlifName: uni01C_1
Width: 493
Flags: W
HStem: 0 21G<62 201.953 292 431.953>
LayerCount: 2
Fore
SplineSet
62 0 m 1
 189 860 l 1
 326 860 l 1
 199 0 l 1
 62 0 l 1
292 0 m 1
 419 860 l 1
 556 860 l 1
 429 0 l 1
 292 0 l 1
EndSplineSet
EndChar

StartChar: uni01C2
Encoding: 450 450 372
GlifName: uni01C_2
Width: 474
Flags: W
HStem: 0 21G<166 305.921> 267 116<109 205 360 456> 445 116<135 232 386 483>
LayerCount: 2
Fore
SplineSet
232 445 m 1
 118 445 l 1
 135 561 l 1
 249 561 l 1
 293 860 l 1
 430 860 l 1
 386 561 l 1
 500 561 l 1
 483 445 l 1
 369 445 l 1
 360 383 l 1
 474 383 l 1
 456 267 l 1
 342 267 l 1
 303 0 l 1
 166 0 l 1
 205 267 l 1
 91 267 l 1
 109 383 l 1
 223 383 l 1
 232 445 l 1
EndSplineSet
EndChar

StartChar: uni01C3
Encoding: 451 451 373
GlifName: uni01C_3
Width: 315
Flags: W
HStem: -15 229<119.745 225.029>
VStem: 58 315
LayerCount: 2
Fore
SplineSet
189 214 m 0
 253 214 296 163 287 99 c 0
 278 36 219 -15 155 -15 c 0
 92 -15 49 36 58 99 c 0
 67 163 126 214 189 214 c 0
133 270 m 1
 196 860 l 1
 373 860 l 1
 262 270 l 1
 133 270 l 1
EndSplineSet
EndChar

StartChar: uni01C4
Encoding: 452 452 374
GlifName: uni01C_4
Width: 1365
Flags: W
HStem: 0 165<275 404.875 942 1300> 660 165<347 471.531 770 1095>
LayerCount: 2
Fore
SplineSet
577 412 m 0
 598 556 550 657 347 657 c 1
 275 168 l 1
 478 168 556 268 577 412 c 0
184 825 m 1
 422 825 l 2
 648 825 813 653 778 413 c 0
 742 172 527 0 300 0 c 2
 62 0 l 1
 184 825 l 1
1448 825 m 1
 942 165 l 1
 1324 165 l 1
 1300 0 l 1
 590 0 l 1
 1095 660 l 1
 745 660 l 1
 770 825 l 1
 1448 825 l 1
1025 1119 m 1
 1162 1007 l 1
 1331 1119 l 1
 1386 1028 l 1
 1141 866 l 1
 944 1028 l 1
 1025 1119 l 1
EndSplineSet
EndChar

StartChar: uni01C5
Encoding: 453 453 375
GlifName: uni01C_5
Width: 1220
Flags: W
HStem: 0 168<275 410.669> 0 135<945 1159> 378 135<779.025 938> 657 168<347 476.024>
LayerCount: 2
Fore
SplineSet
577 412 m 0xb0
 598 556 550 657 347 657 c 1
 275 168 l 1
 478 168 556 268 577 412 c 0xb0
184 825 m 1
 423 825 l 2
 616 825 764 699 781 513 c 1
 1255 513 l 1
 945 135 l 1
 1179 135 l 1
 1159 0 l 1
 628 0 l 1x70
 938 378 l 1
 772 378 l 1
 722 156 517 0 301 0 c 2xb0
 62 0 l 1x70
 184 825 l 1
899 811 m 1
 1036 699 l 1
 1205 811 l 1
 1259 720 l 1
 1015 558 l 1
 817 720 l 1
 899 811 l 1
EndSplineSet
EndChar

StartChar: uni01C6
Encoding: 454 454 376
GlifName: uni01C_6
Width: 1180
Flags: W
HStem: -15 151<231.173 452.899> 0 135<891 1105> 377 151<341.249 514.829> 378 135<726 884>
LayerCount: 2
Fore
SplineSet
276 256 m 4xa0
 266 186 306 136 378 136 c 4
 438 136 491 174 509 231 c 5
 517 282 l 5
 514 339 472 377 414 377 c 4
 347 377 286 327 276 256 c 4xa0
1105 0 m 5x50
 574 0 l 5x50
 574 0 581 46 574 52 c 5
 517 13 433 -15 303 -15 c 4
 153 -15 66 106 88 256 c 4
 110 406 233 528 383 528 c 4xa0
 413 528 484 530 552 526 c 5
 599 850 l 5
 776 850 l 5
 726 513 l 5
 1201 513 l 5
 891 135 l 5
 1125 135 l 5
 1105 0 l 5x50
667 113 m 5
 884 378 l 5
 706 378 l 5
 667 113 l 5
885 807 m 1
 1022 695 l 1
 1191 807 l 1
 1246 716 l 1
 1001 554 l 1
 804 716 l 1
 885 807 l 1
EndSplineSet
EndChar

StartChar: uni01C7
Encoding: 455 455 377
GlifName: uni01C_7
Width: 1086
Flags: W
HStem: -15 180<708.04 830.999> 0 165<274 534> 805 20G<181.042 372 955.022 1146>
LayerCount: 2
Fore
SplineSet
372 825 m 1x60
 274 165 l 1
 558 165 l 1
 534 0 l 1
 62 0 l 1
 184 825 l 1
 372 825 l 1x60
1146 825 m 1
 1058 233 l 2
 1034 71 930 -15 765 -15 c 0
 647 -15 583 64 583 64 c 1
 667 221 l 1
 667 221 717 165 765 165 c 0xa0
 819 165 865 198 877 281 c 2
 958 825 l 1
 1146 825 l 1
EndSplineSet
EndChar

StartChar: uni01C8
Encoding: 456 456 378
GlifName: uni01C_8
Width: 805
Flags: W
HStem: -275 160<442.793 534.042> 0 165<274 534> 493 20G<634.025 814> 620 210<709.042 809.597>
LayerCount: 2
Fore
SplineSet
372 825 m 1
 274 165 l 1
 558 165 l 1
 534 0 l 1
 62 0 l 1
 184 825 l 1
 372 825 l 1
637 513 m 1
 814 513 l 1
 726 -79 l 2
 713 -170 653 -275 512 -275 c 0
 428 -275 399 -254 376 -243 c 1
 452 -100 l 1
 452 -100 473 -115 495 -115 c 0
 525 -115 547 -93 554 -45 c 2
 637 513 l 1
775 830 m 0
 833 830 873 783 864 725 c 0
 855 667 802 620 744 620 c 0
 686 620 645 667 654 725 c 0
 663 783 717 830 775 830 c 0
EndSplineSet
EndChar

StartChar: uni01C9
Encoding: 457 457 379
GlifName: uni01C_9
Width: 529
Flags: W
HStem: -275 160<166.793 258.042> 0 21G<61 240.953> 493 20G<358.025 538> 620 210<433.042 533.597>
LayerCount: 2
Fore
SplineSet
61 0 m 1
 188 860 l 1
 365 860 l 1
 238 0 l 1
 61 0 l 1
361 513 m 1
 538 513 l 1
 450 -79 l 2
 437 -170 377 -275 236 -275 c 0
 152 -275 123 -254 100 -243 c 1
 176 -100 l 1
 176 -100 197 -115 219 -115 c 0
 249 -115 271 -93 278 -45 c 2
 361 513 l 1
499 830 m 0
 557 830 597 783 588 725 c 0
 579 667 526 620 468 620 c 0
 410 620 369 667 378 725 c 0
 387 783 441 830 499 830 c 0
EndSplineSet
EndChar

StartChar: uni01CA
Encoding: 458 458 380
GlifName: uni01C_A_
Width: 1297
Flags: W
HStem: -15 180<919.04 1042> 0 21G<62 252.972 746.538 770.958> 805 20G<181.042 205.318 698.941 890 1166.02 1357>
LayerCount: 2
Fore
SplineSet
62 0 m 1x60
 184 825 l 1
 637 400 l 1
 702 825 l 1
 890 825 l 1
 768 0 l 1
 313 424 l 1
 250 0 l 1
 62 0 l 1x60
1357 825 m 1
 1269 233 l 2
 1245 71 1141 -15 976 -15 c 0
 858 -15 794 64 794 64 c 1
 878 221 l 1
 878 221 928 165 976 165 c 0xa0
 1030 165 1076 198 1088 281 c 2
 1169 825 l 1
 1357 825 l 1
EndSplineSet
EndChar

StartChar: uni01CB
Encoding: 459 459 381
GlifName: uni01C_B_
Width: 1056
Flags: W
HStem: -275 160<693.793 785.042> 0 21G<62 252.972 746.538 770.958> 493 20G<885.025 1065> 620 210<960.042 1060.6>
LayerCount: 2
Fore
SplineSet
62 0 m 1
 184 825 l 1
 637 400 l 1
 702 825 l 1
 890 825 l 1
 768 0 l 1
 313 424 l 1
 250 0 l 1
 62 0 l 1
888 513 m 1
 1065 513 l 1
 977 -79 l 2
 964 -170 904 -275 763 -275 c 0
 679 -275 650 -254 627 -243 c 1
 703 -100 l 1
 703 -100 724 -115 746 -115 c 0
 776 -115 798 -93 805 -45 c 2
 888 513 l 1
1026 830 m 0
 1084 830 1124 783 1115 725 c 0
 1106 667 1053 620 995 620 c 0
 937 620 896 667 905 725 c 0
 914 783 968 830 1026 830 c 0
EndSplineSet
EndChar

StartChar: uni01CC
Encoding: 460 460 382
GlifName: uni01C_C_
Width: 914
Flags: W
HStem: -275 160<551.974 643.245> 0 21G<60 246.951 446 625.927> 384 144<331.135 467.287> 500 13G<134.038 277 743.025 923> 620 210<818.681 919.236>
LayerCount: 2
Fore
SplineSet
244 0 m 1xe8
 60 0 l 1
 137 520 l 1
 277 520 l 1
 273 491 l 1
 310 514 359 528 424 528 c 0
 616 528 690 459 665 287 c 2
 623 0 l 1
 446 0 l 1
 482 244 l 2
 497 345 477 384 403 384 c 0
 329 384 295 345 280 244 c 2
 244 0 l 1xe8
746 513 m 1xd8
 923 513 l 1
 835 -79 l 2
 822 -170 762 -275 621 -275 c 0
 537 -275 509 -254 486 -243 c 1
 561 -100 l 1
 561 -100 583 -115 605 -115 c 0
 635 -115 656 -93 663 -45 c 2
 746 513 l 1xd8
885 830 m 0
 943 830 982 783 973 725 c 0
 964 667 912 620 854 620 c 0
 796 620 754 667 763 725 c 0
 772 783 827 830 885 830 c 0
EndSplineSet
EndChar

StartChar: uni01CD
Encoding: 461 461 383
GlifName: uni01C_D_
Width: 918
Flags: W
HStem: 0 21G<39 251.182 672.394 879> 165 165<414 600> 805 20G<481.994 672.139>
LayerCount: 2
Fore
SplineSet
835 1061 m 1
 589 899 l 1
 393 1061 l 1
 474 1152 l 1
 610 1040 l 1
 780 1152 l 1
 835 1061 l 1
667 825 m 1
 879 0 l 1
 677 0 l 1
 639 165 l 1
 325 165 l 1
 241 0 l 1
 39 0 l 1
 493 825 l 1
 667 825 l 1
600 330 m 1
 541 570 l 1
 414 330 l 1
 600 330 l 1
EndSplineSet
EndChar

StartChar: uni01CE
Encoding: 462 462 384
GlifName: uni01C_E_
Width: 709
Flags: W
HStem: -15 151<226 403.195> 0 21G<473 650.952> 377 151<339.762 478.029> 820 20G<319.198 361.286 612.643 655.088>
LayerCount: 2
Fore
SplineSet
275 256 m 0xb0
 265 186 305 136 377 136 c 0
 446 136 503 186 513 256 c 0
 523 327 479 377 413 377 c 0
 346 377 285 327 275 256 c 0xb0
715 454 m 2
 648 0 l 1
 473 0 l 1x70
 482 58 l 1
 438 16 371 -15 301 -15 c 0
 151 -15 65 106 87 256 c 0
 109 406 231 528 381 528 c 0
 450 528 728 541 715 454 c 2
698 749 m 1
 452 587 l 1
 256 749 l 1
 337 840 l 1
 473 728 l 1
 643 840 l 1
 698 749 l 1
EndSplineSet
EndChar

StartChar: uni01CF
Encoding: 463 463 385
GlifName: uni01C_F_
Width: 511
Flags: W
HStem: 0 21G<154 344.958> 805 20G<273.042 464>
LayerCount: 2
Fore
SplineSet
464 825 m 1
 342 0 l 1
 154 0 l 1
 276 825 l 1
 464 825 l 1
271 1147 m 1
 408 1035 l 1
 577 1147 l 1
 632 1056 l 1
 387 894 l 1
 190 1056 l 1
 271 1147 l 1
EndSplineSet
EndChar

StartChar: uni01D0
Encoding: 464 464 386
GlifName: uni01D_0
Width: 516
Flags: W
HStem: 0 21G<164 343.963> 493 20G<237.037 417> 810 20G<208.978 251.286 502.643 544.868>
LayerCount: 2
Fore
SplineSet
227 830 m 1
 363 718 l 1
 533 830 l 1
 587 739 l 1
 342 577 l 1
 145 739 l 1
 227 830 l 1
240 513 m 1
 417 513 l 1
 341 0 l 1
 164 0 l 1
 240 513 l 1
EndSplineSet
EndChar

StartChar: uni01D1
Encoding: 465 465 387
GlifName: uni01D_1
Width: 930
Flags: W
HStem: -15 198<406.874 579.233> 642 198<468.641 641.03>
LayerCount: 2
Fore
SplineSet
313 413 m 0
 295 288 372 183 490 183 c 0
 608 183 716 288 734 413 c 0
 752 538 676 642 558 642 c 0
 440 642 331 538 313 413 c 0
108 413 m 0
 142 645 355 840 587 840 c 0
 819 840 973 645 939 413 c 0
 905 181 693 -15 461 -15 c 0
 229 -15 74 181 108 413 c 0
846 1061 m 1
 601 899 l 1
 404 1061 l 1
 485 1152 l 1
 622 1040 l 1
 791 1152 l 1
 846 1061 l 1
EndSplineSet
EndChar

StartChar: uni01D2
Encoding: 466 466 388
GlifName: uni01D_2
Width: 709
Flags: W
HStem: -15 155<310.106 445.786> 373 155<338.244 471.611> 820 20G<306.198 348.643 600 642.088>
LayerCount: 2
Fore
SplineSet
268 256 m 0
 259 194 307 140 374 140 c 0
 441 140 504 194 513 256 c 0
 522 318 475 373 408 373 c 0
 341 373 277 318 268 256 c 0
86 256 m 0
 107 401 265 528 432 528 c 0
 599 528 716 401 695 256 c 0
 674 111 519 -15 352 -15 c 0
 185 -15 65 111 86 256 c 0
685 749 m 1
 441 587 l 1
 243 749 l 1
 324 840 l 1
 462 728 l 1
 630 840 l 1
 685 749 l 1
EndSplineSet
EndChar

StartChar: uni01D3
Encoding: 467 467 389
GlifName: uni01D_3
Width: 761
Flags: W
HStem: -15 185<325.84 489.452> 805 20G<176.03 367 632.023 823> 828 21G<480.556 535.123>
LayerCount: 2
Fore
SplineSet
823 825 m 1
 744 293 l 2
 714 89 587 -15 377 -15 c 0
 167 -15 70 89 100 293 c 2
 179 825 l 1
 367 825 l 1
 296 348 l 2
 276 210 312 170 404 170 c 0
 496 170 544 210 564 348 c 2
 635 825 l 1
 823 825 l 1
749 990 m 1
 505 828 l 1
 307 990 l 1
 389 1081 l 1
 526 969 l 1
 695 1081 l 1
 749 990 l 1
EndSplineSet
EndChar

StartChar: uni01D4
Encoding: 468 468 390
GlifName: uni01D_4
Width: 671
Flags: W
HStem: -15 144<288.515 423.524> 493 20G<129.003 309 508.049 688>
LayerCount: 2
Fore
SplineSet
309 513 m 1
 273 269 l 2
 258 168 279 129 353 129 c 0
 427 129 460 168 475 269 c 2
 511 513 l 1
 688 513 l 1
 645 226 l 2
 620 54 524 -15 332 -15 c 0
 140 -15 64 54 89 226 c 2
 132 513 l 1
 309 513 l 1
660 705 m 1
 415 543 l 1
 218 705 l 1
 300 796 l 1
 436 684 l 1
 606 796 l 1
 660 705 l 1
EndSplineSet
EndChar

StartChar: uni01DD
Encoding: 477 477 391
GlifName: uni01D_D_
Width: 658
Flags: W
HStem: -15 115<278.116 394.598> 196 90<250 445> 508 20G<344 478.5>
LayerCount: 2
Fore
SplineSet
445 196 m 1
 250 196 l 1
 250 142 281 100 333 100 c 0
 394 100 435 149 445 196 c 1
235 340 m 1
 115 394 l 1
 187 491 287 528 401 528 c 0
 556 528 665 406 643 257 c 0
 621 107 476 -15 321 -15 c 0
 165 -15 62 95 90 286 c 1
 463 286 l 1
 476 372 365 453 235 340 c 1
EndSplineSet
EndChar

StartChar: uni01DE
Encoding: 478 478 392
GlifName: uni01D_E_
Width: 918
Flags: W
HStem: 0 21G<39 251.182 672.394 879> 165 165<414 600> 805 20G<481.994 672.139> 904 184<439.29 534.71 676.29 771.71> 1121 120<435 826>
LayerCount: 2
Fore
SplineSet
435 1241 m 1
 843 1241 l 1
 826 1121 l 1
 418 1121 l 1
 435 1241 l 1
738 1088 m 0
 789 1088 824 1047 816 996 c 0
 808 945 761 904 710 904 c 0
 659 904 624 945 632 996 c 0
 640 1047 687 1088 738 1088 c 0
501 1088 m 0
 552 1088 587 1047 579 996 c 0
 571 945 524 904 473 904 c 0
 422 904 387 945 395 996 c 0
 403 1047 450 1088 501 1088 c 0
667 825 m 1
 879 0 l 1
 677 0 l 1
 639 165 l 1
 325 165 l 1
 241 0 l 1
 39 0 l 1
 493 825 l 1
 667 825 l 1
600 330 m 1
 541 570 l 1
 414 330 l 1
 600 330 l 1
EndSplineSet
EndChar

StartChar: uni01DF
Encoding: 479 479 393
GlifName: uni01D_F_
Width: 709
Flags: W
HStem: -15 151<226 403.195> 0 21G<473 650.952> 377 151<339.762 478.029> 607 184<302.29 398.303 540.29 636.303> 837 120<302 693>
VStem: 258 184<649.329 746.79> 496 184<649.329 746.79>
LayerCount: 2
Fore
SplineSet
275 256 m 0xbe
 265 186 305 136 377 136 c 0
 446 136 503 186 513 256 c 0
 523 327 479 377 413 377 c 0
 346 377 285 327 275 256 c 0xbe
715 454 m 2
 648 0 l 1
 473 0 l 1x7e
 482 58 l 1
 438 16 371 -15 301 -15 c 0
 151 -15 65 106 87 256 c 0
 109 406 231 528 381 528 c 0
 450 528 728 541 715 454 c 2
302 957 m 1
 710 957 l 1
 693 837 l 1
 285 837 l 1
 302 957 l 1
602 791 m 0
 653 791 688 750 680 699 c 0
 672 648 626 607 575 607 c 0
 524 607 488 648 496 699 c 0
 504 750 551 791 602 791 c 0
364 791 m 0
 415 791 450 750 442 699 c 0
 434 648 388 607 337 607 c 0
 286 607 250 648 258 699 c 0
 266 750 313 791 364 791 c 0
EndSplineSet
EndChar

StartChar: uni01E2
Encoding: 482 482 394
GlifName: uni01E_2
Width: 1263
Flags: W
HStem: 0 165<878 1209> 165 165<510 643> 331 165<927 1243> 660 165<951 1306> 920 120<662 1052>
LayerCount: 2
Fore
SplineSet
713 635 m 1x78
 510 330 l 1
 668 330 l 1
 713 635 l 1x78
402 165 m 1
 291 0 l 1
 38 0 l 1
 631 825 l 1
 1331 825 l 1
 1306 660 l 1
 951 660 l 1
 927 496 l 1
 1267 496 l 1
 1243 331 l 1
 903 331 l 1
 878 165 l 1xb8
 1233 165 l 1x78
 1209 0 l 1
 619 0 l 1xb8
 643 165 l 1
 402 165 l 1
662 1040 m 1
 1070 1040 l 1
 1052 920 l 1
 644 920 l 1
 662 1040 l 1
EndSplineSet
EndChar

StartChar: uni01E3
Encoding: 483 483 395
GlifName: uni01E_3
Width: 995
Flags: W
HStem: -15 141<633.659 787.658> -15 106<180.5 357.673> 207 94<262.549 394.473> 232 98<624 819> 387 141<211.327 399.814> 413 115<663.504 795.642> 617 120<381 771>
LayerCount: 2
Fore
SplineSet
381 737 m 1x02
 789 737 l 1
 771 617 l 1
 363 617 l 1
 381 737 l 1x02
244 151 m 0
 239 115 267 91 314 91 c 0
 361 91 404 121 408 151 c 0
 412 181 379 207 332 207 c 0x62
 285 207 249 187 244 151 c 0
624 330 m 1x16
 819 330 l 1
 819 384 786 413 734 413 c 0
 673 413 634 377 624 330 c 1x16
188 357 m 1
 150 478 l 1
 150 478 221 528 352 528 c 0x6a
 414 528 500 513 555 464 c 1
 610 504 677 528 746 528 c 0
 902 528 1008 436 981 256 c 0
 980 249 978 238 976 232 c 1
 604 232 l 1
 592 153 655 126 700 126 c 0
 757 126 783 137 833 183 c 1
 952 119 l 1
 880 22 780 -15 666 -15 c 0x96
 581 -15 510 21 467 79 c 1
 467 79 391 -15 234 -15 c 0
 127 -15 52 43 66 136 c 0
 80 228 157 301 273 301 c 0
 358 301 404 278 425 262 c 1
 430 299 l 2
 438 355 382 387 331 387 c 0x6a
 239 387 188 357 188 357 c 1
EndSplineSet
EndChar

StartChar: uni01E4
Encoding: 484 484 396
GlifName: uni01E_4
Width: 920
Flags: W
HStem: -15 173<405.229 578.352> 191 99<507 600 873 896> 317 145<517 686> 670 170<475.883 650.174>
LayerCount: 2
Fore
SplineSet
827 191 m 1
 736 48 583 -15 447 -15 c 0
 225 -15 73 176 108 412 c 0
 143 649 341 840 573 840 c 0
 718 840 811 786 870 699 c 1
 727 564 l 1
 690 641 632 670 559 670 c 0
 443 670 332 555 311 412 c 0
 290 272 367 158 483 158 c 0
 523 158 565 169 600 191 c 1
 492 191 l 1
 507 290 l 1
 680 290 l 1
 682 299 685 308 686 317 c 1
 496 317 l 1
 517 462 l 1
 898 462 l 1
 873 290 l 1
 911 290 l 1
 896 191 l 1
 827 191 l 1
EndSplineSet
EndChar

StartChar: uni01E5
Encoding: 485 485 397
GlifName: uni01E_5
Width: 741
Flags: W
HStem: -275 154<242.491 408.022> -91 72<298 422 648 692> -15 151<229 433.399> 377 151<342.249 480.956> 493 20G<546.957 727>
LayerCount: 2
Fore
SplineSet
277 256 m 0xf0
 267 186 307 136 379 136 c 0
 448 136 506 186 516 256 c 0
 526 327 481 377 415 377 c 0
 348 377 287 327 277 256 c 0xf0
46 -126 m 1
 202 -55 l 1
 216 -86 254 -121 331 -121 c 0
 357 -121 393 -113 422 -91 c 1
 288 -91 l 1
 298 -19 l 1
 470 -19 l 1
 472 -13 473 -7 474 -1 c 2
 479 37 l 1
 435 -5 374 -15 304 -15 c 0
 154 -15 67 106 89 256 c 0
 111 406 234 528 384 528 c 0xf0
 452 528 504 506 540 467 c 1
 543 467 l 1
 550 513 l 1
 727 513 l 1xe8
 649 -14 l 1
 648 -19 l 1
 702 -19 l 1
 692 -91 l 1
 628 -91 l 1
 577 -212 455 -275 308 -275 c 0
 201 -275 82 -251 46 -126 c 1
EndSplineSet
EndChar

StartChar: Gcaron
Encoding: 486 486 398
GlifName: G_caron
Width: 891
Flags: W
HStem: -15 173<405.229 577.026> 0 21G<775.882 832.944> 317 145<516 686> 670 170<475.883 650.174>
LayerCount: 2
Fore
SplineSet
898 462 m 1xb0
 830 0 l 1x70
 738 34 l 1
 752 94 l 1
 672 18 567 -15 447 -15 c 0
 225 -15 73 176 108 412 c 0
 143 649 341 840 573 840 c 0
 718 840 811 786 870 699 c 1
 727 564 l 1
 690 641 632 670 559 670 c 0
 443 670 332 555 311 412 c 0
 290 272 367 158 483 158 c 0
 573 158 671 216 686 317 c 1
 516 317 l 1
 503 462 l 1
 898 462 l 1xb0
824 1046 m 1
 580 884 l 1
 382 1046 l 1
 464 1137 l 1
 600 1025 l 1
 770 1137 l 1
 824 1046 l 1
EndSplineSet
EndChar

